<?xml version="1.0" encoding="UTF-8"?>
<svg xmlns="http://www.w3.org/2000/svg" xmlns:xlink="http://www.w3.org/1999/xlink" viewBox="0 0 340.16 340.16">
  <defs>
    <style>
      .cls-1 {
        isolation: isolate;
      }

      .cls-2 {
        fill: #231815;
      }

      .cls-3 {
        fill: #fff;
      }

      .cls-4 {
        fill: #c8c9ca;
        mix-blend-mode: multiply;
      }

      .cls-5 {
        fill: #fabe00;
      }

      .cls-6 {
        fill: #b4b4b5;
      }

      .cls-7 {
        fill: #fee;
        filter: url(#drop-shadow-7);
        stroke: #f4c6d9;
        stroke-linecap: round;
        stroke-linejoin: round;
        stroke-width: 6px;
      }
    </style>
    <filter id="drop-shadow-7" x="12.45" y="12.57" width="320.88" height="320.88" filterUnits="userSpaceOnUse">
      <feOffset dx="2.83" dy="2.83"/>
      <feGaussianBlur result="blur" stdDeviation="2.83"/>
      <feFlood flood-color="#000" flood-opacity=".75"/>
      <feComposite in2="blur" operator="in"/>
      <feComposite in="SourceGraphic"/>
    </filter>
  </defs>
  <g class="cls-1">
    <g id="_レイヤー_1" data-name="レイヤー 1">
      <rect class="cls-7" x="21.26" y="21.24" width="297.64" height="297.64" rx="29.95" ry="29.95"/>
      <g>
        <g>
          <g>
            <path class="cls-3" d="M143.89,71.57c-4.48,0-8.15,3.67-8.15,8.15v182.49c0,4.48,3.67,8.15,8.15,8.15h122.22c4.48,0,8.15-3.67,8.15-8.15V106.94l-35.37-35.37h-94.99Z"/>
            <path class="cls-2" d="M266.1,275.3h-122.22c-7.22,0-13.1-5.88-13.1-13.1V79.71c0-7.22,5.88-13.1,13.1-13.1h94.99c1.31,0,2.57.52,3.5,1.45l35.37,35.37c.93.93,1.45,2.19,1.45,3.5v155.26c0,7.22-5.88,13.1-13.1,13.1ZM143.89,76.52c-1.73,0-3.19,1.46-3.19,3.19v182.49c0,1.73,1.46,3.19,3.19,3.19h122.22c1.73,0,3.19-1.46,3.19-3.19V108.99l-32.47-32.47h-92.94Z"/>
          </g>
          <g>
            <path class="cls-3" d="M247.02,106.94h27.23l-35.37-35.37v27.23c0,4.48,3.67,8.15,8.15,8.15Z"/>
            <path class="cls-2" d="M274.25,111.89h-27.23c-7.22,0-13.1-5.88-13.1-13.1v-27.23c0-2,1.21-3.81,3.06-4.57,1.85-.77,3.98-.34,5.4,1.07l35.37,35.37c1.42,1.42,1.84,3.55,1.07,5.4-.77,1.85-2.57,3.06-4.57,3.06ZM243.83,83.52v15.27c0,1.73,1.46,3.19,3.19,3.19h15.27l-18.47-18.47Z"/>
          </g>
        </g>
        <path class="cls-6" d="M244.86,236.42h-80.79c-2.44,0-4.42-1.98-4.42-4.42s1.98-4.42,4.42-4.42h80.79c2.44,0,4.42,1.98,4.42,4.42s-1.98,4.42-4.42,4.42Z"/>
        <path class="cls-6" d="M244.86,212.96h-80.79c-2.44,0-4.42-1.98-4.42-4.42s1.98-4.42,4.42-4.42h80.79c2.44,0,4.42,1.98,4.42,4.42s-1.98,4.42-4.42,4.42Z"/>
        <path class="cls-6" d="M244.86,189.5h-80.79c-2.44,0-4.42-1.98-4.42-4.42s1.98-4.42,4.42-4.42h80.79c2.44,0,4.42,1.98,4.42,4.42s-1.98,4.42-4.42,4.42Z"/>
        <path class="cls-6" d="M244.86,166.05h-80.79c-2.44,0-4.42-1.98-4.42-4.42s1.98-4.42,4.42-4.42h80.79c2.44,0,4.42,1.98,4.42,4.42s-1.98,4.42-4.42,4.42Z"/>
        <path class="cls-6" d="M244.86,142.59h-80.79c-2.44,0-4.42-1.98-4.42-4.42s1.98-4.42,4.42-4.42h80.79c2.44,0,4.42,1.98,4.42,4.42s-1.98,4.42-4.42,4.42Z"/>
        <g>
          <path class="cls-5" d="M171.18,161.3l-17.82-17.82c-4.83-4.83-12.65-4.83-17.47,0-7.12,7.12-18.67,7.12-25.8,0-3.71-3.71-5.49-8.63-5.33-13.49.25-7.6-2.53-15.28-8.34-21.09-11.13-11.13-29.19-11.13-40.32,0-11.13,11.13-11.13,29.19,0,40.32,5.8,5.8,13.48,8.58,21.09,8.34,4.86-.16,9.78,1.62,13.49,5.33,7.12,7.12,7.12,18.67,0,25.8-4.83,4.83-4.83,12.65,0,17.47l17.82,17.82,62.68-62.68Z"/>
          <path class="cls-2" d="M108.5,228.93c-1.31,0-2.57-.52-3.5-1.45l-17.82-17.82c-3.27-3.27-5.07-7.61-5.07-12.24s1.8-8.97,5.07-12.24c5.18-5.18,5.18-13.61,0-18.79-2.63-2.62-6.11-3.99-9.83-3.89-9.21.3-18.23-3.27-24.75-9.78-6.32-6.32-9.8-14.72-9.8-23.66s3.48-17.34,9.8-23.66c13.05-13.05,34.28-13.05,47.32,0,6.51,6.51,10.08,15.54,9.78,24.75-.12,3.71,1.26,7.2,3.89,9.83,5.18,5.18,13.61,5.18,18.79,0,6.75-6.75,17.73-6.75,24.48,0l17.82,17.82c1.93,1.93,1.93,5.07,0,7l-62.68,62.68c-.93.93-2.19,1.45-3.5,1.45ZM77.77,152.6c6.13,0,12.07,2.45,16.41,6.79,9.04,9.04,9.04,23.76,0,32.8-1.4,1.4-2.17,3.26-2.17,5.24s.77,3.84,2.17,5.23l14.32,14.32,55.68-55.68-14.32-14.32c-1.4-1.4-3.26-2.17-5.24-2.17s-3.84.77-5.24,2.17c-9.04,9.04-23.76,9.04-32.8,0-4.52-4.52-6.99-10.77-6.78-17.15.21-6.58-2.23-12.77-6.89-17.43-9.19-9.19-24.13-9.19-33.32,0-4.45,4.45-6.9,10.37-6.9,16.66s2.45,12.21,6.9,16.66c4.66,4.65,10.84,7.11,17.43,6.89.25,0,.49-.01.74-.01Z"/>
        </g>
        <path class="cls-4" d="M103.49,199c-.95,0-1.9-.36-2.63-1.09-1.45-1.45-1.45-3.8,0-5.25l40.2-40.2c1.45-1.45,3.8-1.45,5.25,0,1.45,1.45,1.45,3.8,0,5.25l-40.2,40.2c-.73.73-1.68,1.09-2.63,1.09Z"/>
      </g>
    </g>
  </g>
</svg>