<?xml version="1.0" encoding="UTF-8"?>
<svg id="_レイヤー_1" data-name="レイヤー 1" xmlns="http://www.w3.org/2000/svg" xmlns:xlink="http://www.w3.org/1999/xlink" viewBox="0 0 340.16 340.16">
  <defs>
    <style>
      .cls-1 {
        fill: #231815;
      }

      .cls-2 {
        fill: #fff;
      }

      .cls-3 {
        fill: #fabe00;
      }

      .cls-4 {
        fill: #fee;
        filter: url(#drop-shadow-6);
        stroke: #f4c6d9;
        stroke-linecap: round;
        stroke-linejoin: round;
        stroke-width: 6px;
      }

      .cls-5 {
        fill: #fde599;
      }
    </style>
    <filter id="drop-shadow-6" x="11.96" y="12.57" width="320.88" height="320.88" filterUnits="userSpaceOnUse">
      <feOffset dx="2.83" dy="2.83"/>
      <feGaussianBlur result="blur" stdDeviation="2.83"/>
      <feFlood flood-color="#000" flood-opacity=".75"/>
      <feComposite in2="blur" operator="in"/>
      <feComposite in="SourceGraphic"/>
    </filter>
  </defs>
  <rect class="cls-4" x="20.78" y="21.24" width="297.64" height="297.64" rx="29.95" ry="29.95"/>
  <g>
    <g>
      <g>
        <path class="cls-2" d="M220.5,280.28l-102.66-.59c-5.89-.03-10.68-4.88-10.65-10.77l1.15-192.56c.03-5.89,4.88-10.68,10.77-10.65l102.66.59c5.89.03,10.68,4.88,10.65,10.77l-1.15,192.56c-.03,5.89-4.88,10.68-10.77,10.65Z"/>
        <g>
          <path class="cls-5" d="M215.65,79.47l-19.22-.11v.88c-.03,4.72-3.9,8.53-8.64,8.53h-.05l-34.05-.2c-4.77-.03-8.62-3.9-8.59-8.62v-.89l-20.08-.12c-1.9-.01-3.47,1.54-3.48,3.44l-.88,178.37c-.01,1.9,1.54,3.47,3.44,3.48l90.64.52c1.9.01,3.47-1.54,3.48-3.44l.88-178.37c.01-1.9-1.54-3.47-3.44-3.48Z"/>
          <path class="cls-1" d="M214.76,269.17h-.05l-90.64-.52c-2.1-.01-4.07-.84-5.55-2.34-1.48-1.5-2.29-3.48-2.28-5.58l.88-178.36c.03-4.33,3.55-7.83,7.87-7.83h.04l20.08.11c2.43.01,4.39,1.99,4.39,4.41v.89c-.01,2.32,1.87,4.19,4.21,4.21l34.05.2c2.34,0,4.24-1.86,4.25-4.14v-.86c0-1.17.47-2.3,1.3-3.13.83-.82,1.95-1.28,3.11-1.28h.03l19.22.11c2.1.01,4.07.84,5.55,2.34,1.48,1.5,2.29,3.48,2.28,5.58l-.88,178.36c-.01,2.1-.84,4.07-2.34,5.56-1.49,1.47-3.45,2.28-5.53,2.28ZM125.07,259.82l88.73.51.87-176.46-14.35-.08c-1.58,5.42-6.62,9.39-12.54,9.39l-34.13-.2c-5.97-.03-11-4.07-12.51-9.54l-15.2-.09-.87,176.46ZM215.63,83.88h0,0Z"/>
        </g>
      </g>
      <path class="cls-1" d="M220.56,284.69s-.06,0-.09,0l-102.66-.59c-4.03-.02-7.81-1.62-10.66-4.5-2.85-2.88-4.4-6.68-4.38-10.71l1.15-192.56c.02-4.03,1.62-7.81,4.5-10.66,2.86-2.82,6.63-4.38,10.62-4.38h.09l102.66.59c8.34.05,15.08,6.87,15.04,15.21l-1.15,192.56c-.02,4.03-1.62,7.81-4.5,10.66-2.86,2.83-6.63,4.38-10.62,4.38ZM119.05,70.13c-1.66,0-3.22.65-4.42,1.83-1.2,1.19-1.87,2.76-1.88,4.43l-1.15,192.56c0,1.67.64,3.25,1.83,4.45,1.19,1.2,2.76,1.87,4.43,1.88l102.66.59h.04c1.66,0,3.22-.65,4.41-1.83,1.2-1.19,1.87-2.76,1.88-4.43l1.15-192.56c0-1.67-.64-3.25-1.83-4.45-1.19-1.2-2.76-1.87-4.43-1.88l-102.66-.59s-.02,0-.04,0Z"/>
    </g>
    <g>
      <path class="cls-3" d="M241.43,86.21c-24.21,0-43.83,15.63-43.83,34.91,0,2.76.42,5.45,1.18,8.02l-9.88,9.3c-4.37,4.06-.45,9.67,4.15,8.1,2.35-.8,10-3.8,12.9-4.94,7.97,8.74,20.89,14.43,35.48,14.43,24.21,0,43.83-15.63,43.83-34.91s-19.62-34.91-43.83-34.91Z"/>
      <path class="cls-1" d="M241.43,160.44c-14.05,0-27.48-5.06-36.58-13.67-3.58,1.4-8.5,3.31-10.37,3.95-4.08,1.39-8.46-.18-10.64-3.83-2.25-3.76-1.42-8.46,2.06-11.69l7.97-7.5c-.45-2.18-.68-4.38-.68-6.58,0-21.68,21.64-39.32,48.24-39.32s48.24,17.64,48.24,39.32-21.64,39.32-48.24,39.32ZM205.95,137.18c1.22,0,2.41.5,3.26,1.44,7.41,8.13,19.46,12.98,32.22,12.98,21.73,0,39.41-13.68,39.41-30.49s-17.68-30.49-39.41-30.49-39.41,13.68-39.41,30.49c0,2.26.33,4.54,1,6.77.47,1.6,0,3.33-1.21,4.47l-9.88,9.3c-.43.4-.51.66-.51.71.04.04.1.04.21,0,2.32-.79,10.31-3.93,12.7-4.87.53-.21,1.07-.31,1.62-.31Z"/>
    </g>
    <g>
      <path class="cls-3" d="M173.23,165.14c-2.45-.41-10.57-1.42-13.67-1.8-4.45-19.62-25.99-34.5-51.9-34.5-29.14,0-52.76,18.81-52.76,42.02s23.62,42.02,52.76,42.02c26.19,0,47.91-15.2,52.04-35.12l13.32-3.52c5.77-1.49,5-8.29.21-9.1Z"/>
      <path class="cls-1" d="M107.66,217.3c-31.53,0-57.17-20.83-57.17-46.43s25.65-46.43,57.17-46.43c26.29,0,48.99,14.5,55.38,34.89,3.81.47,8.99,1.14,10.92,1.46h0c4.26.72,7.35,4.19,7.53,8.43.18,4.38-2.78,8.11-7.38,9.3l-10.76,2.84c-5.92,20.98-28.83,35.94-55.7,35.94ZM107.66,133.26c-26.66,0-48.34,16.87-48.34,37.61s21.69,37.61,48.34,37.61c23.46,0,43.98-13.59,47.72-31.6.34-1.64,1.58-2.94,3.2-3.37l13.32-3.52c.57-.15.76-.33.78-.38-.02-.06-.07-.09-.19-.1-2.4-.41-10.92-1.46-13.47-1.77-1.85-.23-3.36-1.59-3.77-3.41-4.09-18-24.1-31.06-47.59-31.06Z"/>
    </g>
    <g>
      <path class="cls-3" d="M218.41,212.76c-8.52,0-16.47,1.94-23.2,5.3l-9.81-7.8c-4.64-3.74-9.64.94-7.42,5.27.97,1.89,4.08,7.39,5.93,10.63-5.84,5.93-9.32,13.39-9.32,21.51,0,19.28,19.62,34.91,43.83,34.91s43.83-15.63,43.83-34.91-19.62-34.91-43.83-34.91Z"/>
      <path class="cls-1" d="M218.41,286.99c-26.6,0-48.24-17.64-48.24-39.32,0-7.89,2.93-15.62,8.33-22.1-1.83-3.24-3.7-6.58-4.44-8.03-1.97-3.84-1.03-8.4,2.26-11.08,3.4-2.76,8.17-2.62,11.86.36l7.65,6.09c6.93-2.99,14.68-4.56,22.58-4.56,26.6,0,48.24,17.64,48.24,39.32s-21.64,39.32-48.24,39.32ZM181.89,213.3s0,0-.01,0c-.03.05-.03.11.03.21.69,1.35,2.76,5.06,5.83,10.46.98,1.72.7,3.87-.69,5.28-5.27,5.35-8.06,11.72-8.06,18.41,0,16.81,17.68,30.49,39.41,30.49s39.41-13.68,39.41-30.49-17.68-30.49-39.41-30.49c-7.54,0-14.88,1.67-21.23,4.83-1.54.76-3.37.57-4.72-.5l-9.81-7.8c-.43-.34-.69-.4-.76-.4Z"/>
    </g>
    <path class="cls-1" d="M227.41,119.31c1.16,2.28.25,5.07-2.03,6.23-2.28,1.16-5.07.25-6.23-2.03-1.16-2.28-.25-5.07,2.03-6.23s5.07-.25,6.23,2.03Z"/>
    <path class="cls-1" d="M245.84,121.42c0,2.56-2.08,4.64-4.64,4.64s-4.63-2.08-4.63-4.64,2.08-4.63,4.63-4.63,4.64,2.08,4.64,4.63Z"/>
    <path class="cls-1" d="M263.76,121.42c0,2.56-2.08,4.64-4.64,4.64s-4.63-2.08-4.63-4.64,2.08-4.63,4.63-4.63,4.64,2.08,4.64,4.63Z"/>
    <path class="cls-1" d="M205.01,245.82c1.16,2.28.25,5.07-2.03,6.23-2.28,1.16-5.07.25-6.23-2.03-1.16-2.28-.25-5.07,2.03-6.23s5.07-.25,6.23,2.03Z"/>
    <path class="cls-1" d="M223.44,247.92c0,2.56-2.08,4.64-4.64,4.64s-4.63-2.08-4.63-4.64,2.08-4.63,4.63-4.63,4.64,2.08,4.64,4.63Z"/>
    <path class="cls-1" d="M241.36,247.92c0,2.56-2.08,4.64-4.64,4.64s-4.63-2.08-4.63-4.64,2.08-4.63,4.63-4.63,4.64,2.08,4.64,4.63Z"/>
    <path class="cls-1" d="M90.2,168.53c1.34,2.63.29,5.85-2.34,7.19-2.63,1.34-5.85.29-7.19-2.34-1.34-2.63-.29-5.85,2.34-7.19s5.85-.29,7.19,2.34Z"/>
    <circle class="cls-1" cx="106.1" cy="170.96" r="5.34"/>
    <circle class="cls-1" cx="126.75" cy="170.96" r="5.34"/>
  </g>
</svg>