<?xml version="1.0" encoding="UTF-8"?>
<svg id="_レイヤー_1" data-name="レイヤー 1" xmlns="http://www.w3.org/2000/svg" xmlns:xlink="http://www.w3.org/1999/xlink" viewBox="0 0 340.16 340.16">
  <defs>
    <style>
      .cls-1 {
        fill: #231815;
      }

      .cls-2 {
        fill: #fff;
      }

      .cls-3 {
        fill: #fabe00;
      }

      .cls-4 {
        fill: #fee;
        filter: url(#drop-shadow-8);
        stroke: #f4c6d9;
        stroke-linecap: round;
        stroke-linejoin: round;
        stroke-width: 6px;
      }
    </style>
    <filter id="drop-shadow-8" x="11.93" y="12.57" width="320.88" height="320.88" filterUnits="userSpaceOnUse">
      <feOffset dx="2.83" dy="2.83"/>
      <feGaussianBlur result="blur" stdDeviation="2.83"/>
      <feFlood flood-color="#000" flood-opacity=".75"/>
      <feComposite in2="blur" operator="in"/>
      <feComposite in="SourceGraphic"/>
    </filter>
  </defs>
  <rect class="cls-4" x="20.74" y="21.24" width="297.64" height="297.64" rx="29.95" ry="29.95"/>
  <g>
    <g>
      <path class="cls-2" d="M121.26,155.18l21.75,8.3c9.98,3.95,5.08,18.73-5.11,15.82,3.15,7.68-3.13,15.2-11.24,12.5l-23.7-8.73,18.31-27.88Z"/>
      <path class="cls-1" d="M129.93,197.26c-1.6,0-3.23-.26-4.84-.8-.05-.02-.1-.03-.15-.05l-23.7-8.73c-1.41-.52-2.5-1.65-2.97-3.07-.47-1.42-.26-2.98.56-4.23l18.31-27.88c1.27-1.93,3.7-2.72,5.86-1.89l21.75,8.3c7.87,3.11,9.9,10.78,7.87,16.75-1.35,3.97-4.6,7.43-9.01,8.57-.18,3.27-1.45,6.36-3.72,8.8-2.59,2.78-6.17,4.25-9.96,4.25ZM128.26,187.16c1.81.58,3.39.28,4.45-.86,1.19-1.27,1.43-3.19.63-5.13-.71-1.74-.37-3.74.88-5.14,1.25-1.4,3.2-1.96,5.01-1.45,2.78.79,3.78-1.2,4.09-2.1.25-.74.84-3.25-2.13-4.43l-18-6.87-12.75,19.41,17.82,6.57Z"/>
    </g>
    <g>
      <rect class="cls-2" x="103.51" y="73.01" width="130.95" height="84.68"/>
      <path class="cls-1" d="M234.46,162.61H103.51c-2.71,0-4.91-2.2-4.91-4.91v-84.68c0-2.71,2.2-4.91,4.91-4.91h130.95c2.71,0,4.91,2.2,4.91,4.91v84.68c0,2.71-2.2,4.91-4.91,4.91ZM108.42,152.79h121.12v-74.86h-121.12v74.86Z"/>
    </g>
    <path class="cls-1" d="M207.58,107.51h-53.96c-2.71,0-4.91-2.2-4.91-4.91s2.2-4.91,4.91-4.91h53.96c2.71,0,4.91,2.2,4.91,4.91s-2.2,4.91-4.91,4.91Z"/>
    <path class="cls-1" d="M207.58,126.04h-66.81c-2.71,0-4.91-2.2-4.91-4.91s2.2-4.91,4.91-4.91h66.81c2.71,0,4.91,2.2,4.91,4.91s-2.2,4.91-4.91,4.91Z"/>
    <g>
      <path class="cls-2" d="M123.06,137.12l-30.64,25.6h-11.93l23.02-9.53v-31.63s-23.34,12.93-32.08,18.5c-7.12,4.54-10.91,11.75-11.33,16.37l-5.46,66.74h33.58c8.39,0,14.27-6.72,18.05-14.27l28.54-58.77c4.2-7.98-3.78-18.05-11.75-13.01Z"/>
      <path class="cls-1" d="M88.22,228.08h-33.58c-1.37,0-2.68-.57-3.61-1.58-.93-1.01-1.4-2.36-1.28-3.73l5.46-66.74c.53-5.88,5.01-14.64,13.59-20.11,8.77-5.59,31.39-18.13,32.34-18.66,1.52-.84,3.38-.82,4.87.07,1.5.88,2.42,2.49,2.42,4.23v21.39l11.48-9.6c.17-.14.34-.27.53-.38,5.1-3.22,11.24-2.69,15.62,1.37,4.98,4.6,6.26,11.99,3.14,18.01l-28.51,58.7c-5.58,11.16-13.34,17.04-22.47,17.04ZM59.97,218.26h28.25c6.51,0,11.02-6.28,13.66-11.56l28.52-58.72s.05-.09.07-.14c1.23-2.34.39-4.94-1.07-6.3-1.38-1.27-2.61-.91-3.47-.42l-30.35,25.36c-.88.74-2,1.14-3.15,1.14h-11.93c-2.71,0-4.91-2.2-4.91-4.91s2.2-4.91,4.91-4.91h10.14l7.97-6.66v-21.23c-7.57,4.25-19.06,10.78-24.53,14.27-6.13,3.91-8.83,9.85-9.08,12.67l-5.02,61.38Z"/>
    </g>
    <path class="cls-1" d="M95.6,163.92c-1.8,0-3.54-.99-4.4-2.72l-6.04-12.08c-1.21-2.43-.23-5.38,2.2-6.59,2.42-1.21,5.38-.23,6.59,2.2l6.04,12.08c1.21,2.43.23,5.38-2.2,6.59-.7.35-1.45.52-2.19.52Z"/>
    <path class="cls-1" d="M139.6,174.7l-14.01-5.22c-2.54-.95-5.37.35-6.32,2.89-.95,2.54.35,5.37,2.89,6.32l14.01,5.22c.57.21,1.14.31,1.71.31,1.99,0,3.87-1.22,4.6-3.2.95-2.54-.35-5.37-2.89-6.32Z"/>
    <g>
      <rect class="cls-2" x="52.37" y="217.65" width="56.19" height="25.83"/>
      <path class="cls-1" d="M108.56,248.39h-56.19c-2.71,0-4.91-2.2-4.91-4.91v-25.83c0-2.71,2.2-4.91,4.91-4.91h56.19c2.71,0,4.91,2.2,4.91,4.91v25.83c0,2.71-2.2,4.91-4.91,4.91ZM57.29,238.57h46.37v-16.01h-46.37v16.01Z"/>
    </g>
    <g>
      <rect class="cls-3" x="49.2" y="233.51" width="62.53" height="32.34"/>
      <path class="cls-1" d="M111.73,270.76h-62.53c-2.71,0-4.91-2.2-4.91-4.91v-32.34c0-2.71,2.2-4.91,4.91-4.91h62.53c2.71,0,4.91,2.2,4.91,4.91v32.34c0,2.71-2.2,4.91-4.91,4.91ZM54.12,260.93h52.7v-22.51h-52.7v22.51Z"/>
    </g>
    <g>
      <path class="cls-2" d="M216.86,155.18l-21.75,8.3c-9.98,3.95-5.08,18.73,5.11,15.82-3.15,7.68,3.13,15.2,11.24,12.5l23.7-8.73-18.31-27.88Z"/>
      <path class="cls-1" d="M208.19,197.26c-3.79,0-7.36-1.48-9.96-4.25-2.27-2.43-3.54-5.53-3.72-8.8-4.41-1.13-7.66-4.59-9.01-8.57-2.03-5.97,0-13.64,7.82-16.73l21.8-8.32c2.15-.82,4.59-.04,5.86,1.89l18.31,27.88c.82,1.25,1.03,2.81.56,4.23-.47,1.42-1.56,2.55-2.97,3.07l-23.7,8.73s-.1.03-.15.05c-1.61.54-3.25.8-4.84.8ZM200.23,174.39c1.38,0,2.72.58,3.66,1.64,1.25,1.4,1.6,3.4.88,5.14-.8,1.94-.56,3.86.63,5.13,1.07,1.14,2.64,1.45,4.45.86l17.82-6.57-12.75-19.41-18.06,6.89c-2.92,1.16-2.33,3.67-2.08,4.41.3.9,1.31,2.89,4.09,2.1.45-.13.9-.19,1.35-.19Z"/>
    </g>
    <g>
      <path class="cls-2" d="M278.03,156.43c-.42-4.62-4.21-11.83-11.33-16.37-8.75-5.58-32.08-18.5-32.08-18.5v31.63l23.02,9.53h-11.93l-30.64-25.6c-7.98-5.04-15.95,5.04-11.75,13.01l28.54,58.77c3.78,7.56,9.65,14.27,18.05,14.27h33.58l-5.46-66.74Z"/>
      <path class="cls-1" d="M283.48,228.08h-33.58c-9.13,0-16.89-5.87-22.44-16.99l-28.54-58.75c-3.12-6.02-1.84-13.41,3.14-18.01,4.39-4.05,10.52-4.59,15.62-1.37.18.12.36.24.53.38l11.48,9.6v-21.39c0-1.74.92-3.35,2.42-4.23,1.5-.88,3.35-.91,4.87-.07.96.53,23.57,13.07,32.34,18.66,8.58,5.47,13.05,14.24,13.58,20.07l5.46,66.78c.11,1.37-.35,2.72-1.28,3.73-.93,1.01-2.24,1.58-3.61,1.58ZM210.69,140.68c-.59,0-1.26.22-1.96.87-1.47,1.36-2.31,3.95-1.07,6.3.02.05.05.09.07.14l28.54,58.77c2.61,5.22,7.12,11.51,13.63,11.51h28.25l-5.02-61.43c-.25-2.78-2.95-8.72-9.08-12.63-5.47-3.49-16.96-10.02-24.53-14.27v21.23l7.97,6.66h10.14c2.71,0,4.91,2.2,4.91,4.91s-2.2,4.91-4.91,4.91h-11.93c-1.15,0-2.27-.4-3.15-1.14l-30.35-25.36c-.43-.24-.94-.45-1.52-.45Z"/>
    </g>
    <path class="cls-1" d="M242.53,163.92c-.74,0-1.49-.17-2.19-.52-2.43-1.21-3.41-4.16-2.2-6.59l6.04-12.08c1.21-2.43,4.16-3.41,6.59-2.2,2.43,1.21,3.41,4.16,2.2,6.59l-6.04,12.08c-.86,1.72-2.6,2.72-4.4,2.72Z"/>
    <path class="cls-1" d="M218.84,172.37c-.95-2.54-3.78-3.84-6.32-2.89l-14.01,5.22c-2.54.95-3.84,3.78-2.89,6.32.74,1.98,2.61,3.2,4.6,3.2.57,0,1.15-.1,1.71-.31l14.01-5.22c2.54-.95,3.84-3.78,2.89-6.32Z"/>
    <g>
      <rect class="cls-2" x="229.56" y="217.65" width="56.19" height="25.83" transform="translate(515.3 461.12) rotate(180)"/>
      <path class="cls-1" d="M285.75,248.39h-56.19c-2.71,0-4.91-2.2-4.91-4.91v-25.83c0-2.71,2.2-4.91,4.91-4.91h56.19c2.71,0,4.91,2.2,4.91,4.91v25.83c0,2.71-2.2,4.91-4.91,4.91ZM234.47,238.57h46.37v-16.01h-46.37v16.01Z"/>
    </g>
    <g>
      <rect class="cls-3" x="226.39" y="233.51" width="62.53" height="32.34" transform="translate(515.3 499.35) rotate(180)"/>
      <path class="cls-1" d="M288.92,270.76h-62.53c-2.71,0-4.91-2.2-4.91-4.91v-32.34c0-2.71,2.2-4.91,4.91-4.91h62.53c2.71,0,4.91,2.2,4.91,4.91v32.34c0,2.71-2.2,4.91-4.91,4.91ZM231.3,260.93h52.7v-22.51h-52.7v22.51Z"/>
    </g>
  </g>
</svg>