<?xml version="1.0" encoding="UTF-8"?>
<svg id="_レイヤー_1" data-name="レイヤー 1" xmlns="http://www.w3.org/2000/svg" xmlns:xlink="http://www.w3.org/1999/xlink" viewBox="0 0 340.16 340.16">
  <defs>
    <style>
      .cls-1 {
        fill: #231815;
      }

      .cls-2 {
        fill: #fff;
      }

      .cls-3 {
        fill: #fcdf80;
      }

      .cls-4 {
        fill: #fabe00;
      }

      .cls-5 {
        fill: #fee;
        filter: url(#drop-shadow-3);
        stroke: #f4c6d9;
        stroke-linecap: round;
        stroke-linejoin: round;
        stroke-width: 6px;
      }

      .cls-6 {
        fill: #4d4d4d;
      }
    </style>
    <filter id="drop-shadow-3" x="12.45" y="12.57" width="320.88" height="320.88" filterUnits="userSpaceOnUse">
      <feOffset dx="2.83" dy="2.83"/>
      <feGaussianBlur result="blur" stdDeviation="2.83"/>
      <feFlood flood-color="#000" flood-opacity=".75"/>
      <feComposite in2="blur" operator="in"/>
      <feComposite in="SourceGraphic"/>
    </filter>
  </defs>
  <rect class="cls-5" x="21.26" y="21.24" width="297.64" height="297.64" rx="29.95" ry="29.95"/>
  <g>
    <g>
      <rect class="cls-4" x="122.83" y="257" width="97.01" height="27.89"/>
      <path class="cls-1" d="M219.84,290.56h-97.01c-3.13,0-5.67-2.54-5.67-5.67v-27.89c0-3.13,2.54-5.67,5.67-5.67h97.01c3.13,0,5.67,2.54,5.67,5.67v27.89c0,3.13-2.54,5.67-5.67,5.67ZM128.5,279.22h85.68v-16.55h-85.68v16.55Z"/>
    </g>
    <g>
      <rect class="cls-4" x="152.68" y="126.97" width="37.32" height="137.61"/>
      <path class="cls-1" d="M189.99,270.24h-37.32c-3.13,0-5.67-2.54-5.67-5.67V126.97c0-3.13,2.54-5.67,5.67-5.67h37.32c3.13,0,5.67,2.54,5.67,5.67v137.61c0,3.13-2.54,5.67-5.67,5.67ZM158.35,258.9h25.98v-126.27h-25.98v126.27Z"/>
    </g>
    <g>
      <rect class="cls-4" x="38.98" y="63.58" width="264.71" height="168.68"/>
      <path class="cls-1" d="M303.69,237.93H38.98c-3.13,0-5.67-2.54-5.67-5.67V63.58c0-3.13,2.54-5.67,5.67-5.67h264.71c3.13,0,5.67,2.54,5.67,5.67v168.68c0,3.13-2.54,5.67-5.67,5.67ZM44.65,226.59h253.37V69.25H44.65v157.34Z"/>
    </g>
    <g>
      <rect class="cls-2" x="56.3" y="83.34" width="230.07" height="129.16"/>
      <path class="cls-1" d="M286.37,218.17H56.3c-3.13,0-5.67-2.54-5.67-5.67V83.34c0-3.13,2.54-5.67,5.67-5.67h230.07c3.13,0,5.67,2.54,5.67,5.67v129.16c0,3.13-2.54,5.67-5.67,5.67ZM61.97,206.83h218.73v-117.82H61.97v117.82Z"/>
    </g>
  </g>
  <g>
    <path d="M176.66,170.69h-7.98c-1.13,0-2.04-.91-2.04-2.04v-47.61s-1.78-8.93-1.78-8.93c-.04-.22-.05-.44-.02-.67l1.81-13.6c.14-1.01,1-1.77,2.02-1.77h7.93c1.02,0,1.89.76,2.02,1.78l1.77,13.6c.03.22.02.44-.02.66l-1.75,8.9.06,28.16v19.49c0,1.13-.91,2.04-2.04,2.04ZM170.72,166.61h3.9v-17.45l-.06-28.35c0-.13.01-.27.04-.4l1.72-8.77-1.5-11.49h-4.36l-1.53,11.49,1.75,8.8c.03.13.04.26.04.4v45.77Z"/>
    <g>
      <path class="cls-4" d="M174.32,199.82c-2.98.27-6.92-.15-6.94-4,0,0,0-31.7,0-31.7.01-3.83,3.96-4.28,6.94-4,2.2,0,4,1.8,4,4v31.7c0,2.2-1.8,4-4,4Z"/>
      <path d="M172.9,202.46c-2.65,0-4.7-.65-6.12-1.95-.89-.81-1.95-2.28-1.96-4.68h.04c-.04-.44-.04-.9-.04-1.37v-30.34c0-2.41,1.08-3.88,1.97-4.69,2.12-1.92,5.32-2.09,7.67-1.87,1.7.03,3.3.71,4.51,1.92s1.93,2.89,1.93,4.64v31.7c0,3.58-2.88,6.5-6.44,6.57-.54.05-1.05.07-1.55.07ZM169.96,195.82c0,.64.2.82.28.89.44.4,1.68.75,3.86.55.08,0,.15-.01.23-.01.77,0,1.43-.65,1.43-1.43v-31.7c0-.51-.26-.85-.42-1.01-.16-.16-.5-.42-1.01-.42-.08,0-.16,0-.25-.01-2.15-.21-3.41.17-3.84.55-.08.08-.28.25-.28.89,0,0,0,31.29,0,31.69Z"/>
    </g>
    <g>
      <path class="cls-4" d="M216.93,132.64l-10.08.83-1.17,62.7c0,6.1,12.59,4.95,12.59.79s-1.34-64.32-1.34-64.32Z"/>
      <path d="M211.81,202.99c-1.49,0-3.66-.24-5.55-1.36-2.04-1.22-3.16-3.15-3.16-5.45,0-.02,0-.03,0-.05l1.17-62.7c.02-1.32,1.04-2.4,2.36-2.51l10.08-.83c.71-.06,1.4.18,1.93.65.53.47.83,1.14.85,1.85.05,2.46,1.34,60.24,1.34,64.38,0,2.99-3.1,6.02-9.03,6.02ZM208.25,196.2c0,.29.04.94,1.5,1.38,2.48.74,5.36-.13,5.95-.77-.03-4.64-1.02-49.73-1.28-61.37l-5.05.42-1.12,60.35Z"/>
    </g>
    <g>
      <rect class="cls-6" x="189.58" y="117.32" width="46.29" height="17.26"/>
      <path d="M235.12,137.15h-46.29c-1.42,0-2.57-1.15-2.57-2.57v-17.26c0-1.42,1.15-2.57,2.57-2.57h46.29c1.42,0,2.57,1.15,2.57,2.57v17.26c0,1.42-1.15,2.57-2.57,2.57ZM191.4,132.01h41.15v-12.12h-41.15v12.12Z"/>
    </g>
    <g>
      <path class="cls-2" d="M145,167.91h-.12v-36.56c14.81-2.42,7.34-23.37,1.29-27.92-1.56-1.17-5.38-2.03-4.84,1.25,0,0,1.25,4.76,2.03,10.61.78,5.85-12.02,8.04-13.42,2.73-3.71-28.9-17.58,11.62.04,13.27v36.56c-14.81,2.42-7.34,23.37-1.29,27.92,1.56,1.17,5.38,2.03,4.84-1.25,0,0-1.25-4.76-2.03-10.61-.78-5.85,12.02-8.04,13.42-2.73,3.68,28.81,17.54-11.37.08-13.27Z"/>
      <path d="M131.76,199.39c-1.79,0-3.6-.81-4.61-1.56-4.64-3.49-10-14.85-7.9-23.38,1.06-4.31,3.93-7.31,8.16-8.63v-32.41c-5.59-1.63-8.88-7.14-8.73-14.95.06-2.93.64-5.98,1.59-8.35,1.6-4,3.72-4.93,5.21-5.01,4.73-.27,6.26,6.87,6.99,12.37.35.78,2.32,1.29,4.63.84,1.95-.39,3.88-1.49,3.72-2.67-.75-5.63-1.96-10.25-1.97-10.3-.02-.08-.04-.15-.05-.23-.48-2.89,1.13-4.21,1.84-4.64,2.36-1.43,5.59-.2,7.08.92,4.64,3.49,10,14.85,7.9,23.38-1.06,4.31-3.93,7.31-8.16,8.63v32.4c5.67,1.67,8.96,7.29,8.73,15.23-.09,2.94-.67,5.85-1.63,8.2-1.61,3.92-3.71,4.83-5.19,4.9-4.71.22-6.24-6.88-6.96-12.37-.35-.78-2.32-1.29-4.63-.84-1.95.39-3.88,1.49-3.73,2.67.75,5.61,1.96,10.25,1.97,10.3.02.08.04.15.05.23.48,2.89-1.13,4.21-1.84,4.64-.76.46-1.61.65-2.47.65ZM125.6,110.81c-1.19,2.02-2.52,7.56-1.28,12.31.33,1.28,1.35,5.18,5.91,5.61,1.32.12,2.33,1.23,2.33,2.56v36.56c0,1.26-.91,2.33-2.15,2.54-3.41.56-5.42,2.29-6.16,5.29-1.5,6.08,2.68,15.54,6,18.04.14.11.32.2.52.28-.43-1.8-1.23-5.47-1.8-9.75-.53-3.98,2.61-7.36,7.82-8.39,5.26-1.04,9.63.87,10.63,4.66.03.11.05.22.06.33.57,4.44,1.32,6.57,1.8,7.54,1.18-2,2.51-7.48,1.32-12.19-.32-1.28-1.3-5.17-5.74-5.72-1.4-.02-2.53-1.16-2.53-2.57v-36.56c0-1.26.91-2.33,2.16-2.54,3.41-.56,5.42-2.29,6.16-5.29,1.5-6.08-2.68-15.54-6-18.04-.14-.11-.32-.2-.52-.28.43,1.8,1.23,5.47,1.8,9.75.53,3.98-2.61,7.36-7.82,8.39-5.26,1.04-9.63-.87-10.63-4.66-.03-.11-.05-.22-.06-.33-.57-4.44-1.32-6.57-1.8-7.54ZM143.86,104.08h0s0,0,0,0Z"/>
    </g>
    <g>
      <path class="cls-3" d="M137.85,163.66c-1,.14-2.09-.41-2.08-1.53,0,0,0-24.87,0-24.87-.03-2.08,3.64-2.08,3.61,0,0,0,0,24.87,0,24.87,0,.84-.69,1.53-1.53,1.53Z"/>
      <path class="cls-3" d="M137.54,164.33c-.65,0-1.27-.22-1.71-.61-.46-.4-.71-.97-.7-1.59v-24.86c0-.77.37-1.44,1.05-1.84.82-.48,1.98-.48,2.8,0,.68.39,1.06,1.07,1.05,1.85v24.86c0,1.19-.95,2.15-2.13,2.18-.12.01-.24.02-.35.02ZM137.58,136.34c-.27,0-.54.06-.75.19-.28.16-.42.4-.41.72v24.88c0,.26.08.46.26.62.26.23.67.33,1.08.27.03,0,.06,0,.09,0,.49,0,.89-.4.89-.89v-24.87c0-.33-.13-.57-.41-.73-.21-.12-.48-.19-.75-.19Z"/>
    </g>
  </g>
</svg>