<?xml version="1.0" encoding="UTF-8"?>
<svg id="_レイヤー_1" data-name="レイヤー 1" xmlns="http://www.w3.org/2000/svg" xmlns:xlink="http://www.w3.org/1999/xlink" viewBox="0 0 340.16 340.16">
  <defs>
    <style>
      .cls-1 {
        fill: #4c4948;
      }

      .cls-2 {
        fill: #231815;
      }

      .cls-3 {
        fill: #fff;
      }

      .cls-4 {
        fill: #fabe00;
      }

      .cls-5 {
        fill: #fee;
        filter: url(#drop-shadow-12);
        stroke: #f4c6d9;
        stroke-linecap: round;
        stroke-linejoin: round;
        stroke-width: 6px;
      }
    </style>
    <filter id="drop-shadow-12" x="10.54" y="12.57" width="320.88" height="320.88" filterUnits="userSpaceOnUse">
      <feOffset dx="2.83" dy="2.83"/>
      <feGaussianBlur result="blur" stdDeviation="2.83"/>
      <feFlood flood-color="#000" flood-opacity=".75"/>
      <feComposite in2="blur" operator="in"/>
      <feComposite in="SourceGraphic"/>
    </filter>
  </defs>
  <rect class="cls-5" x="19.36" y="21.24" width="297.64" height="297.64" rx="29.95" ry="29.95"/>
  <g>
    <g>
      <polygon class="cls-3" points="73.89 253.21 73.89 66.38 222.4 66.38 222.4 275.75 96.79 275.75 73.89 253.21"/>
      <path class="cls-2" d="M222.4,280.49h-125.61c-1.25,0-2.44-.49-3.33-1.36l-22.9-22.53c-.91-.89-1.42-2.11-1.42-3.38V66.38c0-2.62,2.13-4.75,4.75-4.75h148.51c2.62,0,4.75,2.13,4.75,4.75v209.37c0,2.62-2.13,4.75-4.75,4.75ZM98.73,271h118.92V71.12H78.64v180.1l20.1,19.77Z"/>
    </g>
    <g>
      <polygon class="cls-3" points="73.89 253.21 96.79 253.21 96.79 275.75 73.89 253.21"/>
      <path class="cls-2" d="M96.79,280.5c-1.22,0-2.42-.47-3.33-1.36l-22.9-22.53c-1.37-1.35-1.79-3.4-1.06-5.18.73-1.78,2.47-2.95,4.39-2.95h22.9c2.62,0,4.75,2.13,4.75,4.75v22.53c0,1.91-1.15,3.64-2.91,4.38-.59.25-1.22.37-1.83.37ZM85.49,257.96l6.56,6.45v-6.45h-6.56Z"/>
    </g>
    <path class="cls-2" d="M167.31,133.24h-70.81c-1.97,0-3.56-1.59-3.56-3.56s1.59-3.56,3.56-3.56h70.81c1.97,0,3.56,1.59,3.56,3.56s-1.59,3.56-3.56,3.56Z"/>
    <path class="cls-2" d="M149.93,98.17h-53.43c-1.97,0-3.56-1.59-3.56-3.56s1.59-3.56,3.56-3.56h53.43c1.97,0,3.56,1.59,3.56,3.56s-1.59,3.56-3.56,3.56Z"/>
    <path class="cls-2" d="M167.31,144.96h-70.81c-1.97,0-3.56-1.59-3.56-3.56s1.59-3.56,3.56-3.56h70.81c1.97,0,3.56,1.59,3.56,3.56s-1.59,3.56-3.56,3.56Z"/>
    <path class="cls-2" d="M207.42,148.49h-26.05c-1.97,0-3.56-1.59-3.56-3.56v-18.75c0-1.97,1.59-3.56,3.56-3.56h26.05c1.97,0,3.56,1.59,3.56,3.56v18.75c0,1.97-1.59,3.56-3.56,3.56ZM184.93,141.37h18.92v-11.63h-18.92v11.63Z"/>
    <path class="cls-2" d="M167.31,166.05h-70.81c-1.97,0-3.56-1.59-3.56-3.56s1.59-3.56,3.56-3.56h70.81c1.97,0,3.56,1.59,3.56,3.56s-1.59,3.56-3.56,3.56Z"/>
    <path class="cls-2" d="M167.31,177.78h-70.81c-1.97,0-3.56-1.59-3.56-3.56s1.59-3.56,3.56-3.56h70.81c1.97,0,3.56,1.59,3.56,3.56s-1.59,3.56-3.56,3.56Z"/>
    <path class="cls-2" d="M207.42,181.31h-26.05c-1.97,0-3.56-1.59-3.56-3.56v-18.75c0-1.97,1.59-3.56,3.56-3.56h26.05c1.97,0,3.56,1.59,3.56,3.56v18.75c0,1.97-1.59,3.56-3.56,3.56ZM184.93,174.19h18.92v-11.63h-18.92v11.63Z"/>
    <path class="cls-2" d="M167.31,198.87h-70.81c-1.97,0-3.56-1.59-3.56-3.56s1.59-3.56,3.56-3.56h70.81c1.97,0,3.56,1.59,3.56,3.56s-1.59,3.56-3.56,3.56Z"/>
    <path class="cls-2" d="M167.31,210.59h-70.81c-1.97,0-3.56-1.59-3.56-3.56s1.59-3.56,3.56-3.56h70.81c1.97,0,3.56,1.59,3.56,3.56s-1.59,3.56-3.56,3.56Z"/>
    <path class="cls-2" d="M207.42,214.13h-26.05c-1.97,0-3.56-1.59-3.56-3.56v-18.75c0-1.97,1.59-3.56,3.56-3.56h26.05c1.97,0,3.56,1.59,3.56,3.56v18.75c0,1.97-1.59,3.56-3.56,3.56ZM184.93,207.01h18.92v-11.63h-18.92v11.63Z"/>
    <path class="cls-2" d="M167.31,231.69h-70.81c-1.97,0-3.56-1.59-3.56-3.56s1.59-3.56,3.56-3.56h70.81c1.97,0,3.56,1.59,3.56,3.56s-1.59,3.56-3.56,3.56Z"/>
    <path class="cls-2" d="M167.31,243.41h-70.81c-1.97,0-3.56-1.59-3.56-3.56s1.59-3.56,3.56-3.56h70.81c1.97,0,3.56,1.59,3.56,3.56s-1.59,3.56-3.56,3.56Z"/>
    <path class="cls-2" d="M207.42,246.94h-26.05c-1.97,0-3.56-1.59-3.56-3.56v-18.75c0-1.97,1.59-3.56,3.56-3.56h26.05c1.97,0,3.56,1.59,3.56,3.56v18.75c0,1.97-1.59,3.56-3.56,3.56ZM184.93,239.82h18.92v-11.63h-18.92v11.63Z"/>
    <g>
      <path class="cls-1" d="M202.15,187.9s-3.24-11.61-4.05-14.1c-.82-2.49,1.2-3.43,3.1-2.34,2.6,1.5,11.73,6.57,11.73,6.57l-10.78,9.86Z"/>
      <path class="cls-2" d="M202.15,192.64c-.44,0-.88-.06-1.31-.18-1.59-.45-2.82-1.7-3.27-3.29-.89-3.2-3.35-11.94-3.99-13.89-.96-2.93-.23-5.83,1.91-7.57,2.18-1.78,5.35-1.92,8.07-.36,2.55,1.46,11.58,6.49,11.67,6.54,1.33.74,2.23,2.08,2.41,3.6.18,1.52-.38,3.03-1.51,4.05l-10.78,9.86c-.89.81-2.03,1.24-3.2,1.24ZM204.51,178.78c.04.14.08.28.12.42l.24-.22c-.12-.07-.24-.13-.36-.2Z"/>
    </g>
    <g>
      <path class="cls-3" d="M202.15,187.9l10.78-9.86,20.18,11.34s2.58,15.81-3.93,20.98c-6.5,5.18-20.98-1.15-20.98-1.15l-6.05-21.31Z"/>
      <path class="cls-2" d="M222.06,217.14c-2.07,0-4.34-.26-6.79-.78-4.85-1.02-8.81-2.74-8.97-2.81-1.3-.57-2.28-1.69-2.67-3.05l-6.05-21.3c-.49-1.73.04-3.59,1.36-4.8l10.78-9.86c1.51-1.39,3.74-1.64,5.53-.64l20.18,11.34c1.26.71,2.13,1.95,2.36,3.38.03.18.72,4.47.53,9.49-.28,7.55-2.36,12.92-6.19,15.97-2.57,2.04-5.94,3.07-10.08,3.07ZM212.13,205.67c7.12,2.63,12.53,2.22,14.1.97,1.58-1.26,3.31-6.56,2.49-14.29l-15.12-8.49-6.08,5.56,4.61,16.25Z"/>
    </g>
    <g>
      <path class="cls-4" d="M266.57,281.91l-58.37-72.71c-1.06-1.34,6.22.87,7.49-.53s-.59-11.2,1.93-13.21c2.7-2.15,11.16,3.32,12.77,2.01s1.7-9.39,2.72-8.1l58.37,72.71-24.91,19.83Z"/>
      <path d="M266.57,286.66c-1.39,0-2.77-.61-3.71-1.78l-58.37-72.71c-1.3-1.64-1.51-3.82-.54-5.57,1.69-3.05,4.95-2.67,7.32-2.4.05,0,.1.01.16.02,0-.16,0-.31,0-.45-.03-4.63-.06-9.41,3.22-12.02,3.59-2.86,8.44-1.11,12.33.29.07.03.15.05.22.08.04-.24.08-.46.11-.65.51-2.94,1.04-5.98,4.36-6.83,1.91-.49,3.88.19,5.14,1.78l58.36,72.7c.79.98,1.16,2.24,1.02,3.5-.14,1.26-.77,2.4-1.76,3.19l-24.91,19.83c-.87.7-1.92,1.03-2.95,1.03ZM217.47,213.17l49.84,62.08,17.48-13.91-49.84-62.09c-.41.73-.92,1.37-1.57,1.91-2.79,2.26-6.1,1.07-9.61-.19-.73-.26-1.83-.66-2.78-.94-.08,1.2-.07,2.7-.06,3.67.02,3.6.04,6.2-1.73,8.15-.52.58-1.1,1-1.73,1.31ZM229.41,192.34s.01.02.02.03l-.02-.03Z"/>
    </g>
  </g>
</svg>