<?xml version="1.0" encoding="UTF-8"?>
<svg id="_レイヤー_1" data-name="レイヤー 1" xmlns="http://www.w3.org/2000/svg" xmlns:xlink="http://www.w3.org/1999/xlink" viewBox="0 0 340.16 340.16">
  <defs>
    <style>
      .cls-1 {
        fill: #231815;
      }

      .cls-2 {
        fill: #fff;
      }

      .cls-3 {
        fill: #fabe00;
      }

      .cls-4 {
        fill: #fee;
        filter: url(#drop-shadow-9);
        stroke: #f4c6d9;
        stroke-linecap: round;
        stroke-linejoin: round;
        stroke-width: 6px;
      }

      .cls-5 {
        fill: #fef2cc;
      }
    </style>
    <filter id="drop-shadow-9" x="11.42" y="12.57" width="320.88" height="320.88" filterUnits="userSpaceOnUse">
      <feOffset dx="2.83" dy="2.83"/>
      <feGaussianBlur result="blur" stdDeviation="2.83"/>
      <feFlood flood-color="#000" flood-opacity=".75"/>
      <feComposite in2="blur" operator="in"/>
      <feComposite in="SourceGraphic"/>
    </filter>
  </defs>
  <rect class="cls-4" x="20.23" y="21.24" width="297.64" height="297.64" rx="29.95" ry="29.95"/>
  <g>
    <path class="cls-1" d="M196.38,79.65l1.72-26.55c.18-2.84-1.97-5.3-4.82-5.48-3.08-.22-5.7,2.41-5.48,5.48l1.72,26.55c.38,4.26,6.5,4.25,6.87,0h0Z"/>
    <g>
      <polygon class="cls-3" points="184.16 66.88 210.73 73.62 204.97 95.07 176.16 95.07 184.16 66.88"/>
      <path class="cls-1" d="M180.12,96.2l6.91-24.34,18.64,4.73-4.68,17.42,7.96,2.14,5.76-21.45c.29-1.06.13-2.2-.42-3.15-.56-.95-1.47-1.64-2.54-1.91l-26.57-6.74c-2.16-.55-4.37.72-4.98,2.87l-8.01,28.19,7.93,2.25Z"/>
    </g>
    <path class="cls-1" d="M198.43,81.35l16.2-21.49c1.72-2.28,1.26-5.51-1.01-7.23-2.45-1.88-6.08-1.12-7.59,1.56,0,0-13.34,23.38-13.34,23.38-2.03,3.77,3.09,7.13,5.74,3.78h0Z"/>
    <g>
      <path class="cls-2" d="M233.28,276.05h-113.11c-1.09-1.78-3.47-1.59-4.2-1.1-1.13.75-2.37,1.17-3.67,1.17-5.16,0-9.34-6.52-9.34-14.56s4.18-14.56,9.34-14.56c1.3,0,2.54.42,3.67,1.17.73.48,3.11.68,4.2-1.1h113.11c-2.73,3.4-4.49,8.63-4.49,14.5s1.75,11.1,4.49,14.5Z"/>
      <path class="cls-1" d="M112.3,242.87c1.7,0,3.4.43,4.96,1.26.76-.76,1.81-1.2,2.91-1.2h113.11c1.59,0,3.03.91,3.72,2.34.68,1.43.49,3.13-.51,4.36-2.24,2.78-3.58,7.24-3.58,11.91s1.34,9.13,3.58,11.91c.99,1.24,1.19,2.93.51,4.36-.68,1.43-2.13,2.34-3.72,2.34h-113.11c-1.1,0-2.15-.44-2.91-1.2-1.56.83-3.26,1.26-4.96,1.26-7.55,0-13.46-8.21-13.46-18.68s5.91-18.68,13.46-18.68ZM117.41,252.61c-1.38,0-2.71-.36-3.72-1.02-.48-.32-.94-.48-1.39-.48-2.13,0-5.22,4.07-5.22,10.44s3.09,10.44,5.22,10.44c.45,0,.9-.16,1.39-.48,1.42-.95,3.51-1.27,5.44-.84,1.02.23,1.96.65,2.76,1.25h104.52c-1.13-3.16-1.74-6.71-1.74-10.38s.61-7.21,1.74-10.38h-104.52c-.8.6-1.74,1.02-2.76,1.25-.57.13-1.15.19-1.72.19Z"/>
    </g>
    <path class="cls-1" d="M112.3,242.87c1.7,0,3.4.43,4.96,1.26.76-.76,1.81-1.2,2.91-1.2h117.02c2.28,0,4.12,1.84,4.12,4.12s-1.84,4.12-4.12,4.12h-115.31c-.8.6-1.74,1.02-2.76,1.25-1.93.43-4.02.11-5.44-.83-.48-.32-.94-.48-1.39-.48-2.13,0-5.22,4.07-5.22,10.44s3.09,10.44,5.22,10.44c.45,0,.9-.16,1.39-.48,1.42-.95,3.51-1.27,5.44-.84,1.02.23,1.96.65,2.76,1.25h115.31c2.28,0,4.12,1.84,4.12,4.12s-1.84,4.12-4.12,4.12h-117.02c-1.1,0-2.15-.44-2.91-1.2-1.56.83-3.26,1.26-4.96,1.26-7.55,0-13.46-8.21-13.46-18.68s5.91-18.68,13.46-18.68Z"/>
    <path class="cls-1" d="M112.3,242.87c1.7,0,3.4.43,4.96,1.26.76-.76,1.81-1.2,2.91-1.2h117.02c2.28,0,4.12,1.84,4.12,4.12s-1.84,4.12-4.12,4.12h-115.31c-.8.6-1.74,1.02-2.76,1.25-1.93.43-4.01.11-5.44-.83-.48-.32-.94-.48-1.39-.48-2.13,0-5.22,4.07-5.22,10.44,0,2.28-1.84,4.12-4.12,4.12s-4.12-1.84-4.12-4.12c0-10.47,5.91-18.68,13.46-18.68Z"/>
    <g>
      <path class="cls-5" d="M112.3,198.13c1.3,0,2.54.42,3.67,1.17.73.48,3.11.68,4.2-1.1h117.02v-104.3h-117.02c-1.09,1.78-3.47,1.59-4.2,1.1-1.13-.75-2.37-1.17-3.67-1.17-5.16,0-9.34,6.52-9.34,14.56v104.3c0-8.04,4.18-14.56,9.34-14.56Z"/>
      <g>
        <path class="cls-3" d="M112.3,246.99c1.3,0,2.54.42,3.67,1.17.73.48,3.11.68,4.2-1.1h117.02v-48.86h-117.02c-1.09,1.78-3.47,1.59-4.2,1.1-1.13-.75-2.37-1.17-3.67-1.17-5.16,0-9.34,6.52-9.34,14.56v48.86c0-8.04,4.18-14.56,9.34-14.56Z"/>
        <path class="cls-1" d="M112.3,195.04c1.76,0,3.51.52,5.09,1.5.05,0,.13,0,.17-.02.57-.88,1.55-1.42,2.6-1.42h117.02c1.71,0,3.09,1.38,3.09,3.09v48.86c0,1.71-1.38,3.09-3.09,3.09h-115.66c-.74.62-1.64,1.05-2.63,1.27-1.64.37-3.47.1-4.64-.69-.65-.43-1.31-.65-1.96-.65-2.96,0-6.25,4.71-6.25,11.47,0,1.71-1.38,3.09-3.09,3.09s-3.09-1.38-3.09-3.09v-48.86c0-9.9,5.46-17.65,12.43-17.65ZM117.42,202.72c-1.18,0-2.33-.3-3.16-.85-.65-.43-1.31-.65-1.96-.65-2.96,0-6.25,4.71-6.25,11.47v33.53c1.83-1.48,3.96-2.32,6.25-2.32,1.76,0,3.51.52,5.09,1.5.05,0,.13,0,.17-.02.57-.88,1.55-1.42,2.6-1.42h113.93v-42.68h-112.57c-.74.62-1.64,1.05-2.63,1.27-.49.11-.99.16-1.48.16Z"/>
      </g>
    </g>
    <path class="cls-1" d="M114.35,248.12l1.03-39.47c.13-2.64,3.99-2.65,4.12,0,0,0,1.03,39.47,1.03,39.47-.03,4.18-6.14,4.2-6.18,0h0Z"/>
    <path class="cls-1" d="M120.53,97.82l-1.03,39.47c-.13,2.64-3.99,2.65-4.12,0,0,0-1.03-39.47-1.03-39.47.03-4.18,6.14-4.2,6.18,0h0Z"/>
    <path class="cls-1" d="M112.3,89.71c1.7,0,3.4.43,4.96,1.26.76-.76,1.81-1.2,2.91-1.2h117.02c2.28,0,4.12,1.84,4.12,4.12v153.17c0,2.28-1.84,4.12-4.12,4.12h-115.31c-.8.6-1.74,1.02-2.76,1.25-1.93.43-4.02.11-5.44-.83-.48-.32-.94-.48-1.39-.48-2.13,0-5.22,4.07-5.22,10.44,0,2.28-1.84,4.12-4.12,4.12s-4.12-1.84-4.12-4.12V108.39c0-10.47,5.91-18.68,13.46-18.68ZM117.41,99.44c-1.38,0-2.71-.36-3.72-1.02-.48-.32-.94-.48-1.39-.48-2.13,0-5.22,4.07-5.22,10.44v135.9c1.6-.91,3.36-1.41,5.22-1.41,1.7,0,3.4.43,4.96,1.26.76-.76,1.81-1.2,2.91-1.2h112.9V98.01h-111.19c-.8.6-1.74,1.02-2.76,1.25-.57.13-1.15.19-1.72.19Z"/>
  </g>
</svg>