<svg width="42" height="58" viewBox="0 0 42 58" fill="none" xmlns="http://www.w3.org/2000/svg">
<path d="M7.31445 50.3838C7.49349 50.6344 7.67578 50.9583 7.86133 51.3555C8.05013 51.7493 8.23242 52.1823 8.4082 52.6543C8.58398 53.1263 8.74186 53.6097 8.88184 54.1045C9.02507 54.596 9.14225 55.0697 9.2334 55.5254C9.32454 55.9811 9.37663 56.3864 9.38965 56.7412C9.3929 56.9137 9.31478 57 9.15527 57H7.97363C7.82064 57 7.74089 56.9235 7.73438 56.7705C7.72135 56.4059 7.66276 55.9632 7.55859 55.4424H4.89258C4.80143 55.9502 4.74935 56.3929 4.73633 56.7705C4.72982 56.9235 4.64681 57 4.4873 57H3.33008C3.27148 57 3.22266 56.9837 3.18359 56.9512C3.14453 56.9154 3.12663 56.8551 3.12988 56.7705C3.14616 56.4092 3.19824 55.999 3.28613 55.54C3.37728 55.0778 3.49447 54.5993 3.6377 54.1045C3.78092 53.6097 3.94043 53.1263 4.11621 52.6543C4.29199 52.179 4.47428 51.7445 4.66309 51.3506C4.85189 50.9567 5.03581 50.6344 5.21484 50.3838C5.30924 50.2503 5.40853 50.1527 5.5127 50.0908C5.62012 50.029 5.75195 49.998 5.9082 49.998H6.61133C6.77083 49.998 6.9043 50.029 7.01172 50.0908C7.11914 50.1527 7.22005 50.2503 7.31445 50.3838ZM6.21094 51.541C5.99609 51.8828 5.79915 52.2913 5.62012 52.7666C5.44108 53.2419 5.28646 53.7301 5.15625 54.2314H7.27539C7.13867 53.7301 6.98079 53.2419 6.80176 52.7666C6.62272 52.2913 6.43555 51.8828 6.24023 51.541H6.21094ZM11.8604 52.9277H11.8799C12.124 52.2507 12.5635 51.9121 13.1982 51.9121C13.2796 51.9121 13.3464 51.917 13.3984 51.9268C13.4505 51.9333 13.4863 51.9398 13.5059 51.9463C13.5547 51.9626 13.5791 52 13.5791 52.0586V53.2354C13.5791 53.3363 13.5205 53.3639 13.4033 53.3184C13.3643 53.3021 13.3073 53.2858 13.2324 53.2695C13.1608 53.25 13.0599 53.2402 12.9297 53.2402C12.5944 53.2402 12.3324 53.3639 12.1436 53.6113C11.9548 53.8555 11.8604 54.1891 11.8604 54.6123V56.7412C11.8604 56.8389 11.8392 56.9072 11.7969 56.9463C11.7578 56.9821 11.6895 57 11.5918 57H10.5859C10.4883 57 10.4183 56.9821 10.376 56.9463C10.3369 56.9072 10.3174 56.8389 10.3174 56.7412V52.6494C10.3174 52.5713 10.3337 52.5111 10.3662 52.4688C10.4346 52.3776 10.516 52.2848 10.6104 52.1904C10.708 52.096 10.8268 51.9951 10.9668 51.8877C10.9928 51.8682 11.0189 51.8551 11.0449 51.8486C11.071 51.8421 11.0938 51.8389 11.1133 51.8389C11.1589 51.8389 11.2044 51.8551 11.25 51.8877C11.5202 52.0993 11.709 52.2799 11.8164 52.4297C11.8457 52.4688 11.8604 52.5143 11.8604 52.5664V52.9277ZM16.8018 51.8779C17.1891 51.8779 17.4707 51.9105 17.6465 51.9756C17.8223 52.0374 17.9329 52.0863 17.9785 52.1221C18.0501 52.1676 18.1055 52.2262 18.1445 52.2979C18.1673 52.3337 18.1934 52.3955 18.2227 52.4834C18.252 52.5713 18.2731 52.6673 18.2861 52.7715C18.3024 52.8529 18.304 52.9115 18.291 52.9473C18.278 52.9798 18.2373 53.0205 18.1689 53.0693C18.0908 53.1214 18.0046 53.1686 17.9102 53.2109C17.819 53.25 17.7441 53.2777 17.6855 53.2939C17.6367 53.307 17.5993 53.3102 17.5732 53.3037C17.5472 53.2972 17.5114 53.2777 17.4658 53.2451C17.4137 53.2093 17.3405 53.1702 17.2461 53.1279C17.1517 53.0824 17.0215 53.0596 16.8555 53.0596C16.6439 53.0596 16.4421 53.1117 16.25 53.2158C16.0612 53.32 15.9066 53.4762 15.7861 53.6846C15.6689 53.8929 15.6104 54.1533 15.6104 54.4658C15.6104 54.9346 15.7324 55.2975 15.9766 55.5547C16.224 55.8118 16.5544 55.9404 16.9678 55.9404C17.1794 55.9404 17.3551 55.9193 17.4951 55.877C17.6351 55.8314 17.7458 55.7858 17.8271 55.7402C17.8923 55.7044 17.9411 55.6963 17.9736 55.7158C18.0094 55.7321 18.0371 55.763 18.0566 55.8086L18.4131 56.6143C18.4489 56.6989 18.4294 56.7591 18.3545 56.7949C18.234 56.8568 18.0355 56.9268 17.7588 57.0049C17.4821 57.083 17.1403 57.1221 16.7334 57.1221C15.9163 57.1221 15.2637 56.9056 14.7754 56.4727C14.2871 56.0365 14.043 55.3854 14.043 54.5195C14.043 53.9661 14.1553 53.4925 14.3799 53.0986C14.6045 52.7048 14.9235 52.4036 15.3369 52.1953C15.7503 51.9837 16.2386 51.8779 16.8018 51.8779ZM20.7568 56.7412C20.7568 56.8389 20.7357 56.9072 20.6934 56.9463C20.6543 56.9821 20.5859 57 20.4883 57H19.4824C19.3848 57 19.3148 56.9821 19.2725 56.9463C19.2334 56.9072 19.2139 56.8389 19.2139 56.7412V50.1348C19.2139 50.0566 19.2301 49.9964 19.2627 49.9541C19.3994 49.7751 19.5996 49.5814 19.8633 49.373C19.9089 49.3405 19.9495 49.3242 19.9854 49.3242C20.0277 49.3242 20.0684 49.3405 20.1074 49.373C20.2474 49.4805 20.3646 49.5814 20.459 49.6758C20.5566 49.7702 20.6396 49.863 20.708 49.9541C20.7406 49.9964 20.7568 50.0566 20.7568 50.1348V52.5029H20.7764C20.848 52.4085 20.9408 52.3141 21.0547 52.2197C21.1686 52.1221 21.32 52.0407 21.5088 51.9756C21.7008 51.9105 21.945 51.8779 22.2412 51.8779C22.5407 51.8779 22.8288 51.9398 23.1055 52.0635C23.3822 52.1872 23.6084 52.3955 23.7842 52.6885C23.96 52.9814 24.0479 53.3818 24.0479 53.8896V56.7412C24.0479 56.8389 24.0267 56.9072 23.9844 56.9463C23.9453 56.9821 23.877 57 23.7793 57H22.7734C22.6758 57 22.6058 56.9821 22.5635 56.9463C22.5244 56.9072 22.5049 56.8389 22.5049 56.7412V54.1582C22.5049 53.7969 22.43 53.5348 22.2803 53.3721C22.1305 53.2061 21.9271 53.123 21.6699 53.123C21.416 53.123 21.2191 53.1784 21.0791 53.2891C20.9391 53.3997 20.8317 53.5397 20.7568 53.709V56.7412ZM25.1416 50.3594C25.1416 50.3171 25.1546 50.2796 25.1807 50.2471C25.2067 50.2145 25.2409 50.1722 25.2832 50.1201C25.3743 50.016 25.4801 49.9069 25.6006 49.793C25.721 49.6758 25.8431 49.5635 25.9668 49.4561C26.0449 49.3942 26.1035 49.3633 26.1426 49.3633C26.1816 49.3633 26.2419 49.3942 26.3232 49.4561C26.5869 49.6839 26.8115 49.9053 26.9971 50.1201C27.0394 50.1689 27.0736 50.2113 27.0996 50.2471C27.1289 50.2796 27.1436 50.3171 27.1436 50.3594C27.1436 50.4017 27.1289 50.4391 27.0996 50.4717C27.0736 50.5042 27.0378 50.5482 26.9922 50.6035C26.9043 50.7044 26.8018 50.8135 26.6846 50.9307C26.5674 51.0446 26.4469 51.1536 26.3232 51.2578C26.2777 51.2969 26.2419 51.3229 26.2158 51.3359C26.1898 51.3457 26.1654 51.3506 26.1426 51.3506C26.1198 51.3506 26.0954 51.3457 26.0693 51.3359C26.0465 51.3229 26.0091 51.2969 25.957 51.2578C25.8268 51.1536 25.7048 51.0446 25.5908 50.9307C25.4769 50.8135 25.3743 50.7012 25.2832 50.5938C25.2409 50.5417 25.2067 50.501 25.1807 50.4717C25.1546 50.4391 25.1416 50.4017 25.1416 50.3594ZM26.9092 56.7412C26.9092 56.8389 26.888 56.9072 26.8457 56.9463C26.8066 56.9821 26.7383 57 26.6406 57H25.6348C25.5371 57 25.4671 56.9821 25.4248 56.9463C25.3857 56.9072 25.3662 56.8389 25.3662 56.7412V52.2588C25.3662 52.1611 25.3857 52.0944 25.4248 52.0586C25.4671 52.0195 25.5371 52 25.6348 52H26.6406C26.7383 52 26.8066 52.0195 26.8457 52.0586C26.888 52.0944 26.9092 52.1611 26.9092 52.2588V56.7412ZM29.292 56.5459C29.113 56.2627 28.9355 55.9372 28.7598 55.5693C28.5872 55.1982 28.4294 54.8239 28.2861 54.4463C28.1462 54.0654 28.0339 53.7188 27.9492 53.4062C27.8646 53.0905 27.8223 52.848 27.8223 52.6787C27.8223 52.6136 27.8402 52.5599 27.876 52.5176C28.0257 52.332 28.2389 52.1383 28.5156 51.9365C28.5645 51.904 28.6084 51.8877 28.6475 51.8877C28.6898 51.8877 28.7337 51.904 28.7793 51.9365C28.929 52.0439 29.0544 52.1449 29.1553 52.2393C29.2594 52.3337 29.3473 52.4264 29.4189 52.5176C29.4548 52.5599 29.4727 52.6201 29.4727 52.6982V52.6738C29.4727 52.8854 29.5101 53.1637 29.585 53.5088C29.6631 53.8506 29.7689 54.2119 29.9023 54.5928C30.0358 54.9736 30.1904 55.3236 30.3662 55.6426H30.3906C30.5371 55.4017 30.6673 55.1413 30.7812 54.8613C30.8952 54.5814 30.9912 54.3014 31.0693 54.0215C31.1475 53.7415 31.2061 53.4844 31.2451 53.25C31.2874 53.0156 31.3086 52.8252 31.3086 52.6787V52.6982C31.3086 52.6201 31.3249 52.5599 31.3574 52.5176C31.4323 52.4264 31.5202 52.3337 31.6211 52.2393C31.722 52.1449 31.8441 52.0439 31.9873 51.9365C32.0329 51.904 32.0752 51.8877 32.1143 51.8877C32.1598 51.8877 32.2021 51.904 32.2412 51.9365C32.3877 52.0439 32.5114 52.1449 32.6123 52.2393C32.7132 52.3337 32.7995 52.4264 32.8711 52.5176C32.9036 52.5599 32.9199 52.6169 32.9199 52.6885C32.9167 52.8643 32.8711 53.1117 32.7832 53.4307C32.6953 53.7464 32.5765 54.0947 32.4268 54.4756C32.2803 54.8532 32.1159 55.2259 31.9336 55.5938C31.7513 55.9583 31.5658 56.2757 31.377 56.5459C31.263 56.7119 31.1605 56.8291 31.0693 56.8975C30.9782 56.9658 30.8203 57 30.5957 57H30.0781C29.8438 57 29.681 56.9674 29.5898 56.9023C29.502 56.8372 29.4027 56.7184 29.292 56.5459ZM27.8223 52.6738V52.6787C27.8223 52.6852 27.8223 52.6917 27.8223 52.6982V52.6738ZM32.9199 52.6787V52.6982V52.6885C32.9199 52.6852 32.9199 52.682 32.9199 52.6787ZM36.2744 57.1221C35.7243 57.1221 35.2458 57.0342 34.8389 56.8584C34.432 56.6794 34.1162 56.4027 33.8916 56.0283C33.667 55.654 33.5547 55.1706 33.5547 54.5781C33.5547 53.6895 33.7826 53.0173 34.2383 52.5615C34.694 52.1058 35.2995 51.8779 36.0547 51.8779C36.5462 51.8779 36.9613 51.9658 37.2998 52.1416C37.6416 52.3174 37.9004 52.5599 38.0762 52.8691C38.2552 53.1784 38.3447 53.5316 38.3447 53.9287C38.3447 54.3161 38.2454 54.5863 38.0469 54.7393C37.8483 54.8923 37.5586 54.9688 37.1777 54.9688H35.083C35.109 55.304 35.2311 55.5596 35.4492 55.7354C35.6706 55.9111 35.9701 55.999 36.3477 55.999C36.6471 55.999 36.8864 55.9551 37.0654 55.8672C37.2477 55.776 37.3747 55.7044 37.4463 55.6523C37.5081 55.6068 37.5781 55.5856 37.6562 55.5889C37.7181 55.5889 37.806 55.6019 37.9199 55.6279C38.0371 55.6507 38.1527 55.6947 38.2666 55.7598C38.348 55.8021 38.3887 55.8607 38.3887 55.9355C38.3887 55.9779 38.3805 56.0381 38.3643 56.1162C38.3545 56.1618 38.3382 56.2285 38.3154 56.3164C38.2926 56.401 38.2633 56.4808 38.2275 56.5557C38.208 56.5915 38.1771 56.6257 38.1348 56.6582C38.0697 56.7038 37.9639 56.764 37.8174 56.8389C37.6742 56.9137 37.4772 56.9788 37.2266 57.0342C36.9759 57.0928 36.6585 57.1221 36.2744 57.1221ZM35.0732 53.9678H36.665C36.8311 53.9678 36.9141 53.8913 36.9141 53.7383C36.9141 53.5072 36.8408 53.3135 36.6943 53.1572C36.5511 52.9977 36.3346 52.918 36.0449 52.918C35.7292 52.918 35.4964 53.0189 35.3467 53.2207C35.2002 53.4225 35.109 53.6715 35.0732 53.9678Z" fill="black"/>
<path d="M31.5682 33.3536L22.2383 6.70616C23.0759 9.09588 26.8311 7.87664 27.2934 7.71336C27.7578 7.55009 31.4537 6.16121 30.6161 3.77148L39.946 30.4189C40.0244 30.6437 40.0626 30.8579 40.069 31.0657V43.0376L31.5682 33.3536Z" fill="#FCDF80"/>
<path d="M40.0682 44.0459C39.784 44.0459 39.5062 43.9251 39.309 43.7024L30.8082 34.0184C30.7234 33.9209 30.6577 33.8085 30.6153 33.6855L21.2875 7.04445V7.04021C21.103 6.51434 21.3808 5.9397 21.9067 5.75523C22.4325 5.57075 23.0072 5.84853 23.1917 6.37439L23.1959 6.385C23.2765 6.61612 23.5012 7.19712 24.8838 7.16107C25.8719 7.13775 26.8536 6.80272 26.9618 6.76455C27.072 6.72638 28.0496 6.37439 28.8341 5.77855C29.9537 4.92826 29.7438 4.33242 29.6653 4.10765C29.4809 3.58179 29.7586 3.00715 30.2845 2.82267C30.8104 2.6382 31.385 2.91597 31.5695 3.44184L40.8994 30.0893C41.0096 30.4052 41.0711 30.7254 41.0775 31.0435C41.0775 31.0519 41.0775 31.0604 41.0775 31.0689V43.0409C41.0775 43.4607 40.8167 43.836 40.4244 43.9844C40.3078 44.029 40.189 44.0502 40.0682 44.0502V44.0459ZM32.4537 32.8352L39.0588 40.3585V31.0795C39.0546 30.9756 39.0334 30.8675 38.9931 30.753L30.6344 6.87905C30.4647 7.04657 30.2718 7.2162 30.0513 7.3816C29.0653 8.13011 27.9457 8.55419 27.6255 8.66658C27.3053 8.77896 26.1666 9.14579 24.9283 9.17548C24.6526 9.18184 24.3961 9.17124 24.1586 9.14579L32.4537 32.8352Z" fill="#231815"/>
<path d="M2.00781 4.85547C2.00781 7.38938 5.95393 7.47844 6.44587 7.47844C6.93781 7.47844 10.8839 7.38938 10.8839 4.85547V16.0365C10.8839 18.5704 6.93781 18.6595 6.44587 18.6595C5.95393 18.6595 2.00781 18.5704 2.00781 16.0365V4.85547Z" fill="white"/>
<path d="M6.44738 19.6662C6.10812 19.6662 4.91007 19.6365 3.73323 19.257C1.35411 18.4873 1 16.9097 1 16.0361V4.85503C1 4.29735 1.45165 3.8457 2.00932 3.8457C2.567 3.8457 3.01865 4.29735 3.01865 4.85503C3.01865 6.44959 6.41346 6.46867 6.4495 6.46867C6.48555 6.46867 9.88036 6.44959 9.88036 4.85503C9.88036 4.29735 10.332 3.8457 10.8897 3.8457C11.4474 3.8457 11.899 4.29735 11.899 4.85503V16.0361C11.899 16.9097 11.5449 18.4873 9.16577 19.257C7.98894 19.6387 6.79089 19.6662 6.45162 19.6662H6.44738ZM3.01865 7.79182V16.0361C3.01865 17.6306 6.41346 17.6497 6.4495 17.6497C6.48555 17.6497 9.88036 17.6306 9.88036 16.0361V7.79182C9.66407 7.8936 9.42659 7.98902 9.16365 8.07384C7.98681 8.45552 6.78877 8.48308 6.4495 8.48308C6.11023 8.48308 4.91219 8.4534 3.73535 8.07384C3.47242 7.98902 3.23493 7.8936 3.01865 7.79182Z" fill="#231815"/>
<path d="M2.00781 16.0352C2.00781 18.5691 5.95393 18.6581 6.44587 18.6581C6.93781 18.6581 10.8839 18.5691 10.8839 16.0352V44.2687C10.8839 46.8026 6.93781 46.8916 6.44587 46.8916C5.95393 46.8916 2.00781 46.8026 2.00781 44.2687V16.0352Z" fill="#FABE00"/>
<path d="M6.44738 47.9004C6.10812 47.9004 4.91007 47.8707 3.73323 47.4911C1.35411 46.7214 1 45.1438 1 44.2702V16.0367C1 15.479 1.45165 15.0273 2.00932 15.0273C2.567 15.0273 3.01865 15.479 3.01865 16.0367C3.01865 16.2742 3.01865 16.906 4.35452 17.3386C5.29387 17.6418 6.33288 17.6503 6.44738 17.6503C6.56189 17.6503 7.60302 17.6418 8.54025 17.3386C9.87612 16.906 9.87612 16.2742 9.87612 16.0367C9.87612 15.479 10.3278 15.0273 10.8854 15.0273C11.4431 15.0273 11.8948 15.479 11.8948 16.0367V44.2702C11.8948 45.1438 11.5407 46.7214 9.16153 47.4911C7.98469 47.8728 6.78665 47.9004 6.44738 47.9004ZM3.01865 18.9756V44.2702C3.01865 44.5077 3.01865 45.1396 4.35452 45.5721C5.29387 45.8753 6.33288 45.8838 6.44738 45.8838C6.56189 45.8838 7.60302 45.8753 8.54025 45.5721C9.87612 45.1396 9.87612 44.5077 9.87612 44.2702V18.9756C9.65983 19.0774 9.42235 19.1728 9.15941 19.2576C7.98257 19.6393 6.78453 19.6668 6.44526 19.6668C6.10599 19.6668 4.90795 19.6372 3.73111 19.2576C3.46818 19.1728 3.23069 19.0774 3.01441 18.9756H3.01865Z" fill="#231815"/>
<path d="M2.00781 20.6758C2.00781 23.2097 5.95393 23.2988 6.44587 23.2988C6.93781 23.2988 10.8839 23.2097 10.8839 20.6758V33.8415C10.8839 36.3754 6.93781 36.4645 6.44587 36.4645C5.95393 36.4645 2.00781 36.3754 2.00781 33.8415V20.6758Z" fill="#B08600"/>
<path d="M6.44896 37.2225C4.05287 37.2225 1.25391 36.3382 1.25391 33.8446V20.6789C1.25391 20.2611 1.59317 19.9219 2.0109 19.9219C2.42862 19.9219 2.76789 20.2611 2.76789 20.6789C2.76789 20.9397 2.76789 21.7306 4.27976 22.2204C5.25516 22.5364 6.33233 22.5448 6.45108 22.5448C6.56982 22.5448 7.647 22.5364 8.6224 22.2204C10.1343 21.7327 10.1343 20.9397 10.1343 20.6789C10.1343 20.2611 10.4735 19.9219 10.8913 19.9219C11.309 19.9219 11.6483 20.2611 11.6483 20.6789V33.8446C11.6483 36.3382 8.84928 37.2225 6.4532 37.2225H6.44896ZM2.76789 23.1958V33.8425C2.76789 34.1033 2.76789 34.8942 4.27976 35.384C5.25516 35.7 6.33233 35.7085 6.45108 35.7085C6.56982 35.7085 7.647 35.7 8.6224 35.384C10.1343 34.8963 10.1343 34.1033 10.1343 33.8425V23.1958C9.11434 23.8044 7.72546 24.0546 6.45108 24.0546C5.1767 24.0546 3.78994 23.8044 2.76789 23.1958Z" fill="#231815"/>
<path d="M10.8867 1.00977C10.8867 3.77481 15.8803 3.87234 16.5016 3.87234C17.1229 3.87234 22.1165 3.77481 22.1165 1.00977V13.215C22.1165 15.98 17.1229 16.0775 16.5016 16.0775C15.8803 16.0775 10.8867 15.98 10.8867 13.215V1.00977Z" fill="white"/>
<path d="M16.5031 17.0843C16.2084 17.0843 14.6626 17.0631 13.191 16.6539C11.9548 16.3082 9.87891 15.4028 9.87891 13.2145V1.00932C9.87891 0.451652 10.3306 0 10.8882 0C11.4459 0 11.8976 0.451652 11.8976 1.00932C11.8976 2.52331 15.3093 2.86258 16.5052 2.86258C17.7012 2.86258 21.1129 2.52119 21.1129 1.00932C21.1129 0.451652 21.5646 0 22.1223 0C22.6799 0 23.1316 0.451652 23.1316 1.00932V13.2145C23.1316 15.4028 21.0557 16.3082 19.8195 16.6539C18.3479 17.0652 16.8021 17.0843 16.5074 17.0843H16.5031ZM11.8954 3.94824V13.2124C11.8954 14.7264 15.3072 15.0657 16.5031 15.0657C17.699 15.0657 21.1108 14.7243 21.1108 13.2124V3.94824C20.657 4.18149 20.1969 4.34052 19.8152 4.44654C18.3437 4.8579 16.7979 4.87699 16.5031 4.87699C16.2084 4.87699 14.6626 4.85578 13.191 4.44654C12.8093 4.34052 12.3513 4.18149 11.8954 3.94824Z" fill="#231815"/>
<path d="M10.8867 13.2148C10.8867 15.9799 15.8803 16.0774 16.5016 16.0774C17.1229 16.0774 22.1165 15.9799 22.1165 13.2148V44.031C22.1165 46.7961 17.1229 46.8936 16.5016 46.8936C15.8803 46.8936 10.8867 46.7961 10.8867 44.031V13.2148Z" fill="#FABE00"/>
<path d="M16.5031 47.9004C16.2084 47.9004 14.6626 47.8792 13.191 47.4699C10.3094 46.6663 9.87891 44.97 9.87891 44.0306V13.2144C9.87891 12.6567 10.3306 12.2051 10.8882 12.2051C11.4459 12.2051 11.8976 12.6567 11.8976 13.2144C11.8976 13.8675 12.5146 14.37 13.7338 14.7114C14.9785 15.0592 16.3505 15.0698 16.5031 15.0698C16.6558 15.0698 18.0277 15.0592 19.2724 14.7114C20.4917 14.3722 21.1087 13.8675 21.1087 13.2144C21.1087 12.6567 21.5604 12.2051 22.118 12.2051C22.6757 12.2051 23.1274 12.6567 23.1274 13.2144V44.0306C23.1274 44.97 22.6969 46.6663 19.8152 47.4699C18.3437 47.8813 16.7979 47.9004 16.5031 47.9004ZM11.8954 16.1597V44.0306C11.8954 44.6837 12.5125 45.1862 13.7317 45.5276C14.9764 45.8754 16.3483 45.886 16.501 45.886C16.6537 45.886 18.0256 45.8754 19.2703 45.5276C20.4895 45.1884 21.1066 44.6837 21.1066 44.0306V16.1597C20.7419 16.3463 20.3135 16.5138 19.811 16.6537C18.3394 17.0651 16.7936 17.0842 16.4989 17.0842C16.2041 17.0842 14.6584 17.063 13.1868 16.6537C12.6842 16.5138 12.2559 16.3463 11.8912 16.1597H11.8954Z" fill="#231815"/>
<path d="M22.2383 18.4601C23.0759 20.8498 26.8311 19.6305 27.2934 19.4673C27.7578 19.304 31.4537 17.9151 30.6161 15.5254L39.946 42.1728C40.7836 44.5626 37.0877 45.9514 36.6233 46.1147C36.1589 46.278 32.4036 47.4972 31.5682 45.1075L22.2383 18.4601Z" fill="#B08600"/>
<path d="M34.1013 47.577C31.7243 47.577 30.8973 46.2454 30.6153 45.4375L21.2875 18.7964V18.7922C21.103 18.2663 21.3808 17.6917 21.9067 17.5072C22.4326 17.3227 23.0072 17.6005 23.1917 18.1263L23.1959 18.1369C23.2765 18.3681 23.497 18.9512 24.8838 18.913C25.8698 18.8897 26.8536 18.5547 26.9618 18.5165C27.0699 18.4783 28.0496 18.1263 28.8341 17.5305C29.9368 16.6929 29.7502 16.1013 29.6696 15.8702L29.6653 15.8596C29.4809 15.3337 29.7586 14.7591 30.2845 14.5746C30.8104 14.3901 31.385 14.6679 31.5695 15.1938C31.5695 15.1938 31.5695 15.1959 31.5695 15.198L40.8972 41.8391C41.1856 42.6618 41.3722 44.2712 39.3811 45.781C38.3973 46.5295 37.2756 46.9536 36.9554 47.066C36.6352 47.1784 35.4944 47.5452 34.2582 47.5749C34.2052 47.5749 34.1522 47.5749 34.1013 47.5749V47.577ZM24.1586 20.8977L32.5173 44.7717C32.5958 44.9964 32.8057 45.5986 34.2094 45.5583C35.1954 45.535 36.1793 45.2 36.2896 45.1618C36.3977 45.1237 37.3773 44.7717 38.1619 44.1758C39.2815 43.3255 39.0716 42.7297 38.9931 42.5049L30.6344 18.631C30.4647 18.7985 30.2718 18.9682 30.0513 19.1335C29.0674 19.8821 27.9457 20.3061 27.6255 20.4185C27.3053 20.5309 26.1645 20.8977 24.9283 20.9274C24.6526 20.9338 24.3961 20.9232 24.1586 20.8977Z" fill="#231815"/>
<path d="M30.6161 3.77148C31.4537 6.16121 27.7578 7.55009 27.2934 7.71336C26.829 7.87664 23.0737 9.09588 22.2383 6.70616V18.4597C23.0759 20.8494 26.8311 19.6302 27.2934 19.4669C27.7578 19.3036 31.4537 17.9147 30.6161 15.525V3.77148Z" fill="white"/>
<path d="M24.7698 20.9311C22.3928 20.9311 21.5658 19.5995 21.2838 18.7916C21.2456 18.6856 21.2266 18.5711 21.2266 18.4587V6.70513C21.2266 6.21319 21.5807 5.79334 22.0663 5.71065C22.5518 5.62795 23.0247 5.90785 23.188 6.37222C23.2664 6.59699 23.4763 7.19495 24.8801 7.1589C25.8682 7.13558 26.8499 6.80055 26.9581 6.76238C27.0683 6.72421 28.0459 6.37222 28.8304 5.77638C29.2503 5.45832 29.4814 5.1763 29.6044 4.93457V3.77258C29.6044 3.28064 29.9585 2.86079 30.4441 2.77809C30.9296 2.6954 31.4025 2.97529 31.5658 3.43967C31.7206 3.88072 31.8457 4.54653 31.623 5.30352V15.3713C31.8711 16.2343 31.9072 17.7271 30.0518 19.1351C29.0679 19.8836 27.9462 20.3077 27.626 20.4201C27.3058 20.5325 26.165 20.8993 24.9288 20.929C24.8758 20.929 24.8228 20.929 24.7719 20.929L24.7698 20.9311ZM23.2431 18.2594C23.9089 19.5655 26.9263 18.5265 26.9581 18.5159C26.9899 18.5053 30.1896 17.3645 29.6616 15.859C29.6235 15.753 29.6044 15.6385 29.6044 15.5261V7.69537C28.7477 8.25092 27.8953 8.57111 27.6239 8.66653C27.3037 8.77891 26.165 9.14574 24.9267 9.17543C24.2524 9.19027 23.699 9.10334 23.2431 8.95066V18.2572V18.2594Z" fill="#231815"/>
<path d="M10.8867 27.3145C10.8867 30.0796 15.8803 30.1771 16.5016 30.1771C17.1229 30.1771 22.1165 30.0796 22.1165 27.3145V19.0703C22.1165 21.8354 17.1229 21.9329 16.5016 21.9329C15.8803 21.9329 10.8867 21.8354 10.8867 19.0703V27.3145Z" fill="white"/>
<path d="M16.5047 30.9313C16.2163 30.9313 14.7002 30.9101 13.2604 30.5094C10.6756 29.7884 10.1328 28.372 10.1328 27.3118V19.0675C10.1328 18.6498 10.4721 18.3105 10.8898 18.3105C11.3075 18.3105 11.6468 18.6498 11.6468 19.0675C11.6468 21.1498 16.4581 21.1731 16.5068 21.1731C16.5556 21.1731 21.3668 21.1498 21.3668 19.0675C21.3668 18.6498 21.7061 18.3105 22.1238 18.3105C22.5416 18.3105 22.8808 18.6498 22.8808 19.0675V27.3118C22.8808 28.372 22.338 29.7863 19.7532 30.5094C18.3134 30.9101 16.7973 30.9313 16.5089 30.9313H16.5047ZM11.6468 21.5909V27.3139C11.6468 29.3962 16.4581 29.4195 16.5068 29.4195C16.5556 29.4195 21.3668 29.3962 21.3668 27.3139V21.5909C20.947 21.8495 20.4169 22.0807 19.7511 22.2673C18.3113 22.6702 16.7952 22.6892 16.5068 22.6892C16.2184 22.6892 14.7023 22.668 13.2626 22.2673C12.5968 22.0807 12.0688 21.8495 11.6468 21.5909Z" fill="#231815"/>
<path d="M22.2383 18.4601C23.0759 20.8498 26.8311 19.6305 27.2934 19.4673C27.7578 19.304 31.4537 17.9151 30.6161 15.5254L39.946 42.1728C40.7836 44.5626 37.0877 45.9514 36.6233 46.1147C36.1589 46.278 32.4036 47.4972 31.5682 45.1075L22.2383 18.4601Z" fill="#FCDF80"/>
<path d="M34.1013 47.577C31.7243 47.577 30.8973 46.2454 30.6153 45.4375L21.2875 18.7964V18.7922C21.103 18.2663 21.3808 17.6917 21.9067 17.5072C22.4326 17.3227 23.0072 17.6005 23.1917 18.1263L23.1959 18.1369C23.2765 18.3681 23.497 18.9512 24.8838 18.913C25.8698 18.8897 26.8536 18.5547 26.9618 18.5165C27.0699 18.4783 28.0496 18.1263 28.8341 17.5305C29.9368 16.6929 29.7502 16.1013 29.6696 15.8702L29.6653 15.8596C29.4809 15.3337 29.7586 14.7591 30.2845 14.5746C30.8104 14.3901 31.385 14.6679 31.5695 15.1938C31.5695 15.1938 31.5695 15.1959 31.5695 15.198L40.8972 41.8391C41.1856 42.6618 41.3722 44.2712 39.3811 45.781C38.3973 46.5295 37.2756 46.9536 36.9554 47.066C36.6352 47.1784 35.4944 47.5452 34.2582 47.5749C34.2052 47.5749 34.1522 47.5749 34.1013 47.5749V47.577ZM24.1586 20.8977L32.5173 44.7717C32.5958 44.9964 32.8057 45.5986 34.2094 45.5583C35.1954 45.535 36.1793 45.2 36.2896 45.1618C36.3977 45.1237 37.3773 44.7717 38.1619 44.1758C39.2815 43.3255 39.0716 42.7297 38.9931 42.5049L30.6344 18.631C30.4647 18.7985 30.2718 18.9682 30.0513 19.1335C29.0674 19.8821 27.9457 20.3061 27.6255 20.4185C27.3053 20.5309 26.1645 20.8977 24.9283 20.9274C24.6526 20.9338 24.3961 20.9232 24.1586 20.8977Z" fill="#231815"/>
<path d="M28.199 22.0259C27.9721 22.1065 26.9522 22.4394 25.875 22.4776L30.7011 36.2943L31.668 39.0593C32.7452 39.0212 33.7651 38.6883 33.992 38.6077C34.132 38.5589 34.5688 38.3978 35.084 38.1306L29.291 21.5488C28.7757 21.816 28.3389 21.9772 28.199 22.0259Z" fill="#FABE00"/>
<path d="M31.6709 39.815C31.3507 39.815 31.0644 39.6136 30.9563 39.3083L29.9894 36.5432L25.1633 22.7265C25.0848 22.4996 25.1166 22.2494 25.2523 22.0501C25.388 21.8508 25.6107 21.7299 25.8503 21.7214C26.8554 21.6854 27.8392 21.3525 27.9495 21.3122C28.028 21.2846 28.4457 21.1341 28.944 20.8775C29.1391 20.7778 29.3681 20.7651 29.5716 20.8457C29.7752 20.9263 29.9342 21.0917 30.0063 21.2995L35.7993 37.8791C35.9244 38.2353 35.7675 38.6276 35.4325 38.8015C34.8579 39.0983 34.3765 39.2743 34.2429 39.321C34.0309 39.3952 32.9049 39.7705 31.6963 39.8129C31.6878 39.8129 31.6793 39.8129 31.6687 39.8129L31.6709 39.815ZM26.9062 23.1294L32.1925 38.2565C32.9855 38.1548 33.6556 37.9257 33.7446 37.8939C33.7892 37.8791 33.9376 37.8261 34.1475 37.737L28.8528 22.5866C28.6577 22.6671 28.5157 22.718 28.4499 22.7413C28.2972 22.7944 27.6823 23 26.9062 23.1294Z" fill="#FABE00"/>
<path d="M4.26953 7.81326L4.52186 14.1173C4.56215 14.7555 5.4909 14.7555 5.53119 14.1173L5.78352 7.81326C5.78776 6.77213 4.26529 6.77425 4.27165 7.81326H4.26953Z" fill="#231815"/>
<path d="M7.40149 6.65943C6.98377 6.68063 6.66146 7.03686 6.68478 7.45459L6.93712 12.3825C6.98377 13.0144 7.89979 13.0144 7.94644 12.3825L8.19877 7.45459C8.22422 7.0093 7.8489 6.63398 7.40361 6.65943H7.40149Z" fill="#231815"/>
<path d="M27.9562 7.22974C27.5385 7.25094 27.2161 7.60717 27.2395 8.0249L27.4918 12.9528C27.5385 13.5847 28.4545 13.5847 28.5011 12.9528L28.7535 8.0249C28.7789 7.57961 28.4036 7.20429 27.9583 7.22974H27.9562Z" fill="#231815"/>
<path d="M24.6562 8.31753L24.9086 14.84C24.9192 15.1008 25.1291 15.3149 25.3942 15.3255C25.6719 15.3361 25.9073 15.1199 25.9179 14.84C25.9179 14.84 25.9836 13.1436 26.0473 11.4812C26.1087 9.88452 26.1702 8.31753 26.1702 8.31753C26.1724 7.27851 24.6541 7.28064 24.6584 8.31753H24.6562Z" fill="#231815"/>
<path d="M17.6836 4.11794L17.9359 10.422C17.9762 11.0602 18.905 11.0602 18.9452 10.422L19.1976 4.11794C19.2018 3.07681 17.6794 3.07893 17.6857 4.11794H17.6836Z" fill="#231815"/>
<path d="M15.1484 4.11628L15.4008 11.8792C15.4368 12.5238 16.374 12.5217 16.4101 11.8792L16.6624 4.11628C16.6582 3.08151 15.1527 3.08576 15.1506 4.11628H15.1484Z" fill="#231815"/>
</svg>
