<?xml version="1.0" encoding="UTF-8"?>
<svg id="_レイヤー_2" data-name="レイヤー 2" xmlns="http://www.w3.org/2000/svg" viewBox="0 0 101.7 218.61">
  <defs>
    <style>
      .cls-1 {
        fill: #231815;
      }

      .cls-2 {
        fill: #fabe00;
      }
    </style>
  </defs>
  <g id="_レイヤー_1-2" data-name="レイヤー 1">
    <g>
      <g>
        <rect class="cls-2" x="61.4" y="190.78" width="13.97" height="14.9"/>
        <path class="cls-1" d="M75.37,209.59h-13.97c-2.16,0-3.92-1.75-3.92-3.92v-14.9c0-2.16,1.75-3.92,3.92-3.92h13.97c2.16,0,3.92,1.75,3.92,3.92v14.9c0,2.16-1.75,3.92-3.92,3.92ZM65.32,201.76h6.14v-7.07h-6.14v7.07Z"/>
      </g>
      <g>
        <path class="cls-2" d="M61.6,178.97h13.97v-14.9c-6.86-1.33-10.34-4.3-13.19-8.31l-.78,23.21Z"/>
        <path class="cls-1" d="M75.56,182.89h-13.97c-1.06,0-2.08-.43-2.82-1.19-.74-.76-1.13-1.79-1.1-2.85l.78-23.21c.06-1.68,1.18-3.14,2.79-3.62,1.61-.49,3.35.11,4.32,1.48,2.36,3.33,4.98,5.61,10.74,6.73,1.84.36,3.17,1.97,3.17,3.84v14.9c0,2.16-1.75,3.92-3.92,3.92ZM65.65,175.06h6v-7.91c-2.09-.63-3.96-1.45-5.65-2.5l-.35,10.41Z"/>
      </g>
      <g>
        <path class="cls-2" d="M62.34,214.7v-59.12c-4.55-9.6-5.56-23.75-5.56-23.75h-11.87s-1.01,14.15-5.56,23.75v59.12h22.99Z"/>
        <path class="cls-1" d="M62.34,218.61h-22.99c-2.16,0-3.92-1.75-3.92-3.92v-59.12c0-.58.13-1.15.38-1.68,4.17-8.81,5.18-22.22,5.19-22.35.15-2.05,1.85-3.64,3.91-3.64h11.87c2.05,0,3.76,1.59,3.91,3.64,0,.13,1.02,13.55,5.19,22.35.25.52.38,1.1.38,1.68v59.12c0,2.16-1.75,3.92-3.92,3.92ZM43.27,210.78h15.16v-54.35c-3.13-7.05-4.58-15.83-5.18-20.69h-4.81c-.6,4.86-2.04,13.64-5.18,20.69v54.35Z"/>
      </g>
      <g>
        <rect class="cls-2" x="42.31" y="97.36" width="17.08" height="22.56"/>
        <path class="cls-1" d="M59.39,123.83h-17.08c-2.16,0-3.92-1.75-3.92-3.92v-22.56c0-2.16,1.75-3.92,3.92-3.92h17.08c2.16,0,3.92,1.75,3.92,3.92v22.56c0,2.16-1.75,3.92-3.92,3.92ZM46.22,116h9.25v-14.72h-9.25v14.72Z"/>
      </g>
      <g>
        <circle class="cls-2" cx="50.85" cy="123.74" r="12.98"/>
        <path class="cls-1" d="M50.85,140.64c-9.32,0-16.9-7.58-16.9-16.9s7.58-16.9,16.9-16.9,16.9,7.58,16.9,16.9-7.58,16.9-16.9,16.9ZM50.85,114.68c-5,0-9.06,4.07-9.06,9.06s4.07,9.06,9.06,9.06,9.06-4.07,9.06-9.06-4.07-9.06-9.06-9.06Z"/>
      </g>
      <g>
        <path class="cls-2" d="M63.99,55.92c7.9-11.9,10.73-24.22,10.27-30.29-1.79-14.35-11.26-21.71-23.41-21.71s-22.36,6.13-23.41,21.71c-.46,6.07,2.38,18.39,10.27,30.29,4.26,1.78,8.85,3.88,13.14,6.52,4.29-2.64,8.88-4.74,13.14-6.52ZM42.03,30.18c0-7.8,5.58-9.9,9.02-9.9s9.02,2.1,9.02,9.9c0,9.91-5.01,18.57-8.84,23.59h-.37c-3.83-5.02-8.84-13.68-8.84-23.59Z"/>
        <path class="cls-1" d="M50.85,66.36c-.71,0-1.42-.19-2.05-.58-4.4-2.71-9.04-4.76-12.6-6.24-.71-.3-1.32-.8-1.75-1.45-8.26-12.44-11.45-25.7-10.92-32.75C24.6,9.48,34.81,0,50.85,0c14.91,0,25.37,9.64,27.3,25.15,0,.06.01.13.02.19.53,7.05-2.66,20.31-10.92,32.75-.43.65-1.04,1.15-1.75,1.45-3.55,1.49-8.2,3.54-12.6,6.24-.63.39-1.34.58-2.05.58ZM50.42,57.65c.14.08.29.16.43.24.13-.07.25-.14.38-.22h-.36c-.15,0-.3,0-.45-.03ZM40.34,52.78c2.16.92,4.79,2.09,7.54,3.51-.04-.05-.08-.1-.12-.15-3.6-4.72-9.64-14.36-9.64-25.96,0-9.5,6.71-13.82,12.94-13.82s12.94,4.33,12.94,13.82c0,11.45-5.88,20.99-9.49,25.77,2.5-1.26,4.88-2.32,6.86-3.16,7.17-11.22,9.32-22.04,9-26.76-1.48-11.56-8.58-18.18-19.51-18.18-8.34,0-18.5,3.13-19.51,18.06-.35,4.7,1.78,15.59,8.99,26.89ZM63.99,55.92h0,0ZM51.05,24.19c-1.53,0-5.1.58-5.1,5.99,0,6.62,2.55,12.58,5.1,16.87,2.55-4.3,5.1-10.25,5.1-16.87,0-5.4-3.57-5.99-5.1-5.99Z"/>
      </g>
      <g>
        <g>
          <path class="cls-2" d="M28.12,37.3c-9.65,2.79-12.08,10.12-4.62,14.44,4.92,2.85,17.02,5.89,27.36,11.83,10.33-5.94,22.44-8.98,27.36-11.83,7.45-4.31,5.26-11.64-4.4-14.44l1.44-9.83c13.41.35,22.53,8.87,22.53,19.99s-4.47,22.95-32.96,31.82h-27.94C8.39,70.41,3.92,58.58,3.92,47.46s9.13-19.65,22.53-19.99l1.67,9.83Z"/>
          <path class="cls-1" d="M64.82,83.19h-27.94c-.39,0-.79-.06-1.16-.18C4.06,73.16,0,58.84,0,47.46c0-13.46,11.08-23.51,26.35-23.91,1.95-.04,3.64,1.34,3.96,3.26l1.67,9.83c.33,1.96-.86,3.86-2.77,4.42-4,1.16-6,3.09-6.16,4.4-.11.87.79,1.95,2.41,2.89,1.73,1,4.86,2.17,8.48,3.52,5,1.86,11.1,4.13,16.91,7.23,5.81-3.1,11.91-5.37,16.91-7.23,3.62-1.35,6.75-2.51,8.48-3.52,1.67-.97,2.6-2.09,2.49-2.99-.16-1.27-2.1-3.16-6.01-4.29-1.88-.54-3.07-2.39-2.79-4.33l1.44-9.83c.29-1.96,2.01-3.39,3.98-3.35,15.27.4,26.35,10.45,26.35,23.91,0,11.38-4.06,25.71-35.72,35.56-.38.12-.77.18-1.16.18ZM37.48,75.36h26.74c26.04-8.23,29.65-18.27,29.65-27.9,0-8.19-6.13-14.34-15.28-15.77l-.44,3.04c4.82,2.17,7.87,5.65,8.36,9.68.51,4.19-1.8,8.09-6.34,10.72-2.31,1.34-5.72,2.61-9.67,4.08-5.29,1.97-11.88,4.42-17.69,7.76-1.21.69-2.69.69-3.9,0-5.81-3.34-12.4-5.79-17.69-7.76-3.95-1.47-7.37-2.74-9.67-4.08-4.48-2.6-6.77-6.47-6.26-10.62.5-4.06,3.58-7.56,8.44-9.76l-.52-3.08c-9.2,1.41-15.36,7.57-15.36,15.78,0,9.63,3.61,19.67,29.65,27.9Z"/>
        </g>
        <g>
          <path class="cls-2" d="M40.27,71.25c-8.6,10.25-5.17,22.03,2.04,26.11h17.08c7.21-4.08,10.64-15.85,2.04-26.11-2.93-3.5-6.63-6.38-10.58-8.81-3.95,2.43-7.65,5.31-10.58,8.81Z"/>
          <path class="cls-1" d="M59.39,101.28h-17.08c-.68,0-1.34-.18-1.93-.51-4.5-2.55-7.78-7.36-8.78-12.87-1.19-6.58.82-13.39,5.67-19.16h0c2.96-3.53,6.73-6.68,11.53-9.63,1.26-.77,2.85-.77,4.1,0,4.8,2.95,8.57,6.1,11.53,9.63,4.84,5.78,6.86,12.58,5.67,19.16-1,5.51-4.28,10.32-8.78,12.87-.59.33-1.25.51-1.93.51ZM43.45,93.44h14.8c2.09-1.52,3.61-4.04,4.14-6.94.77-4.25-.64-8.77-3.96-12.73-1.99-2.37-4.48-4.57-7.58-6.67-3.1,2.1-5.59,4.3-7.58,6.67h0c-3.32,3.96-4.73,8.48-3.96,12.73.52,2.9,2.04,5.42,4.14,6.94ZM40.27,71.25h0,0Z"/>
        </g>
      </g>
      <g>
        <circle class="cls-2" cx="50.85" cy="82.5" r="6.57"/>
        <path class="cls-1" d="M50.85,92.01c-5.24,0-9.51-4.27-9.51-9.51s4.26-9.51,9.51-9.51,9.51,4.26,9.51,9.51-4.26,9.51-9.51,9.51ZM50.85,78.87c-2,0-3.63,1.63-3.63,3.63s1.63,3.63,3.63,3.63,3.63-1.63,3.63-3.63-1.63-3.63-3.63-3.63Z"/>
      </g>
    </g>
  </g>
</svg>