<svg width="73" height="73" viewBox="0 0 73 73" fill="none" xmlns="http://www.w3.org/2000/svg">
<circle cx="36.5" cy="36.5" r="35.5" fill="#F8B4CE" stroke="#FF679C" stroke-width="2"/>
<path d="M42.5792 11.0739L43.0126 4.38406C43.058 3.66845 42.5163 3.0486 41.7981 3.00325C41.0221 2.94781 40.3619 3.6105 40.4173 4.38406L40.8507 11.0739C40.9465 12.1473 42.4885 12.1448 42.5818 11.0739H42.5792Z" fill="#231815"/>
<path d="M39.5002 7.85547L46.1951 9.55377L44.7437 14.9586H37.4844L39.5002 7.85547Z" fill="#FABE00"/>
<path d="M38.4825 15.2433L40.2237 9.11027L44.9204 10.3021L43.7412 14.6915L45.7469 15.2307L47.1983 9.82587C47.2713 9.55878 47.231 9.27153 47.0924 9.03216C46.9513 8.79279 46.722 8.61892 46.4524 8.55089L39.7575 6.85259C39.2132 6.71401 38.6564 7.03401 38.5027 7.57575L36.4844 14.6789L38.4825 15.2458V15.2433Z" fill="#231815"/>
<path d="M43.0947 11.5024L47.1766 6.08753C47.61 5.51303 47.4941 4.69916 46.9221 4.26576C46.3048 3.79205 45.3901 3.98355 45.0097 4.65884L41.6483 10.55C41.1368 11.4999 42.4269 12.3465 43.0947 11.5024Z" fill="#231815"/>
<path d="M51.8801 60.562H23.3794C23.1048 60.1135 22.5051 60.1614 22.3211 60.2848C22.0364 60.4738 21.724 60.5796 21.3964 60.5796C20.0962 60.5796 19.043 58.9368 19.043 56.9109C19.043 54.8851 20.0962 53.2422 21.3964 53.2422C21.724 53.2422 22.0364 53.348 22.3211 53.537C22.5051 53.6579 23.1048 53.7083 23.3794 53.2598H51.8801C51.1922 54.1165 50.7487 55.4344 50.7487 56.9134C50.7487 58.3925 51.1897 59.7103 51.8801 60.567V60.562Z" fill="white"/>
<path d="M21.3955 52.2003C21.8238 52.2003 22.2522 52.3087 22.6453 52.5178C22.8368 52.3263 23.1013 52.2155 23.3785 52.2155H51.8792C52.2798 52.2155 52.6426 52.4448 52.8165 52.8051C52.9879 53.1654 52.94 53.5938 52.688 53.9037C52.1236 54.6042 51.7859 55.728 51.7859 56.9047C51.7859 58.0814 52.1236 59.2052 52.688 59.9057C52.9375 60.2181 52.9879 60.644 52.8165 61.0043C52.6452 61.3646 52.2798 61.5939 51.8792 61.5939H23.3785C23.1013 61.5939 22.8368 61.483 22.6453 61.2915C22.2522 61.5007 21.8238 61.609 21.3955 61.609C19.4931 61.609 18.0039 59.5403 18.0039 56.9022C18.0039 54.264 19.4931 52.1953 21.3955 52.1953V52.2003ZM22.683 54.6546C22.3353 54.6546 22.0002 54.5639 21.7457 54.3976C21.6248 54.3169 21.5089 54.2766 21.3955 54.2766C20.8588 54.2766 20.0802 55.3021 20.0802 56.9072C20.0802 58.5123 20.8588 59.5378 21.3955 59.5378C21.5089 59.5378 21.6222 59.4975 21.7457 59.4169C22.1035 59.1775 22.6301 59.0969 23.1164 59.2052C23.3735 59.2632 23.6103 59.369 23.8119 59.5202H50.1481C49.8634 58.7239 49.7097 57.8294 49.7097 56.9047C49.7097 55.9799 49.8634 55.088 50.1481 54.2892H23.8119C23.6103 54.4404 23.3735 54.5462 23.1164 54.6042C22.9728 54.6369 22.8267 54.6521 22.683 54.6521V54.6546Z" fill="#231815"/>
<path d="M21.3955 52.1998C21.8238 52.1998 22.2522 52.3081 22.6453 52.5173C22.8368 52.3258 23.1013 52.2149 23.3785 52.2149H52.8644C53.4389 52.2149 53.9025 52.6785 53.9025 53.253C53.9025 53.8275 53.4389 54.2912 52.8644 54.2912H23.8094C23.6078 54.4423 23.3709 54.5482 23.1139 54.6061C22.6276 54.7145 22.101 54.6338 21.7432 54.397C21.6222 54.3164 21.5063 54.276 21.3929 54.276C20.8562 54.276 20.0776 55.3016 20.0776 56.9066C20.0776 58.5117 20.8562 59.5372 21.3929 59.5372C21.5063 59.5372 21.6197 59.4969 21.7432 59.4163C22.101 59.1769 22.6276 59.0963 23.1139 59.2046C23.3709 59.2626 23.6078 59.3684 23.8094 59.5196H52.8644C53.4389 59.5196 53.9025 59.9832 53.9025 60.5577C53.9025 61.1322 53.4389 61.5959 52.8644 61.5959H23.3785C23.1013 61.5959 22.8368 61.485 22.6453 61.2935C22.2522 61.5026 21.8238 61.611 21.3955 61.611C19.4931 61.611 18.0039 59.5423 18.0039 56.9041C18.0039 54.266 19.4931 52.1973 21.3955 52.1973V52.1998Z" fill="#231815"/>
<path d="M21.3941 52.2012C21.8224 52.2012 22.2508 52.3095 22.6439 52.5187C22.8354 52.3272 23.0999 52.2163 23.3771 52.2163H52.863C53.4375 52.2163 53.9011 52.6799 53.9011 53.2544C53.9011 53.8289 53.4375 54.2925 52.863 54.2925H23.808C23.6064 54.4437 23.3695 54.5496 23.1125 54.6075C22.6262 54.7159 22.1021 54.6352 21.7418 54.3984C21.6209 54.3177 21.5049 54.2774 21.3916 54.2774C20.8549 54.2774 20.0763 55.303 20.0763 56.908C20.0763 57.4825 19.6126 57.9462 19.0381 57.9462C18.4636 57.9462 18 57.4825 18 56.908C18 54.2699 19.4892 52.2012 21.3916 52.2012H21.3941Z" fill="#231815"/>
<path d="M21.3964 40.9273C21.724 40.9273 22.0364 41.0331 22.3211 41.2221C22.5051 41.343 23.1048 41.3934 23.3794 40.9449H52.8653V14.6641H23.3794C23.1048 15.1126 22.5051 15.0648 22.3211 14.9413C22.0364 14.7523 21.724 14.6465 21.3964 14.6465C20.0962 14.6465 19.043 16.2893 19.043 18.3152V44.596C19.043 42.5701 20.0962 40.9273 21.3964 40.9273Z" fill="#FEF2CC"/>
<path d="M21.3964 53.2391C21.724 53.2391 22.0364 53.345 22.3211 53.5339C22.5051 53.6549 23.1048 53.7053 23.3794 53.2568H52.8653V40.9454H23.3794C23.1048 41.3939 22.5051 41.346 22.3211 41.2225C22.0364 41.0336 21.724 40.9277 21.3964 40.9277C20.0962 40.9277 19.043 42.5706 19.043 44.5965V56.9079C19.043 54.882 20.0962 53.2391 21.3964 53.2391Z" fill="#FABE00"/>
<path d="M21.3963 40.149C21.8397 40.149 22.2807 40.28 22.6788 40.527C22.6914 40.527 22.7116 40.527 22.7216 40.5219C22.8653 40.3002 23.1122 40.1641 23.3768 40.1641H52.8627C53.2935 40.1641 53.6413 40.5118 53.6413 40.9427V53.2541C53.6413 53.685 53.2935 54.0327 52.8627 54.0327H23.7195C23.533 54.1889 23.3062 54.2973 23.0568 54.3527C22.6435 54.446 22.1824 54.3779 21.8876 54.1789C21.7238 54.0705 21.5575 54.0151 21.3937 54.0151C20.6479 54.0151 19.8189 55.2019 19.8189 56.9052C19.8189 57.3361 19.4712 57.6838 19.0403 57.6838C18.6094 57.6838 18.2617 57.3361 18.2617 56.9052V44.5938C18.2617 42.0993 19.6375 40.1465 21.3937 40.1465L21.3963 40.149ZM22.6864 42.0842C22.389 42.0842 22.0993 42.0086 21.8901 41.87C21.7263 41.7616 21.56 41.7062 21.3963 41.7062C20.6504 41.7062 19.8214 42.893 19.8214 44.5963V53.045C20.2825 52.6721 20.8192 52.4604 21.3963 52.4604C21.8397 52.4604 22.2807 52.5914 22.6788 52.8384C22.6914 52.8384 22.7116 52.8384 22.7216 52.8333C22.8653 52.6116 23.1122 52.4755 23.3768 52.4755H52.0841V41.7213H23.7195C23.533 41.8775 23.3062 41.9859 23.0568 42.0413C22.9333 42.069 22.8073 42.0816 22.6838 42.0816L22.6864 42.0842Z" fill="#231815"/>
<path d="M21.9102 53.5234L22.1697 43.578C22.2024 42.9128 23.1751 42.9102 23.2078 43.578L23.4674 53.5234C23.4598 54.5766 21.9202 54.5816 21.9102 53.5234Z" fill="#231815"/>
<path d="M23.4674 15.6532L23.2078 25.5985C23.1751 26.2637 22.2024 26.2663 22.1697 25.5985L21.9102 15.6532C21.9177 14.5999 23.4573 14.5949 23.4674 15.6532Z" fill="#231815"/>
<path d="M21.3941 13.6094C21.8224 13.6094 22.2508 13.7177 22.6439 13.9269C22.8354 13.7354 23.0999 13.6245 23.3771 13.6245H52.863C53.4375 13.6245 53.9011 14.0881 53.9011 14.6626V53.2573C53.9011 53.8318 53.4375 54.2955 52.863 54.2955H23.808C23.6064 54.4467 23.3695 54.5525 23.1125 54.6104C22.6262 54.7188 22.0996 54.6382 21.7418 54.4013C21.6209 54.3207 21.5049 54.2804 21.3916 54.2804C20.8549 54.2804 20.0763 55.3059 20.0763 56.911C20.0763 57.4855 19.6126 57.9491 19.0381 57.9491C18.4636 57.9491 18 57.4855 18 56.911V18.3162C18 15.6781 19.4892 13.6094 21.3916 13.6094H21.3941ZM22.6817 16.0611C22.3339 16.0611 21.9988 15.9704 21.7443 15.8041C21.6234 15.7234 21.5075 15.6831 21.3941 15.6831C20.8574 15.6831 20.0788 16.7086 20.0788 18.3137V52.5569C20.4819 52.3276 20.9254 52.2016 21.3941 52.2016C21.8224 52.2016 22.2508 52.3099 22.6439 52.5191C22.8354 52.3276 23.0999 52.2167 23.3771 52.2167H51.8249V15.7008H23.808C23.6064 15.8519 23.3695 15.9578 23.1125 16.0157C22.9689 16.0485 22.8228 16.0636 22.6791 16.0636L22.6817 16.0611Z" fill="#231815"/>
<path d="M25.7461 32.1973C25.7917 32.0215 25.8405 31.849 25.8926 31.6797C25.9479 31.5072 26.0146 31.3151 26.0928 31.1035C26.1611 30.9147 26.2441 30.6982 26.3418 30.4541C26.4395 30.2067 26.542 29.9561 26.6494 29.7021C26.7601 29.4482 26.8675 29.2122 26.9717 28.9941C27.0758 28.776 27.1702 28.6019 27.2549 28.4717C27.359 28.3122 27.4714 28.1934 27.5918 28.1152C27.7155 28.0371 27.8962 27.998 28.1338 27.998H28.7734C28.9427 27.998 29.0843 28.0241 29.1982 28.0762C29.3154 28.125 29.3984 28.2438 29.4473 28.4326C29.4831 28.5726 29.5173 28.7777 29.5498 29.0479C29.5824 29.318 29.61 29.6924 29.6328 30.1709C29.6556 30.6494 29.6735 31.2646 29.6865 32.0166C29.6995 32.7653 29.7061 33.6914 29.7061 34.7949C29.7061 34.8535 29.6865 34.9023 29.6475 34.9414C29.6084 34.9805 29.5612 35 29.5059 35H28.3926C28.3372 35 28.29 34.9805 28.251 34.9414C28.2119 34.9023 28.1924 34.8519 28.1924 34.79C28.1924 33.9307 28.1924 33.2015 28.1924 32.6025C28.1924 32.0036 28.1908 31.5072 28.1875 31.1133C28.1842 30.7194 28.1794 30.4069 28.1729 30.1758C28.1696 29.9414 28.1631 29.7607 28.1533 29.6338H28.124C27.9515 30.0309 27.7676 30.4736 27.5723 30.9619C27.377 31.4469 27.1865 31.9482 27.001 32.4658C26.8154 32.9801 26.6494 33.4831 26.5029 33.9746C26.4606 34.1211 26.4069 34.2236 26.3418 34.2822C26.2799 34.3376 26.1367 34.3652 25.9121 34.3652H25.3506C25.1585 34.3652 25.0299 34.3408 24.9648 34.292C24.903 34.2432 24.8493 34.1374 24.8037 33.9746C24.6963 33.6035 24.5775 33.2113 24.4473 32.7979C24.3171 32.3844 24.182 31.9792 24.042 31.582C23.9053 31.1816 23.7718 30.8138 23.6416 30.4785C23.5146 30.14 23.4007 29.8584 23.2998 29.6338H23.2705C23.2445 30.0179 23.2217 30.485 23.2021 31.0352C23.1826 31.5853 23.1663 32.1826 23.1533 32.8271C23.1436 33.4717 23.137 34.1292 23.1338 34.7998C23.1338 34.8584 23.1143 34.9072 23.0752 34.9463C23.0361 34.9821 22.9889 35 22.9336 35H21.9326C21.8773 35 21.8301 34.9805 21.791 34.9414C21.752 34.9023 21.7324 34.8519 21.7324 34.79C21.7357 33.055 21.7699 31.6699 21.835 30.6348C21.9033 29.5996 21.9766 28.9062 22.0547 28.5547C22.1068 28.3236 22.1979 28.1738 22.3281 28.1055C22.4616 28.0339 22.613 27.998 22.7822 27.998H23.5732C23.7523 27.998 23.8825 28.0306 23.9639 28.0957C24.0485 28.1576 24.151 28.2796 24.2715 28.4619C24.3431 28.5693 24.4277 28.7305 24.5254 28.9453C24.6263 29.1602 24.7305 29.3994 24.8379 29.6631C24.9453 29.9235 25.0462 30.1823 25.1406 30.4395C25.2383 30.6934 25.318 30.9147 25.3799 31.1035C25.445 31.2956 25.5052 31.4827 25.5605 31.665C25.6159 31.8441 25.6647 32.0215 25.707 32.1973H25.7461ZM32.4307 35C32.0954 35 31.8398 34.9577 31.6641 34.873C31.4915 34.7884 31.3743 34.6501 31.3125 34.458C31.2539 34.266 31.2246 34.0104 31.2246 33.6914V29.3066C31.2246 28.9811 31.2539 28.724 31.3125 28.5352C31.3743 28.3431 31.4915 28.2064 31.6641 28.125C31.8398 28.0404 32.0954 27.998 32.4307 27.998H34.7256C34.8037 27.998 34.8623 28.0111 34.9014 28.0371C34.986 28.0957 35.0739 28.1657 35.165 28.2471C35.2562 28.3285 35.3522 28.4261 35.4531 28.54C35.4857 28.5824 35.502 28.6165 35.502 28.6426C35.502 28.6719 35.4857 28.7044 35.4531 28.7402C35.3522 28.8542 35.2562 28.9518 35.165 29.0332C35.0739 29.1146 34.986 29.1846 34.9014 29.2432C34.8558 29.2692 34.7972 29.2822 34.7256 29.2822H33.3584C33.1436 29.2822 32.9971 29.3278 32.9189 29.4189C32.8408 29.5101 32.8018 29.6663 32.8018 29.8877V30.835H34.5547C34.6328 30.835 34.6914 30.848 34.7305 30.874C34.8151 30.9326 34.903 31.0026 34.9941 31.084C35.0853 31.1654 35.1813 31.263 35.2822 31.377C35.3148 31.4193 35.3311 31.4535 35.3311 31.4795C35.3311 31.5088 35.3148 31.5413 35.2822 31.5771C35.1813 31.6911 35.0853 31.7887 34.9941 31.8701C34.903 31.9515 34.8151 32.0215 34.7305 32.0801C34.6849 32.1061 34.6263 32.1191 34.5547 32.1191H32.8018V33.1055C32.8018 33.3236 32.8408 33.4798 32.9189 33.5742C32.9971 33.6686 33.1436 33.7158 33.3584 33.7158H34.8867C34.9648 33.7158 35.0234 33.7288 35.0625 33.7549C35.1471 33.8135 35.235 33.8835 35.3262 33.9648C35.4173 34.0462 35.5133 34.1439 35.6143 34.2578C35.6468 34.3001 35.6631 34.3343 35.6631 34.3604C35.6631 34.3896 35.6468 34.4222 35.6143 34.458C35.5133 34.5719 35.4173 34.6696 35.3262 34.751C35.235 34.8324 35.1471 34.9023 35.0625 34.9609C35.0169 34.987 34.9583 35 34.8867 35H32.4307ZM38.1826 34.7412C38.1826 34.8389 38.1631 34.9072 38.124 34.9463C38.0882 34.9821 38.0231 35 37.9287 35H36.9473C36.8561 35 36.791 34.9821 36.752 34.9463C36.7129 34.9072 36.6934 34.8389 36.6934 34.7412V28.5547C36.6934 28.3626 36.7308 28.2227 36.8057 28.1348C36.8805 28.0436 37.0124 27.998 37.2012 27.998H37.6553C37.8213 27.998 37.9775 28.0208 38.124 28.0664C38.2738 28.1087 38.4316 28.2064 38.5977 28.3594C38.7669 28.5124 38.9622 28.75 39.1836 29.0723C39.4082 29.3913 39.6784 29.8275 39.9941 30.3809C40.2969 30.9082 40.5394 31.3298 40.7217 31.6455C40.9072 31.9613 41.0505 32.2021 41.1514 32.3682C41.2523 32.5342 41.3271 32.653 41.376 32.7246C41.4281 32.7962 41.4704 32.8548 41.5029 32.9004V28.7793C41.5029 28.6849 41.5176 28.6133 41.5469 28.5645C41.6868 28.3496 41.8805 28.1234 42.1279 27.8857C42.1768 27.8467 42.2174 27.8271 42.25 27.8271C42.2858 27.8271 42.3249 27.8467 42.3672 27.8857C42.5007 28.0094 42.613 28.1283 42.7041 28.2422C42.7985 28.3529 42.8799 28.4603 42.9482 28.5645C42.9775 28.6165 42.9922 28.6882 42.9922 28.7793V34.5947C42.9922 34.7412 42.9645 34.8454 42.9092 34.9072C42.8538 34.9691 42.7529 35 42.6064 35H42.1377C41.9977 35 41.8545 34.9772 41.708 34.9316C41.5615 34.8828 41.3955 34.7754 41.21 34.6094C41.0244 34.4401 40.8047 34.1781 40.5508 33.8232C40.2969 33.4684 39.9909 32.9834 39.6328 32.3682C39.3301 31.8441 39.0876 31.4274 38.9053 31.1182C38.7262 30.8089 38.5895 30.5762 38.4951 30.4199C38.4007 30.2604 38.3324 30.1497 38.29 30.0879C38.2477 30.0228 38.2119 29.974 38.1826 29.9414V34.7412ZM47.3867 35.1172C46.7747 35.1172 46.2523 35.0374 45.8193 34.8779C45.3896 34.7184 45.0609 34.4385 44.833 34.0381C44.6084 33.6377 44.4961 33.0762 44.4961 32.3535V28.7793C44.4961 28.6849 44.5124 28.6133 44.5449 28.5645C44.6914 28.3496 44.8965 28.1234 45.1602 27.8857C45.209 27.8467 45.2513 27.8271 45.2871 27.8271C45.3262 27.8271 45.3669 27.8467 45.4092 27.8857C45.5524 28.0094 45.6729 28.1283 45.7705 28.2422C45.8682 28.3529 45.9528 28.4603 46.0244 28.5645C46.057 28.6165 46.0732 28.6882 46.0732 28.7793V32.1094C46.0732 32.5749 46.1221 32.9297 46.2197 33.1738C46.3206 33.4147 46.4688 33.5791 46.6641 33.667C46.8594 33.7549 47.1003 33.7988 47.3867 33.7988C47.6797 33.7988 47.9238 33.7549 48.1191 33.667C48.3145 33.5791 48.4609 33.4147 48.5586 33.1738C48.6562 32.9297 48.7051 32.5749 48.7051 32.1094V28.7793C48.7051 28.6849 48.7214 28.6133 48.7539 28.5645C48.9004 28.3496 49.1055 28.1234 49.3691 27.8857C49.418 27.8467 49.4603 27.8271 49.4961 27.8271C49.5352 27.8271 49.5758 27.8467 49.6182 27.8857C49.7614 28.0094 49.8818 28.1283 49.9795 28.2422C50.0771 28.3529 50.1618 28.4603 50.2334 28.5645C50.266 28.6165 50.2822 28.6882 50.2822 28.7793V32.3535C50.2822 33.0762 50.1585 33.6377 49.9111 34.0381C49.6637 34.4385 49.3219 34.7184 48.8857 34.8779C48.4528 35.0374 47.9531 35.1172 47.3867 35.1172Z" fill="black"/>
</svg>
