<svg width="36" height="59" viewBox="0 0 36 59" fill="none" xmlns="http://www.w3.org/2000/svg">
<path d="M24.5792 8.07394L25.0126 1.38406C25.058 0.668454 24.5163 0.0486003 23.7981 0.00324514C23.0221 -0.0521889 22.3619 0.6105 22.4173 1.38406L22.8507 8.07394C22.9465 9.14735 24.4885 9.14483 24.5818 8.07394H24.5792Z" fill="#231815"/>
<path d="M21.5002 4.85547L28.1951 6.55377L26.7437 11.9586H19.4844L21.5002 4.85547Z" fill="#FABE00"/>
<path d="M20.4825 12.2433L22.2237 6.11027L26.9204 7.3021L25.7412 11.6915L27.7469 12.2307L29.1983 6.82587C29.2713 6.55878 29.231 6.27153 29.0924 6.03216C28.9513 5.79278 28.722 5.61892 28.4524 5.55089L21.7575 3.85259C21.2132 3.71401 20.6564 4.03401 20.5027 4.57575L18.4844 11.6789L20.4825 12.2458V12.2433Z" fill="#231815"/>
<path d="M25.0947 8.50243L29.1766 3.08753C29.61 2.51303 29.4941 1.69916 28.9221 1.26576C28.3048 0.792052 27.3901 0.983551 27.0097 1.65884L23.6483 7.54997C23.1368 8.49991 24.4269 9.34654 25.0947 8.50243Z" fill="#231815"/>
<path d="M33.8801 57.562H5.37943C5.10477 57.1135 4.50508 57.1614 4.32114 57.2848C4.03641 57.4738 3.72396 57.5796 3.3964 57.5796C2.09622 57.5796 1.04297 55.9368 1.04297 53.9109C1.04297 51.8851 2.09622 50.2422 3.3964 50.2422C3.72396 50.2422 4.03641 50.348 4.32114 50.537C4.50508 50.6579 5.10477 50.7083 5.37943 50.2598H33.8801C33.1922 51.1165 32.7487 52.4344 32.7487 53.9134C32.7487 55.3925 33.1897 56.7103 33.8801 57.567V57.562Z" fill="white"/>
<path d="M3.39547 49.2003C3.82382 49.2003 4.25217 49.3087 4.64525 49.5178C4.83675 49.3263 5.10132 49.2155 5.37849 49.2155H33.8792C34.2798 49.2155 34.6426 49.4448 34.8165 49.8051C34.9879 50.1654 34.94 50.5938 34.688 50.9037C34.1236 51.6042 33.7859 52.728 33.7859 53.9047C33.7859 55.0814 34.1236 56.2052 34.688 56.9057C34.9375 57.2181 34.9879 57.644 34.8165 58.0043C34.6452 58.3646 34.2798 58.5939 33.8792 58.5939H5.37849C5.10132 58.5939 4.83675 58.483 4.64525 58.2915C4.25217 58.5007 3.82382 58.609 3.39547 58.609C1.49307 58.609 0.00390625 56.5403 0.00390625 53.9022C0.00390625 51.264 1.49307 49.1953 3.39547 49.1953V49.2003ZM4.68305 51.6546C4.33533 51.6546 4.0002 51.5639 3.74571 51.3976C3.62476 51.3169 3.50885 51.2766 3.39547 51.2766C2.85876 51.2766 2.08017 52.3021 2.08017 53.9072C2.08017 55.5123 2.85876 56.5378 3.39547 56.5378C3.50885 56.5378 3.62224 56.4975 3.74571 56.4169C4.10351 56.1775 4.63013 56.0969 5.11644 56.2052C5.37345 56.2632 5.61031 56.369 5.81189 56.5202H32.1481C31.8634 55.7239 31.7097 54.8294 31.7097 53.9047C31.7097 52.9799 31.8634 52.088 32.1481 51.2892H5.81189C5.61031 51.4404 5.37345 51.5462 5.11644 51.6042C4.97282 51.6369 4.82667 51.6521 4.68305 51.6521V51.6546Z" fill="#231815"/>
<path d="M3.39547 49.1998C3.82382 49.1998 4.25217 49.3081 4.64525 49.5173C4.83675 49.3258 5.10132 49.2149 5.37849 49.2149H34.8644C35.4389 49.2149 35.9025 49.6785 35.9025 50.253C35.9025 50.8275 35.4389 51.2912 34.8644 51.2912H5.80937C5.60779 51.4423 5.37093 51.5482 5.11392 51.6061C4.62761 51.7145 4.10099 51.6338 3.74319 51.397C3.62224 51.3164 3.50633 51.276 3.39295 51.276C2.85624 51.276 2.07765 52.3016 2.07765 53.9066C2.07765 55.5117 2.85624 56.5372 3.39295 56.5372C3.50633 56.5372 3.61972 56.4969 3.74319 56.4163C4.10099 56.1769 4.62761 56.0963 5.11392 56.2046C5.37093 56.2626 5.60779 56.3684 5.80937 56.5196H34.8644C35.4389 56.5196 35.9025 56.9832 35.9025 57.5577C35.9025 58.1322 35.4389 58.5959 34.8644 58.5959H5.37849C5.10132 58.5959 4.83675 58.485 4.64525 58.2935C4.25217 58.5026 3.82382 58.611 3.39547 58.611C1.49307 58.611 0.00390625 56.5423 0.00390625 53.9041C0.00390625 51.266 1.49307 49.1973 3.39547 49.1973V49.1998Z" fill="#231815"/>
<path d="M3.39408 49.2012C3.82243 49.2012 4.25079 49.3095 4.64386 49.5187C4.83536 49.3272 5.09993 49.2163 5.3771 49.2163H34.863C35.4375 49.2163 35.9011 49.6799 35.9011 50.2544C35.9011 50.8289 35.4375 51.2925 34.863 51.2925H5.80798C5.6064 51.4437 5.36955 51.5496 5.11253 51.6075C4.62623 51.7159 4.10212 51.6352 3.7418 51.3984C3.62085 51.3177 3.50495 51.2774 3.39156 51.2774C2.85485 51.2774 2.07626 52.303 2.07626 53.908C2.07626 54.4825 1.61263 54.9462 1.03813 54.9462C0.463629 54.9462 0 54.4825 0 53.908C0 51.2699 1.48916 49.2012 3.39156 49.2012H3.39408Z" fill="#231815"/>
<path d="M3.3964 37.9273C3.72396 37.9273 4.03641 38.0331 4.32114 38.2221C4.50508 38.343 5.10477 38.3934 5.37943 37.9449H34.8653V11.6641H5.37943C5.10477 12.1126 4.50508 12.0648 4.32114 11.9413C4.03641 11.7523 3.72396 11.6465 3.3964 11.6465C2.09622 11.6465 1.04297 13.2893 1.04297 15.3152V41.596C1.04297 39.5701 2.09622 37.9273 3.3964 37.9273Z" fill="#FEF2CC"/>
<path d="M3.3964 50.2391C3.72396 50.2391 4.03641 50.345 4.32114 50.5339C4.50508 50.6549 5.10477 50.7053 5.37943 50.2568H34.8653V37.9454H5.37943C5.10477 38.3939 4.50508 38.346 4.32114 38.2225C4.03641 38.0336 3.72396 37.9277 3.3964 37.9277C2.09622 37.9277 1.04297 39.5706 1.04297 41.5965V53.9079C1.04297 51.882 2.09622 50.2391 3.3964 50.2391Z" fill="#FABE00"/>
<path d="M3.39626 37.149C3.83974 37.149 4.28069 37.28 4.67881 37.527C4.69141 37.527 4.71156 37.527 4.72164 37.5219C4.86527 37.3002 5.1122 37.1641 5.37677 37.1641H34.8627C35.2935 37.1641 35.6413 37.5118 35.6413 37.9427V50.2541C35.6413 50.685 35.2935 51.0327 34.8627 51.0327H5.71945C5.53299 51.1889 5.30622 51.2973 5.05677 51.3527C4.64353 51.446 4.18242 51.3779 3.88761 51.1789C3.72383 51.0705 3.55753 51.0151 3.39374 51.0151C2.6479 51.0151 1.81891 52.2019 1.81891 53.9052C1.81891 54.3361 1.47119 54.6838 1.04031 54.6838C0.609441 54.6838 0.261719 54.3361 0.261719 53.9052V41.5938C0.261719 39.0993 1.63749 37.1465 3.39374 37.1465L3.39626 37.149ZM4.68637 39.0842C4.38904 39.0842 4.09927 39.0086 3.89013 38.87C3.72635 38.7616 3.56005 38.7062 3.39626 38.7062C2.65042 38.7062 1.82143 39.893 1.82143 41.5963V50.045C2.28254 49.6721 2.81925 49.4604 3.39626 49.4604C3.83974 49.4604 4.28069 49.5914 4.67881 49.8384C4.69141 49.8384 4.71156 49.8384 4.72164 49.8333C4.86527 49.6116 5.1122 49.4755 5.37677 49.4755H34.0841V38.7213H5.71945C5.53299 38.8775 5.30622 38.9859 5.05677 39.0413C4.9333 39.069 4.80731 39.0816 4.68385 39.0816L4.68637 39.0842Z" fill="#231815"/>
<path d="M3.91016 50.5234L4.16969 40.578C4.20244 39.9128 5.17506 39.9102 5.20782 40.578L5.46735 50.5234C5.45979 51.5766 3.92024 51.5816 3.91016 50.5234Z" fill="#231815"/>
<path d="M5.46735 12.6532L5.20782 22.5985C5.17506 23.2637 4.20244 23.2663 4.16969 22.5985L3.91016 12.6532C3.91772 11.5999 5.45727 11.5949 5.46735 12.6532Z" fill="#231815"/>
<path d="M3.39408 10.6094C3.82243 10.6094 4.25079 10.7177 4.64386 10.9269C4.83536 10.7354 5.09993 10.6245 5.3771 10.6245H34.863C35.4375 10.6245 35.9011 11.0881 35.9011 11.6626V50.2573C35.9011 50.8318 35.4375 51.2955 34.863 51.2955H5.80798C5.6064 51.4467 5.36955 51.5525 5.11253 51.6104C4.62623 51.7188 4.0996 51.6382 3.7418 51.4013C3.62085 51.3207 3.50495 51.2804 3.39156 51.2804C2.85485 51.2804 2.07626 52.3059 2.07626 53.911C2.07626 54.4855 1.61263 54.9491 1.03813 54.9491C0.463629 54.9491 0 54.4855 0 53.911V15.3162C0 12.6781 1.48916 10.6094 3.39156 10.6094H3.39408ZM4.68166 13.0611C4.33394 13.0611 3.99881 12.9704 3.74432 12.8041C3.62337 12.7234 3.50747 12.6831 3.39408 12.6831C2.85738 12.6831 2.07878 13.7086 2.07878 15.3137V49.5569C2.48193 49.3276 2.92541 49.2016 3.39408 49.2016C3.82243 49.2016 4.25079 49.3099 4.64386 49.5191C4.83536 49.3276 5.09993 49.2167 5.3771 49.2167H33.8249V12.7008H5.80798C5.6064 12.8519 5.36955 12.9578 5.11253 13.0157C4.96891 13.0485 4.82276 13.0636 4.67914 13.0636L4.68166 13.0611Z" fill="#231815"/>
</svg>
