<svg width="36" height="59" viewBox="0 0 36 59" fill="none" xmlns="http://www.w3.org/2000/svg">
<path d="M24.5792 8.07394L25.0126 1.38406C25.058 0.668454 24.5163 0.0486003 23.7981 0.00324514C23.0221 -0.0521889 22.3619 0.6105 22.4173 1.38406L22.8507 8.07394C22.9465 9.14735 24.4885 9.14483 24.5818 8.07394H24.5792Z" fill="#231815"/>
<path d="M21.5002 4.85547L28.1951 6.55377L26.7437 11.9586H19.4844L21.5002 4.85547Z" fill="#FABE00"/>
<path d="M20.4825 12.2433L22.2237 6.11027L26.9204 7.3021L25.7412 11.6915L27.7469 12.2307L29.1983 6.82587C29.2713 6.55878 29.231 6.27153 29.0924 6.03216C28.9513 5.79278 28.722 5.61892 28.4524 5.55089L21.7575 3.85259C21.2132 3.71401 20.6564 4.03401 20.5027 4.57575L18.4844 11.6789L20.4825 12.2458V12.2433Z" fill="#231815"/>
<path d="M25.0947 8.50243L29.1766 3.08753C29.61 2.51303 29.4941 1.69916 28.9221 1.26576C28.3048 0.792052 27.3901 0.983551 27.0097 1.65884L23.6483 7.54997C23.1368 8.49991 24.4269 9.34654 25.0947 8.50243Z" fill="#231815"/>
<path d="M33.8801 57.562H5.37943C5.10477 57.1135 4.50508 57.1614 4.32114 57.2848C4.03641 57.4738 3.72396 57.5796 3.3964 57.5796C2.09622 57.5796 1.04297 55.9368 1.04297 53.9109C1.04297 51.8851 2.09622 50.2422 3.3964 50.2422C3.72396 50.2422 4.03641 50.348 4.32114 50.537C4.50508 50.6579 5.10477 50.7083 5.37943 50.2598H33.8801C33.1922 51.1165 32.7487 52.4344 32.7487 53.9134C32.7487 55.3925 33.1897 56.7103 33.8801 57.567V57.562Z" fill="white"/>
<path d="M3.39547 49.2003C3.82382 49.2003 4.25217 49.3087 4.64525 49.5178C4.83675 49.3263 5.10132 49.2155 5.37849 49.2155H33.8792C34.2798 49.2155 34.6426 49.4448 34.8165 49.8051C34.9879 50.1654 34.94 50.5938 34.688 50.9037C34.1236 51.6042 33.7859 52.728 33.7859 53.9047C33.7859 55.0814 34.1236 56.2052 34.688 56.9057C34.9375 57.2181 34.9879 57.644 34.8165 58.0043C34.6452 58.3646 34.2798 58.5939 33.8792 58.5939H5.37849C5.10132 58.5939 4.83675 58.483 4.64525 58.2915C4.25217 58.5007 3.82382 58.609 3.39547 58.609C1.49307 58.609 0.00390625 56.5403 0.00390625 53.9022C0.00390625 51.264 1.49307 49.1953 3.39547 49.1953V49.2003ZM4.68305 51.6546C4.33533 51.6546 4.0002 51.5639 3.74571 51.3976C3.62476 51.3169 3.50885 51.2766 3.39547 51.2766C2.85876 51.2766 2.08017 52.3021 2.08017 53.9072C2.08017 55.5123 2.85876 56.5378 3.39547 56.5378C3.50885 56.5378 3.62224 56.4975 3.74571 56.4169C4.10351 56.1775 4.63013 56.0969 5.11644 56.2052C5.37345 56.2632 5.61031 56.369 5.81189 56.5202H32.1481C31.8634 55.7239 31.7097 54.8294 31.7097 53.9047C31.7097 52.9799 31.8634 52.088 32.1481 51.2892H5.81189C5.61031 51.4404 5.37345 51.5462 5.11644 51.6042C4.97282 51.6369 4.82667 51.6521 4.68305 51.6521V51.6546Z" fill="#231815"/>
<path d="M3.39547 49.1998C3.82382 49.1998 4.25217 49.3081 4.64525 49.5173C4.83675 49.3258 5.10132 49.2149 5.37849 49.2149H34.8644C35.4389 49.2149 35.9025 49.6785 35.9025 50.253C35.9025 50.8275 35.4389 51.2912 34.8644 51.2912H5.80937C5.60779 51.4423 5.37093 51.5482 5.11392 51.6061C4.62761 51.7145 4.10099 51.6338 3.74319 51.397C3.62224 51.3164 3.50633 51.276 3.39295 51.276C2.85624 51.276 2.07765 52.3016 2.07765 53.9066C2.07765 55.5117 2.85624 56.5372 3.39295 56.5372C3.50633 56.5372 3.61972 56.4969 3.74319 56.4163C4.10099 56.1769 4.62761 56.0963 5.11392 56.2046C5.37093 56.2626 5.60779 56.3684 5.80937 56.5196H34.8644C35.4389 56.5196 35.9025 56.9832 35.9025 57.5577C35.9025 58.1322 35.4389 58.5959 34.8644 58.5959H5.37849C5.10132 58.5959 4.83675 58.485 4.64525 58.2935C4.25217 58.5026 3.82382 58.611 3.39547 58.611C1.49307 58.611 0.00390625 56.5423 0.00390625 53.9041C0.00390625 51.266 1.49307 49.1973 3.39547 49.1973V49.1998Z" fill="#231815"/>
<path d="M3.39408 49.2012C3.82243 49.2012 4.25079 49.3095 4.64386 49.5187C4.83536 49.3272 5.09993 49.2163 5.3771 49.2163H34.863C35.4375 49.2163 35.9011 49.6799 35.9011 50.2544C35.9011 50.8289 35.4375 51.2925 34.863 51.2925H5.80798C5.6064 51.4437 5.36955 51.5496 5.11253 51.6075C4.62623 51.7159 4.10212 51.6352 3.7418 51.3984C3.62085 51.3177 3.50495 51.2774 3.39156 51.2774C2.85485 51.2774 2.07626 52.303 2.07626 53.908C2.07626 54.4825 1.61263 54.9462 1.03813 54.9462C0.463629 54.9462 0 54.4825 0 53.908C0 51.2699 1.48916 49.2012 3.39156 49.2012H3.39408Z" fill="#231815"/>
<path d="M3.3964 37.9273C3.72396 37.9273 4.03641 38.0331 4.32114 38.2221C4.50508 38.343 5.10477 38.3934 5.37943 37.9449H34.8653V11.6641H5.37943C5.10477 12.1126 4.50508 12.0648 4.32114 11.9413C4.03641 11.7523 3.72396 11.6465 3.3964 11.6465C2.09622 11.6465 1.04297 13.2893 1.04297 15.3152V41.596C1.04297 39.5701 2.09622 37.9273 3.3964 37.9273Z" fill="#FEF2CC"/>
<path d="M3.3964 50.2391C3.72396 50.2391 4.03641 50.345 4.32114 50.5339C4.50508 50.6549 5.10477 50.7053 5.37943 50.2568H34.8653V37.9454H5.37943C5.10477 38.3939 4.50508 38.346 4.32114 38.2225C4.03641 38.0336 3.72396 37.9277 3.3964 37.9277C2.09622 37.9277 1.04297 39.5706 1.04297 41.5965V53.9079C1.04297 51.882 2.09622 50.2391 3.3964 50.2391Z" fill="#FABE00"/>
<path d="M3.39626 37.149C3.83974 37.149 4.28069 37.28 4.67881 37.527C4.69141 37.527 4.71156 37.527 4.72164 37.5219C4.86527 37.3002 5.1122 37.1641 5.37677 37.1641H34.8627C35.2935 37.1641 35.6413 37.5118 35.6413 37.9427V50.2541C35.6413 50.685 35.2935 51.0327 34.8627 51.0327H5.71945C5.53299 51.1889 5.30622 51.2973 5.05677 51.3527C4.64353 51.446 4.18242 51.3779 3.88761 51.1789C3.72383 51.0705 3.55753 51.0151 3.39374 51.0151C2.6479 51.0151 1.81891 52.2019 1.81891 53.9052C1.81891 54.3361 1.47119 54.6838 1.04031 54.6838C0.609441 54.6838 0.261719 54.3361 0.261719 53.9052V41.5938C0.261719 39.0993 1.63749 37.1465 3.39374 37.1465L3.39626 37.149ZM4.68637 39.0842C4.38904 39.0842 4.09927 39.0086 3.89013 38.87C3.72635 38.7616 3.56005 38.7062 3.39626 38.7062C2.65042 38.7062 1.82143 39.893 1.82143 41.5963V50.045C2.28254 49.6721 2.81925 49.4604 3.39626 49.4604C3.83974 49.4604 4.28069 49.5914 4.67881 49.8384C4.69141 49.8384 4.71156 49.8384 4.72164 49.8333C4.86527 49.6116 5.1122 49.4755 5.37677 49.4755H34.0841V38.7213H5.71945C5.53299 38.8775 5.30622 38.9859 5.05677 39.0413C4.9333 39.069 4.80731 39.0816 4.68385 39.0816L4.68637 39.0842Z" fill="#231815"/>
<path d="M3.91016 50.5234L4.16969 40.578C4.20244 39.9128 5.17506 39.9102 5.20782 40.578L5.46735 50.5234C5.45979 51.5766 3.92024 51.5816 3.91016 50.5234Z" fill="#231815"/>
<path d="M5.46735 12.6532L5.20782 22.5985C5.17506 23.2637 4.20244 23.2663 4.16969 22.5985L3.91016 12.6532C3.91772 11.5999 5.45727 11.5949 5.46735 12.6532Z" fill="#231815"/>
<path d="M3.39408 10.6094C3.82243 10.6094 4.25079 10.7177 4.64386 10.9269C4.83536 10.7354 5.09993 10.6245 5.3771 10.6245H34.863C35.4375 10.6245 35.9011 11.0881 35.9011 11.6626V50.2573C35.9011 50.8318 35.4375 51.2955 34.863 51.2955H5.80798C5.6064 51.4467 5.36955 51.5525 5.11253 51.6104C4.62623 51.7188 4.0996 51.6382 3.7418 51.4013C3.62085 51.3207 3.50495 51.2804 3.39156 51.2804C2.85485 51.2804 2.07626 52.3059 2.07626 53.911C2.07626 54.4855 1.61263 54.9491 1.03813 54.9491C0.463629 54.9491 0 54.4855 0 53.911V15.3162C0 12.6781 1.48916 10.6094 3.39156 10.6094H3.39408ZM4.68166 13.0611C4.33394 13.0611 3.99881 12.9704 3.74432 12.8041C3.62337 12.7234 3.50747 12.6831 3.39408 12.6831C2.85738 12.6831 2.07878 13.7086 2.07878 15.3137V49.5569C2.48193 49.3276 2.92541 49.2016 3.39408 49.2016C3.82243 49.2016 4.25079 49.3099 4.64386 49.5191C4.83536 49.3276 5.09993 49.2167 5.3771 49.2167H33.8249V12.7008H5.80798C5.6064 12.8519 5.36955 12.9578 5.11253 13.0157C4.96891 13.0485 4.82276 13.0636 4.67914 13.0636L4.68166 13.0611Z" fill="#231815"/>
<path d="M7.74609 29.1973C7.79167 29.0215 7.84049 28.849 7.89258 28.6797C7.94792 28.5072 8.01465 28.3151 8.09277 28.1035C8.16113 27.9147 8.24414 27.6982 8.3418 27.4541C8.43945 27.2067 8.54199 26.9561 8.64941 26.7021C8.76009 26.4482 8.86751 26.2122 8.97168 25.9941C9.07585 25.776 9.17025 25.6019 9.25488 25.4717C9.35905 25.3122 9.47135 25.1934 9.5918 25.1152C9.71549 25.0371 9.89616 24.998 10.1338 24.998H10.7734C10.9427 24.998 11.0843 25.0241 11.1982 25.0762C11.3154 25.125 11.3984 25.2438 11.4473 25.4326C11.4831 25.5726 11.5173 25.7777 11.5498 26.0479C11.5824 26.318 11.61 26.6924 11.6328 27.1709C11.6556 27.6494 11.6735 28.2646 11.6865 29.0166C11.6995 29.7653 11.7061 30.6914 11.7061 31.7949C11.7061 31.8535 11.6865 31.9023 11.6475 31.9414C11.6084 31.9805 11.5612 32 11.5059 32H10.3926C10.3372 32 10.29 31.9805 10.251 31.9414C10.2119 31.9023 10.1924 31.8519 10.1924 31.79C10.1924 30.9307 10.1924 30.2015 10.1924 29.6025C10.1924 29.0036 10.1908 28.5072 10.1875 28.1133C10.1842 27.7194 10.1794 27.4069 10.1729 27.1758C10.1696 26.9414 10.1631 26.7607 10.1533 26.6338H10.124C9.9515 27.0309 9.76758 27.4736 9.57227 27.9619C9.37695 28.4469 9.18652 28.9482 9.00098 29.4658C8.81543 29.9801 8.64941 30.4831 8.50293 30.9746C8.46061 31.1211 8.4069 31.2236 8.3418 31.2822C8.27995 31.3376 8.13672 31.3652 7.91211 31.3652H7.35059C7.15853 31.3652 7.02995 31.3408 6.96484 31.292C6.90299 31.2432 6.84928 31.1374 6.80371 30.9746C6.69629 30.6035 6.57747 30.2113 6.44727 29.7979C6.31706 29.3844 6.18197 28.9792 6.04199 28.582C5.90527 28.1816 5.77181 27.8138 5.6416 27.4785C5.51465 27.14 5.40072 26.8584 5.2998 26.6338H5.27051C5.24447 27.0179 5.22168 27.485 5.20215 28.0352C5.18262 28.5853 5.16634 29.1826 5.15332 29.8271C5.14355 30.4717 5.13704 31.1292 5.13379 31.7998C5.13379 31.8584 5.11426 31.9072 5.0752 31.9463C5.03613 31.9821 4.98893 32 4.93359 32H3.93262C3.87728 32 3.83008 31.9805 3.79102 31.9414C3.75195 31.9023 3.73242 31.8519 3.73242 31.79C3.73568 30.055 3.76986 28.6699 3.83496 27.6348C3.90332 26.5996 3.97656 25.9062 4.05469 25.5547C4.10677 25.3236 4.19792 25.1738 4.32812 25.1055C4.46159 25.0339 4.61296 24.998 4.78223 24.998H5.57324C5.75228 24.998 5.88249 25.0306 5.96387 25.0957C6.0485 25.1576 6.15104 25.2796 6.27148 25.4619C6.3431 25.5693 6.42773 25.7305 6.52539 25.9453C6.6263 26.1602 6.73047 26.3994 6.83789 26.6631C6.94531 26.9235 7.04622 27.1823 7.14062 27.4395C7.23828 27.6934 7.31803 27.9147 7.37988 28.1035C7.44499 28.2956 7.50521 28.4827 7.56055 28.665C7.61589 28.8441 7.66471 29.0215 7.70703 29.1973H7.74609ZM14.4307 32C14.0954 32 13.8398 31.9577 13.6641 31.873C13.4915 31.7884 13.3743 31.6501 13.3125 31.458C13.2539 31.266 13.2246 31.0104 13.2246 30.6914V26.3066C13.2246 25.9811 13.2539 25.724 13.3125 25.5352C13.3743 25.3431 13.4915 25.2064 13.6641 25.125C13.8398 25.0404 14.0954 24.998 14.4307 24.998H16.7256C16.8037 24.998 16.8623 25.0111 16.9014 25.0371C16.986 25.0957 17.0739 25.1657 17.165 25.2471C17.2562 25.3285 17.3522 25.4261 17.4531 25.54C17.4857 25.5824 17.502 25.6165 17.502 25.6426C17.502 25.6719 17.4857 25.7044 17.4531 25.7402C17.3522 25.8542 17.2562 25.9518 17.165 26.0332C17.0739 26.1146 16.986 26.1846 16.9014 26.2432C16.8558 26.2692 16.7972 26.2822 16.7256 26.2822H15.3584C15.1436 26.2822 14.9971 26.3278 14.9189 26.4189C14.8408 26.5101 14.8018 26.6663 14.8018 26.8877V27.835H16.5547C16.6328 27.835 16.6914 27.848 16.7305 27.874C16.8151 27.9326 16.903 28.0026 16.9941 28.084C17.0853 28.1654 17.1813 28.263 17.2822 28.377C17.3148 28.4193 17.3311 28.4535 17.3311 28.4795C17.3311 28.5088 17.3148 28.5413 17.2822 28.5771C17.1813 28.6911 17.0853 28.7887 16.9941 28.8701C16.903 28.9515 16.8151 29.0215 16.7305 29.0801C16.6849 29.1061 16.6263 29.1191 16.5547 29.1191H14.8018V30.1055C14.8018 30.3236 14.8408 30.4798 14.9189 30.5742C14.9971 30.6686 15.1436 30.7158 15.3584 30.7158H16.8867C16.9648 30.7158 17.0234 30.7288 17.0625 30.7549C17.1471 30.8135 17.235 30.8835 17.3262 30.9648C17.4173 31.0462 17.5133 31.1439 17.6143 31.2578C17.6468 31.3001 17.6631 31.3343 17.6631 31.3604C17.6631 31.3896 17.6468 31.4222 17.6143 31.458C17.5133 31.5719 17.4173 31.6696 17.3262 31.751C17.235 31.8324 17.1471 31.9023 17.0625 31.9609C17.0169 31.987 16.9583 32 16.8867 32H14.4307ZM20.1826 31.7412C20.1826 31.8389 20.1631 31.9072 20.124 31.9463C20.0882 31.9821 20.0231 32 19.9287 32H18.9473C18.8561 32 18.791 31.9821 18.752 31.9463C18.7129 31.9072 18.6934 31.8389 18.6934 31.7412V25.5547C18.6934 25.3626 18.7308 25.2227 18.8057 25.1348C18.8805 25.0436 19.0124 24.998 19.2012 24.998H19.6553C19.8213 24.998 19.9775 25.0208 20.124 25.0664C20.2738 25.1087 20.4316 25.2064 20.5977 25.3594C20.7669 25.5124 20.9622 25.75 21.1836 26.0723C21.4082 26.3913 21.6784 26.8275 21.9941 27.3809C22.2969 27.9082 22.5394 28.3298 22.7217 28.6455C22.9072 28.9613 23.0505 29.2021 23.1514 29.3682C23.2523 29.5342 23.3271 29.653 23.376 29.7246C23.4281 29.7962 23.4704 29.8548 23.5029 29.9004V25.7793C23.5029 25.6849 23.5176 25.6133 23.5469 25.5645C23.6868 25.3496 23.8805 25.1234 24.1279 24.8857C24.1768 24.8467 24.2174 24.8271 24.25 24.8271C24.2858 24.8271 24.3249 24.8467 24.3672 24.8857C24.5007 25.0094 24.613 25.1283 24.7041 25.2422C24.7985 25.3529 24.8799 25.4603 24.9482 25.5645C24.9775 25.6165 24.9922 25.6882 24.9922 25.7793V31.5947C24.9922 31.7412 24.9645 31.8454 24.9092 31.9072C24.8538 31.9691 24.7529 32 24.6064 32H24.1377C23.9977 32 23.8545 31.9772 23.708 31.9316C23.5615 31.8828 23.3955 31.7754 23.21 31.6094C23.0244 31.4401 22.8047 31.1781 22.5508 30.8232C22.2969 30.4684 21.9909 29.9834 21.6328 29.3682C21.3301 28.8441 21.0876 28.4274 20.9053 28.1182C20.7262 27.8089 20.5895 27.5762 20.4951 27.4199C20.4007 27.2604 20.3324 27.1497 20.29 27.0879C20.2477 27.0228 20.2119 26.974 20.1826 26.9414V31.7412ZM29.3867 32.1172C28.7747 32.1172 28.2523 32.0374 27.8193 31.8779C27.3896 31.7184 27.0609 31.4385 26.833 31.0381C26.6084 30.6377 26.4961 30.0762 26.4961 29.3535V25.7793C26.4961 25.6849 26.5124 25.6133 26.5449 25.5645C26.6914 25.3496 26.8965 25.1234 27.1602 24.8857C27.209 24.8467 27.2513 24.8271 27.2871 24.8271C27.3262 24.8271 27.3669 24.8467 27.4092 24.8857C27.5524 25.0094 27.6729 25.1283 27.7705 25.2422C27.8682 25.3529 27.9528 25.4603 28.0244 25.5645C28.057 25.6165 28.0732 25.6882 28.0732 25.7793V29.1094C28.0732 29.5749 28.1221 29.9297 28.2197 30.1738C28.3206 30.4147 28.4688 30.5791 28.6641 30.667C28.8594 30.7549 29.1003 30.7988 29.3867 30.7988C29.6797 30.7988 29.9238 30.7549 30.1191 30.667C30.3145 30.5791 30.4609 30.4147 30.5586 30.1738C30.6562 29.9297 30.7051 29.5749 30.7051 29.1094V25.7793C30.7051 25.6849 30.7214 25.6133 30.7539 25.5645C30.9004 25.3496 31.1055 25.1234 31.3691 24.8857C31.418 24.8467 31.4603 24.8271 31.4961 24.8271C31.5352 24.8271 31.5758 24.8467 31.6182 24.8857C31.7614 25.0094 31.8818 25.1283 31.9795 25.2422C32.0771 25.3529 32.1618 25.4603 32.2334 25.5645C32.266 25.6165 32.2822 25.6882 32.2822 25.7793V29.3535C32.2822 30.0762 32.1585 30.6377 31.9111 31.0381C31.6637 31.4385 31.3219 31.7184 30.8857 31.8779C30.4528 32.0374 29.9531 32.1172 29.3867 32.1172Z" fill="black"/>
</svg>
