<svg width="54" height="59" viewBox="0 0 54 59" fill="none" xmlns="http://www.w3.org/2000/svg">
<path d="M27.0035 46.6621C14.8177 41.2884 2.16809 46.3129 2.16809 46.3129L1.03516 17.5258C1.03516 17.5258 16.5416 13.7433 27.0035 19.2643V46.6602V46.6621Z" fill="#FABE00"/>
<path d="M27.0003 47.6932C26.8585 47.6932 26.7167 47.6641 26.5839 47.6059C14.9545 42.4777 2.66681 47.224 2.54315 47.2713C2.23218 47.3949 1.88121 47.3586 1.60116 47.1767C1.32111 46.9949 1.14653 46.6875 1.1338 46.3529L0.000864337 17.5677C-0.0191393 17.0785 0.310012 16.642 0.786463 16.5256C0.948311 16.4856 4.81811 15.5546 10.0409 15.2963C17.1094 14.949 22.976 15.9765 27.4804 18.3551C27.8187 18.5333 28.0296 18.8843 28.0296 19.2661V46.6621C28.0296 47.0112 27.8532 47.3349 27.5623 47.5259C27.3913 47.6368 27.1968 47.6932 26.9985 47.6932H27.0003ZM14.6144 43.1305C18.1115 43.1305 22.0267 43.6342 25.9693 45.1254V19.899C17.3422 15.6964 5.3182 17.7004 2.09579 18.3514L3.13962 44.8836C5.21455 44.2289 9.46078 43.1305 14.6144 43.1305Z" fill="#231815"/>
<path d="M3.81641 12.6753L4.89479 41.7861C4.89479 41.7861 17.8626 38.3218 27.0007 44.0629V14.0247C15.2658 6.98338 5.74767 12.0716 3.81641 12.6753Z" fill="white"/>
<path d="M27.003 45.095C26.812 45.095 26.6211 45.0422 26.4538 44.9367C17.8122 39.5067 5.28626 42.7491 5.16079 42.7836C4.85891 42.8636 4.53522 42.8018 4.28244 42.6163C4.02967 42.4308 3.87691 42.1399 3.86418 41.8253L2.78581 12.7145C2.76944 12.2508 3.06404 11.8307 3.50776 11.6925C3.67142 11.6416 3.95147 11.5306 4.27517 11.4052C7.31754 10.2086 16.5738 6.5679 27.5303 13.1418C27.8413 13.3273 28.0304 13.6637 28.0304 14.0256V44.0639C28.0304 44.4385 27.8268 44.784 27.4976 44.9658C27.343 45.0513 27.1703 45.095 26.9993 45.095H27.003ZM13.7824 39.7049C17.5685 39.7049 21.993 40.2868 25.9719 42.2981V14.6148C16.1137 8.96471 8.08678 12.1216 5.03167 13.3219C4.97893 13.3437 4.9262 13.3637 4.8771 13.3837L5.88092 40.505C7.45575 40.1813 10.3581 39.7067 13.7824 39.7067V39.7049Z" fill="#231815"/>
<path d="M27 46.6622C39.1859 41.2885 51.8355 46.313 51.8355 46.313L52.9684 17.5278C52.9684 17.5278 37.4619 13.7453 27 19.2663V46.6622Z" fill="#FABE00"/>
<path d="M26.9998 47.6931C26.8034 47.6931 26.607 47.6367 26.4361 47.5258C26.1451 47.3348 25.9688 47.0112 25.9688 46.662V19.2661C25.9688 18.8842 26.1797 18.5332 26.5179 18.355C31.0224 15.9782 36.8907 14.9489 43.9575 15.2963C49.1803 15.5527 53.0501 16.4856 53.2119 16.5256C53.6884 16.642 54.0175 17.0784 53.9975 17.5676L52.8646 46.3528C52.8519 46.6875 52.6773 46.9948 52.3972 47.1766C52.1172 47.3585 51.7662 47.3949 51.4552 47.2712C51.3334 47.2221 39.0457 42.4758 27.4163 47.6058C27.2835 47.664 27.1417 47.6931 26.9998 47.6931ZM28.0309 19.8989V45.1253C37.7836 41.4392 47.3781 43.7833 50.8606 44.8835L51.9044 18.3514C48.6802 17.7021 36.6471 15.7 28.0309 19.8989Z" fill="#231815"/>
<path d="M50.1842 12.6753L49.1059 41.7861C49.1059 41.7861 36.138 38.3218 27 44.0629V14.0247C38.7349 6.98338 48.253 12.0716 50.1842 12.6753Z" fill="white"/>
<path d="M26.9998 45.095C26.8289 45.095 26.6561 45.0531 26.5016 44.9658C26.1724 44.784 25.9688 44.4385 25.9688 44.0639V14.0256C25.9688 13.6637 26.1579 13.3273 26.4688 13.1418C37.4254 6.5679 46.6834 10.2086 49.724 11.4052C50.0477 11.5324 50.3259 11.6416 50.4914 11.6925C50.9351 11.8307 51.2316 12.2508 51.2134 12.7145L50.135 41.8253C50.1241 42.138 49.9695 42.429 49.7167 42.6163C49.464 42.8018 49.1403 42.8636 48.8384 42.7836C48.7129 42.7509 36.187 39.5085 27.5472 44.9367C27.3799 45.0422 27.189 45.095 26.998 45.095H26.9998ZM28.0309 14.6148V42.2981C35.6105 38.4646 44.8049 39.8231 48.1219 40.5032L49.1257 13.3819C49.0748 13.3619 49.0239 13.3419 48.9711 13.32C45.9179 12.1198 37.8891 8.96289 28.0309 14.613V14.6148Z" fill="#231815"/>
<path d="M42.4205 7.72975L35.8906 6.29883L31.079 28.2565L37.6089 29.6874L42.4205 7.72975Z" fill="#FEE6A8"/>
<path d="M37.609 30.7167C37.5345 30.7167 37.4617 30.7095 37.389 30.6931L30.8605 29.2619C30.3041 29.1401 29.9531 28.5909 30.0749 28.0344L34.8867 6.07587C34.9449 5.80855 35.1068 5.57578 35.3377 5.42848C35.5687 5.28118 35.8469 5.23026 36.1142 5.29027L42.6427 6.72144C43.1992 6.84328 43.5501 7.39247 43.4283 7.94894L38.6165 29.9075C38.5583 30.1748 38.3965 30.4076 38.1655 30.5549C37.9982 30.6622 37.8054 30.7186 37.609 30.7186V30.7167ZM32.3063 27.4689L36.8216 28.4581L41.1915 8.5145L36.6761 7.52522L32.3063 27.4689Z" fill="#231815"/>
<path d="M38.4439 10.6794C38.3657 10.6794 38.2875 10.6703 38.2093 10.6521C37.7583 10.5466 37.4328 10.152 37.4146 9.69008L37.0673 1.07214C37.0437 0.502949 37.4874 0.0228613 38.0566 0.00103909C38.6276 -0.0244201 39.1059 0.421116 39.1277 0.990311L39.3259 5.88757L41.6882 1.56314C41.9609 1.06305 42.5865 0.879382 43.0866 1.15216C43.5867 1.42494 43.7704 2.05051 43.4976 2.5506L39.3514 10.1429C39.1677 10.4793 38.8167 10.6794 38.4476 10.6794H38.4439Z" fill="#231815"/>
<path d="M11.7461 55.1973C11.7917 55.0215 11.8405 54.849 11.8926 54.6797C11.9479 54.5072 12.0146 54.3151 12.0928 54.1035C12.1611 53.9147 12.2441 53.6982 12.3418 53.4541C12.4395 53.2067 12.542 52.9561 12.6494 52.7021C12.7601 52.4482 12.8675 52.2122 12.9717 51.9941C13.0758 51.776 13.1702 51.6019 13.2549 51.4717C13.359 51.3122 13.4714 51.1934 13.5918 51.1152C13.7155 51.0371 13.8962 50.998 14.1338 50.998H14.7734C14.9427 50.998 15.0843 51.0241 15.1982 51.0762C15.3154 51.125 15.3984 51.2438 15.4473 51.4326C15.4831 51.5726 15.5173 51.7777 15.5498 52.0479C15.5824 52.318 15.61 52.6924 15.6328 53.1709C15.6556 53.6494 15.6735 54.2646 15.6865 55.0166C15.6995 55.7653 15.7061 56.6914 15.7061 57.7949C15.7061 57.8535 15.6865 57.9023 15.6475 57.9414C15.6084 57.9805 15.5612 58 15.5059 58H14.3926C14.3372 58 14.29 57.9805 14.251 57.9414C14.2119 57.9023 14.1924 57.8519 14.1924 57.79C14.1924 56.9307 14.1924 56.2015 14.1924 55.6025C14.1924 55.0036 14.1908 54.5072 14.1875 54.1133C14.1842 53.7194 14.1794 53.4069 14.1729 53.1758C14.1696 52.9414 14.1631 52.7607 14.1533 52.6338H14.124C13.9515 53.0309 13.7676 53.4736 13.5723 53.9619C13.377 54.4469 13.1865 54.9482 13.001 55.4658C12.8154 55.9801 12.6494 56.4831 12.5029 56.9746C12.4606 57.1211 12.4069 57.2236 12.3418 57.2822C12.2799 57.3376 12.1367 57.3652 11.9121 57.3652H11.3506C11.1585 57.3652 11.0299 57.3408 10.9648 57.292C10.903 57.2432 10.8493 57.1374 10.8037 56.9746C10.6963 56.6035 10.5775 56.2113 10.4473 55.7979C10.3171 55.3844 10.182 54.9792 10.042 54.582C9.90527 54.1816 9.77181 53.8138 9.6416 53.4785C9.51465 53.14 9.40072 52.8584 9.2998 52.6338H9.27051C9.24447 53.0179 9.22168 53.485 9.20215 54.0352C9.18262 54.5853 9.16634 55.1826 9.15332 55.8271C9.14355 56.4717 9.13704 57.1292 9.13379 57.7998C9.13379 57.8584 9.11426 57.9072 9.0752 57.9463C9.03613 57.9821 8.98893 58 8.93359 58H7.93262C7.87728 58 7.83008 57.9805 7.79102 57.9414C7.75195 57.9023 7.73242 57.8519 7.73242 57.79C7.73568 56.055 7.76986 54.6699 7.83496 53.6348C7.90332 52.5996 7.97656 51.9062 8.05469 51.5547C8.10677 51.3236 8.19792 51.1738 8.32812 51.1055C8.46159 51.0339 8.61296 50.998 8.78223 50.998H9.57324C9.75228 50.998 9.88249 51.0306 9.96387 51.0957C10.0485 51.1576 10.151 51.2796 10.2715 51.4619C10.3431 51.5693 10.4277 51.7305 10.5254 51.9453C10.6263 52.1602 10.7305 52.3994 10.8379 52.6631C10.9453 52.9235 11.0462 53.1823 11.1406 53.4395C11.2383 53.6934 11.318 53.9147 11.3799 54.1035C11.445 54.2956 11.5052 54.4827 11.5605 54.665C11.6159 54.8441 11.6647 55.0215 11.707 55.1973H11.7461ZM20.2422 57.7412C20.2422 57.8389 20.221 57.9072 20.1787 57.9463C20.1396 57.9821 20.0713 58 19.9736 58H18.9336C18.8359 58 18.766 57.9821 18.7236 57.9463C18.6846 57.9072 18.665 57.8389 18.665 57.7412V55.5391L17.6934 54.4111C17.4622 54.141 17.2669 53.8984 17.1074 53.6836C16.9512 53.4688 16.834 53.2474 16.7559 53.0195C16.6777 52.7884 16.6387 52.5182 16.6387 52.209V51.7793C16.6387 51.6849 16.6549 51.6133 16.6875 51.5645C16.834 51.3496 17.0391 51.1234 17.3027 50.8857C17.3516 50.8467 17.3955 50.8271 17.4346 50.8271C17.4736 50.8271 17.5143 50.8467 17.5566 50.8857C17.6999 51.0094 17.8203 51.1283 17.918 51.2422C18.0156 51.3529 18.1003 51.4603 18.1719 51.5645C18.2044 51.6165 18.2207 51.6882 18.2207 51.7793V52.2041C18.2207 52.4157 18.2826 52.6501 18.4062 52.9072C18.5299 53.1644 18.7383 53.4476 19.0312 53.7568L19.5049 54.2549L19.9688 53.7568C20.2324 53.4736 20.4326 53.2035 20.5693 52.9463C20.7093 52.6891 20.7793 52.4434 20.7793 52.209V51.7793C20.7793 51.6849 20.7956 51.6133 20.8281 51.5645C20.9681 51.3529 21.1667 51.1266 21.4238 50.8857C21.4727 50.8467 21.5133 50.8271 21.5459 50.8271C21.585 50.8271 21.6257 50.8467 21.668 50.8857C21.8047 51.0094 21.9202 51.1283 22.0146 51.2422C22.1123 51.3529 22.1953 51.4603 22.2637 51.5645C22.2962 51.6165 22.3125 51.6882 22.3125 51.7793V52.209C22.3125 52.5671 22.2344 52.9105 22.0781 53.2393C21.9219 53.5648 21.6566 53.9359 21.2822 54.3525L20.2422 55.5098V57.7412ZM26.0381 55.6611C25.9535 55.6611 25.8818 55.64 25.8232 55.5977C25.7614 55.5553 25.6882 55.4951 25.6035 55.417C25.5189 55.3389 25.4245 55.2428 25.3203 55.1289C25.2812 55.0833 25.2617 55.0426 25.2617 55.0068C25.2617 54.971 25.2812 54.9303 25.3203 54.8848C25.5221 54.6569 25.7061 54.4893 25.8721 54.3818C25.9111 54.3558 25.9665 54.3428 26.0381 54.3428C26.2594 54.3428 26.4499 54.2598 26.6094 54.0938C26.7721 53.9277 26.8503 53.6592 26.8438 53.2881C26.8405 52.8877 26.7412 52.6077 26.5459 52.4482C26.3538 52.2887 26.0902 52.209 25.7549 52.209H25.5205C25.3057 52.209 25.1592 52.2546 25.0811 52.3457C25.0029 52.4368 24.9639 52.5931 24.9639 52.8145V57.7412C24.9639 57.8389 24.9427 57.9072 24.9004 57.9463C24.8613 57.9821 24.793 58 24.6953 58H23.6553C23.5576 58 23.4876 57.9821 23.4453 57.9463C23.4062 57.9072 23.3867 57.8389 23.3867 57.7412V52.3066C23.3867 51.9811 23.416 51.724 23.4746 51.5352C23.5365 51.3431 23.6536 51.2064 23.8262 51.125C24.002 51.0404 24.2575 50.998 24.5928 50.998H25.7549C26.6891 50.998 27.3809 51.182 27.8301 51.5498C28.2793 51.9144 28.5039 52.4743 28.5039 53.2295C28.5039 53.7959 28.3851 54.2581 28.1475 54.6162C27.9131 54.9743 27.6071 55.238 27.2295 55.4072C26.8551 55.5765 26.458 55.6611 26.0381 55.6611ZM32.9082 51.3838C33.0872 51.6344 33.2695 51.9583 33.4551 52.3555C33.6439 52.7493 33.8262 53.1823 34.002 53.6543C34.1777 54.1263 34.3356 54.6097 34.4756 55.1045C34.6188 55.596 34.736 56.0697 34.8271 56.5254C34.9183 56.9811 34.9704 57.3864 34.9834 57.7412C34.9867 57.9137 34.9085 58 34.749 58H33.5674C33.4144 58 33.3346 57.9235 33.3281 57.7705C33.3151 57.4059 33.2565 56.9632 33.1523 56.4424H30.4863C30.3952 56.9502 30.3431 57.3929 30.3301 57.7705C30.3236 57.9235 30.2406 58 30.0811 58H28.9238C28.8652 58 28.8164 57.9837 28.7773 57.9512C28.7383 57.9154 28.7204 57.8551 28.7236 57.7705C28.7399 57.4092 28.792 56.999 28.8799 56.54C28.971 56.0778 29.0882 55.5993 29.2314 55.1045C29.3747 54.6097 29.5342 54.1263 29.71 53.6543C29.8857 53.179 30.068 52.7445 30.2568 52.3506C30.4456 51.9567 30.6296 51.6344 30.8086 51.3838C30.903 51.2503 31.0023 51.1527 31.1064 51.0908C31.2139 51.029 31.3457 50.998 31.502 50.998H32.2051C32.3646 50.998 32.498 51.029 32.6055 51.0908C32.7129 51.1527 32.8138 51.2503 32.9082 51.3838ZM31.8047 52.541C31.5898 52.8828 31.3929 53.2913 31.2139 53.7666C31.0348 54.2419 30.8802 54.7301 30.75 55.2314H32.8691C32.7324 54.7301 32.5745 54.2419 32.3955 53.7666C32.2165 53.2913 32.0293 52.8828 31.834 52.541H31.8047ZM41.707 57.5215C41.6289 57.5768 41.4889 57.6533 41.2871 57.751C41.0885 57.8454 40.8135 57.93 40.4619 58.0049C40.1104 58.0798 39.6693 58.1172 39.1387 58.1172C38.4258 58.1172 37.8105 58 37.293 57.7656C36.7786 57.528 36.3831 57.1455 36.1064 56.6182C35.8298 56.0876 35.6914 55.3861 35.6914 54.5137C35.6914 53.3516 35.9893 52.4564 36.585 51.8281C37.1807 51.1966 38.0107 50.8809 39.0752 50.8809C39.583 50.8809 39.9883 50.9297 40.291 51.0273C40.5938 51.125 40.8232 51.2389 40.9795 51.3691C41.1357 51.4993 41.2448 51.6133 41.3066 51.7109C41.3294 51.7467 41.3457 51.7793 41.3555 51.8086C41.3652 51.8346 41.3717 51.877 41.375 51.9355C41.3848 52.0137 41.3864 52.1276 41.3799 52.2773C41.3766 52.4271 41.3652 52.5589 41.3457 52.6729C41.3327 52.7445 41.3115 52.7917 41.2822 52.8145C41.2692 52.8275 41.2464 52.8389 41.2139 52.8486C41.1813 52.8584 41.1325 52.8633 41.0674 52.8633C40.9632 52.8633 40.8411 52.86 40.7012 52.8535C40.5645 52.8438 40.4635 52.834 40.3984 52.8242C40.3203 52.8112 40.2633 52.7933 40.2275 52.7705C40.195 52.7445 40.1592 52.7054 40.1201 52.6533C40.0811 52.6012 40.0273 52.541 39.959 52.4727C39.8906 52.401 39.7865 52.3376 39.6465 52.2822C39.5098 52.2269 39.3193 52.1992 39.0752 52.1992C38.5381 52.1992 38.1165 52.3945 37.8105 52.7852C37.5046 53.1725 37.3516 53.7308 37.3516 54.46C37.3516 55.2249 37.5094 55.806 37.8252 56.2031C38.1442 56.6003 38.6016 56.7988 39.1973 56.7988C39.4967 56.7988 39.7165 56.7777 39.8564 56.7354C39.9997 56.6898 40.0908 56.6556 40.1299 56.6328V55.1143C40.1299 55.0199 40.1462 54.9482 40.1787 54.8994C40.3252 54.6846 40.5303 54.4583 40.7939 54.2207C40.8428 54.1816 40.8851 54.1621 40.9209 54.1621C40.96 54.1621 41.0007 54.1816 41.043 54.2207C41.1862 54.3444 41.3066 54.4632 41.4043 54.5771C41.502 54.6878 41.5866 54.7952 41.6582 54.8994C41.6908 54.9515 41.707 55.0231 41.707 55.1143V57.5215ZM44.2314 58C43.8962 58 43.6406 57.9577 43.4648 57.873C43.2923 57.7884 43.1751 57.6501 43.1133 57.458C43.0547 57.266 43.0254 57.0104 43.0254 56.6914V52.3066C43.0254 51.9811 43.0547 51.724 43.1133 51.5352C43.1751 51.3431 43.2923 51.2064 43.4648 51.125C43.6406 51.0404 43.8962 50.998 44.2314 50.998H46.5264C46.6045 50.998 46.6631 51.0111 46.7021 51.0371C46.7868 51.0957 46.8747 51.1657 46.9658 51.2471C47.057 51.3285 47.153 51.4261 47.2539 51.54C47.2865 51.5824 47.3027 51.6165 47.3027 51.6426C47.3027 51.6719 47.2865 51.7044 47.2539 51.7402C47.153 51.8542 47.057 51.9518 46.9658 52.0332C46.8747 52.1146 46.7868 52.1846 46.7021 52.2432C46.6566 52.2692 46.598 52.2822 46.5264 52.2822H45.1592C44.9443 52.2822 44.7979 52.3278 44.7197 52.4189C44.6416 52.5101 44.6025 52.6663 44.6025 52.8877V53.835H46.3555C46.4336 53.835 46.4922 53.848 46.5312 53.874C46.6159 53.9326 46.7038 54.0026 46.7949 54.084C46.8861 54.1654 46.9821 54.263 47.083 54.377C47.1156 54.4193 47.1318 54.4535 47.1318 54.4795C47.1318 54.5088 47.1156 54.5413 47.083 54.5771C46.9821 54.6911 46.8861 54.7887 46.7949 54.8701C46.7038 54.9515 46.6159 55.0215 46.5312 55.0801C46.4857 55.1061 46.4271 55.1191 46.3555 55.1191H44.6025V56.1055C44.6025 56.3236 44.6416 56.4798 44.7197 56.5742C44.7979 56.6686 44.9443 56.7158 45.1592 56.7158H46.6875C46.7656 56.7158 46.8242 56.7288 46.8633 56.7549C46.9479 56.8135 47.0358 56.8835 47.127 56.9648C47.2181 57.0462 47.3141 57.1439 47.415 57.2578C47.4476 57.3001 47.4639 57.3343 47.4639 57.3604C47.4639 57.3896 47.4476 57.4222 47.415 57.458C47.3141 57.5719 47.2181 57.6696 47.127 57.751C47.0358 57.8324 46.9479 57.9023 46.8633 57.9609C46.8177 57.987 46.7591 58 46.6875 58H44.2314Z" fill="black"/>
</svg>
