<svg width="44" height="53" viewBox="0 0 44 53" fill="none" xmlns="http://www.w3.org/2000/svg">
<path d="M2.3584 51.8408C2.3584 51.9385 2.33724 52.0068 2.29492 52.0459C2.25586 52.0817 2.1875 52.0996 2.08984 52.0996H1.0498C0.952148 52.0996 0.882161 52.0817 0.839844 52.0459C0.800781 52.0068 0.78125 51.9385 0.78125 51.8408V46.4062C0.78125 46.0807 0.810547 45.8236 0.869141 45.6348C0.93099 45.4427 1.04818 45.306 1.2207 45.2246C1.39648 45.14 1.65202 45.0977 1.9873 45.0977H3.28125C4.98047 45.0977 5.83008 45.7503 5.83008 47.0557C5.83008 47.4528 5.76335 47.7783 5.62988 48.0322C5.49642 48.2861 5.3304 48.4847 5.13184 48.6279C4.93327 48.7679 4.73796 48.8737 4.5459 48.9453V48.9697C4.764 49.113 4.9707 49.3018 5.16602 49.5361C5.36458 49.7673 5.54362 50.0195 5.70312 50.293C5.86263 50.5632 5.99772 50.8317 6.1084 51.0986C6.21908 51.3623 6.29557 51.5983 6.33789 51.8066C6.35742 51.9043 6.35742 51.9775 6.33789 52.0264C6.32161 52.0752 6.26628 52.0996 6.17188 52.0996H5.04395C4.95931 52.0996 4.88444 52.0817 4.81934 52.0459C4.75749 52.0101 4.70052 51.9271 4.64844 51.7969C4.40104 51.1751 4.11621 50.6689 3.79395 50.2783C3.47168 49.8844 3.16081 49.5687 2.86133 49.3311C2.66927 49.1781 2.57324 49.069 2.57324 49.0039C2.57324 48.9518 2.60417 48.8802 2.66602 48.7891C2.70508 48.7337 2.76204 48.667 2.83691 48.5889C2.91178 48.5107 2.97689 48.4521 3.03223 48.4131C3.08757 48.374 3.13151 48.3496 3.16406 48.3398C3.19987 48.3301 3.25358 48.3252 3.3252 48.3252C3.56608 48.3252 3.76628 48.2422 3.92578 48.0762C4.08854 47.9102 4.16992 47.6481 4.16992 47.29C4.16992 46.9515 4.08366 46.7041 3.91113 46.5479C3.74186 46.3883 3.50749 46.3086 3.20801 46.3086H2.91504C2.7002 46.3086 2.55371 46.3542 2.47559 46.4453C2.39746 46.5365 2.3584 46.6927 2.3584 46.9141V51.8408ZM9.63379 52.2217C9.08366 52.2217 8.60514 52.1338 8.19824 51.958C7.79134 51.779 7.47559 51.5023 7.25098 51.1279C7.02637 50.7536 6.91406 50.2702 6.91406 49.6777C6.91406 48.7891 7.14193 48.1169 7.59766 47.6611C8.05339 47.2054 8.65885 46.9775 9.41406 46.9775C9.9056 46.9775 10.3206 47.0654 10.6592 47.2412C11.001 47.417 11.2598 47.6595 11.4355 47.9688C11.6146 48.278 11.7041 48.6312 11.7041 49.0283C11.7041 49.4157 11.6048 49.6859 11.4062 49.8389C11.2077 49.9919 10.918 50.0684 10.5371 50.0684H8.44238C8.46842 50.4036 8.59049 50.6592 8.80859 50.835C9.02995 51.0107 9.32943 51.0986 9.70703 51.0986C10.0065 51.0986 10.2458 51.0547 10.4248 50.9668C10.6071 50.8757 10.734 50.804 10.8057 50.752C10.8675 50.7064 10.9375 50.6852 11.0156 50.6885C11.0775 50.6885 11.1654 50.7015 11.2793 50.7275C11.3965 50.7503 11.512 50.7943 11.626 50.8594C11.7074 50.9017 11.748 50.9603 11.748 51.0352C11.748 51.0775 11.7399 51.1377 11.7236 51.2158C11.7139 51.2614 11.6976 51.3281 11.6748 51.416C11.652 51.5007 11.6227 51.5804 11.5869 51.6553C11.5674 51.6911 11.5365 51.7253 11.4941 51.7578C11.429 51.8034 11.3232 51.8636 11.1768 51.9385C11.0335 52.0133 10.8366 52.0785 10.5859 52.1338C10.3353 52.1924 10.0179 52.2217 9.63379 52.2217ZM8.43262 49.0674H10.0244C10.1904 49.0674 10.2734 48.9909 10.2734 48.8379C10.2734 48.6068 10.2002 48.4131 10.0537 48.2568C9.91048 48.0973 9.69401 48.0176 9.4043 48.0176C9.08854 48.0176 8.85579 48.1185 8.70605 48.3203C8.55957 48.5221 8.46842 48.7712 8.43262 49.0674ZM14.1699 52.2217C13.8216 52.2217 13.5319 52.1924 13.3008 52.1338C13.0729 52.0752 12.889 52.0052 12.749 51.9238C12.6123 51.8392 12.5049 51.7627 12.4268 51.6943C12.3682 51.639 12.3617 51.5771 12.4072 51.5088L12.9053 50.7715C12.9769 50.6673 13.0583 50.6608 13.1494 50.752C13.2438 50.8431 13.3708 50.9326 13.5303 51.0205C13.693 51.1051 13.8949 51.1475 14.1357 51.1475C14.3506 51.1475 14.5264 51.1117 14.6631 51.04C14.8031 50.9652 14.873 50.8577 14.873 50.7178C14.873 50.6201 14.8421 50.5404 14.7803 50.4785C14.7184 50.4167 14.6094 50.3532 14.4531 50.2881C14.2969 50.223 14.0788 50.14 13.7988 50.0391C13.3854 49.8893 13.0729 49.7087 12.8613 49.4971C12.6497 49.2855 12.5439 48.9762 12.5439 48.5693C12.5439 48.195 12.6465 47.8906 12.8516 47.6562C13.0599 47.4219 13.3252 47.251 13.6475 47.1436C13.973 47.0329 14.3115 46.9775 14.6631 46.9775C15.109 46.9775 15.4215 47.0199 15.6006 47.1045C15.7829 47.1859 15.9001 47.2493 15.9521 47.2949C16.001 47.3372 16.0352 47.3861 16.0547 47.4414C16.097 47.5684 16.1296 47.736 16.1523 47.9443C16.1654 48.0648 16.1344 48.1445 16.0596 48.1836C16.0205 48.2064 15.9587 48.2308 15.874 48.2568C15.7894 48.2829 15.7048 48.3057 15.6201 48.3252C15.5355 48.3447 15.472 48.3545 15.4297 48.3545C15.4167 48.3545 15.402 48.3512 15.3857 48.3447C15.3727 48.335 15.3483 48.3138 15.3125 48.2812C15.2702 48.2389 15.1969 48.1901 15.0928 48.1348C14.9919 48.0794 14.8519 48.0518 14.6729 48.0518C14.4971 48.0518 14.349 48.0811 14.2285 48.1396C14.1113 48.195 14.0527 48.2943 14.0527 48.4375C14.0527 48.5938 14.1276 48.7109 14.2773 48.7891C14.4303 48.8672 14.681 48.9681 15.0293 49.0918C15.3027 49.1862 15.5404 49.2904 15.7422 49.4043C15.9473 49.515 16.1051 49.6615 16.2158 49.8438C16.3265 50.0228 16.3818 50.2653 16.3818 50.5713C16.3818 50.9684 16.2728 51.2891 16.0547 51.5332C15.8398 51.7741 15.5632 51.9499 15.2246 52.0605C14.8893 52.168 14.5378 52.2217 14.1699 52.2217ZM19.7363 52.2217C18.916 52.2217 18.2666 52.0036 17.7881 51.5674C17.3096 51.1312 17.0703 50.4818 17.0703 49.6191C17.0703 48.7337 17.3177 48.0729 17.8125 47.6367C18.3105 47.1973 18.9746 46.9775 19.8047 46.9775C20.6055 46.9775 21.2467 47.194 21.7285 47.627C22.2103 48.0566 22.4512 48.6914 22.4512 49.5312C22.4512 50.4069 22.2103 51.0742 21.7285 51.5332C21.2467 51.9922 20.5827 52.2217 19.7363 52.2217ZM19.7852 51.04C20.1432 51.04 20.4134 50.9294 20.5957 50.708C20.778 50.4834 20.8691 50.1009 20.8691 49.5605C20.8691 49.0462 20.7764 48.6849 20.5908 48.4766C20.4085 48.265 20.1367 48.1592 19.7754 48.1592C19.4271 48.1592 19.152 48.2731 18.9502 48.501C18.7516 48.7256 18.6523 49.0918 18.6523 49.5996C18.6523 50.1302 18.7467 50.5029 18.9355 50.7178C19.1276 50.9326 19.4108 51.04 19.7852 51.04ZM25.2441 52.2217C24.0853 52.2217 23.5059 51.5202 23.5059 50.1172L23.501 47.6367C23.501 47.5586 23.5173 47.4984 23.5498 47.4561C23.6865 47.277 23.8867 47.0833 24.1504 46.875C24.196 46.8424 24.2367 46.8262 24.2725 46.8262C24.3148 46.8262 24.3555 46.8424 24.3945 46.875C24.5345 46.9824 24.6517 47.0833 24.7461 47.1777C24.8438 47.2721 24.9268 47.3649 24.9951 47.4561C25.0277 47.4984 25.0439 47.5586 25.0439 47.6367V49.9805C25.0439 50.6868 25.3239 51.04 25.8838 51.04C26.1605 51.04 26.3818 50.944 26.5479 50.752C26.7139 50.5566 26.7969 50.293 26.7969 49.9609V47.6367C26.7969 47.5586 26.8132 47.4984 26.8457 47.4561C26.9824 47.277 27.1826 47.0833 27.4463 46.875C27.4919 46.8424 27.5326 46.8262 27.5684 46.8262C27.6107 46.8262 27.6514 46.8424 27.6904 46.875C27.8304 46.9824 27.9476 47.0833 28.042 47.1777C28.1396 47.2721 28.2227 47.3649 28.291 47.4561C28.3236 47.4984 28.3398 47.5586 28.3398 47.6367V51.875C28.3398 51.9368 28.3187 51.9906 28.2764 52.0361C28.234 52.0785 28.1803 52.0996 28.1152 52.0996H27.3828C27.3307 52.0996 27.2835 52.0931 27.2412 52.0801C27.2021 52.0638 27.1647 52.0345 27.1289 51.9922L26.8262 51.6016H26.792C26.7399 51.6764 26.6585 51.7627 26.5479 51.8604C26.4404 51.958 26.2826 52.0426 26.0742 52.1143C25.8691 52.1859 25.5924 52.2217 25.2441 52.2217ZM31.2061 48.0273H31.2256C31.4697 47.3503 31.9092 47.0117 32.5439 47.0117C32.6253 47.0117 32.6921 47.0166 32.7441 47.0264C32.7962 47.0329 32.832 47.0394 32.8516 47.0459C32.9004 47.0622 32.9248 47.0996 32.9248 47.1582V48.335C32.9248 48.4359 32.8662 48.4635 32.749 48.418C32.71 48.4017 32.653 48.3854 32.5781 48.3691C32.5065 48.3496 32.4056 48.3398 32.2754 48.3398C31.9401 48.3398 31.6781 48.4635 31.4893 48.7109C31.3005 48.9551 31.2061 49.2887 31.2061 49.7119V51.8408C31.2061 51.9385 31.1849 52.0068 31.1426 52.0459C31.1035 52.0817 31.0352 52.0996 30.9375 52.0996H29.9316C29.834 52.0996 29.764 52.0817 29.7217 52.0459C29.6826 52.0068 29.6631 51.9385 29.6631 51.8408V47.749C29.6631 47.6709 29.6794 47.6107 29.7119 47.5684C29.7803 47.4772 29.8617 47.3844 29.9561 47.29C30.0537 47.1956 30.1725 47.0947 30.3125 46.9873C30.3385 46.9678 30.3646 46.9548 30.3906 46.9482C30.4167 46.9417 30.4395 46.9385 30.459 46.9385C30.5046 46.9385 30.5501 46.9548 30.5957 46.9873C30.8659 47.1989 31.0547 47.3796 31.1621 47.5293C31.1914 47.5684 31.2061 47.6139 31.2061 47.666V48.0273ZM36.1475 46.9775C36.5348 46.9775 36.8164 47.0101 36.9922 47.0752C37.168 47.137 37.2786 47.1859 37.3242 47.2217C37.3958 47.2673 37.4512 47.3258 37.4902 47.3975C37.513 47.4333 37.5391 47.4951 37.5684 47.583C37.5977 47.6709 37.6188 47.7669 37.6318 47.8711C37.6481 47.9525 37.6497 48.0111 37.6367 48.0469C37.6237 48.0794 37.583 48.1201 37.5146 48.1689C37.4365 48.221 37.3503 48.2682 37.2559 48.3105C37.1647 48.3496 37.0898 48.3773 37.0312 48.3936C36.9824 48.4066 36.945 48.4098 36.9189 48.4033C36.8929 48.3968 36.8571 48.3773 36.8115 48.3447C36.7594 48.3089 36.6862 48.2699 36.5918 48.2275C36.4974 48.182 36.3672 48.1592 36.2012 48.1592C35.9896 48.1592 35.7878 48.2113 35.5957 48.3154C35.4069 48.4196 35.2523 48.5758 35.1318 48.7842C35.0146 48.9925 34.9561 49.2529 34.9561 49.5654C34.9561 50.0342 35.0781 50.3971 35.3223 50.6543C35.5697 50.9115 35.9001 51.04 36.3135 51.04C36.5251 51.04 36.7008 51.0189 36.8408 50.9766C36.9808 50.931 37.0915 50.8854 37.1729 50.8398C37.238 50.804 37.2868 50.7959 37.3193 50.8154C37.3551 50.8317 37.3828 50.8626 37.4023 50.9082L37.7588 51.7139C37.7946 51.7985 37.7751 51.8587 37.7002 51.8945C37.5798 51.9564 37.3812 52.0264 37.1045 52.1045C36.8278 52.1826 36.486 52.2217 36.0791 52.2217C35.262 52.2217 34.6094 52.0052 34.1211 51.5723C33.6328 51.1361 33.3887 50.485 33.3887 49.6191C33.3887 49.0658 33.501 48.5921 33.7256 48.1982C33.9502 47.8044 34.2692 47.5033 34.6826 47.2949C35.096 47.0833 35.5843 46.9775 36.1475 46.9775ZM41.0107 52.2217C40.4606 52.2217 39.9821 52.1338 39.5752 51.958C39.1683 51.779 38.8525 51.5023 38.6279 51.1279C38.4033 50.7536 38.291 50.2702 38.291 49.6777C38.291 48.7891 38.5189 48.1169 38.9746 47.6611C39.4303 47.2054 40.0358 46.9775 40.791 46.9775C41.2826 46.9775 41.6976 47.0654 42.0361 47.2412C42.3779 47.417 42.6367 47.6595 42.8125 47.9688C42.9915 48.278 43.0811 48.6312 43.0811 49.0283C43.0811 49.4157 42.9818 49.6859 42.7832 49.8389C42.5846 49.9919 42.2949 50.0684 41.9141 50.0684H39.8193C39.8454 50.4036 39.9674 50.6592 40.1855 50.835C40.4069 51.0107 40.7064 51.0986 41.084 51.0986C41.3835 51.0986 41.6227 51.0547 41.8018 50.9668C41.984 50.8757 42.111 50.804 42.1826 50.752C42.2445 50.7064 42.3145 50.6852 42.3926 50.6885C42.4544 50.6885 42.5423 50.7015 42.6562 50.7275C42.7734 50.7503 42.889 50.7943 43.0029 50.8594C43.0843 50.9017 43.125 50.9603 43.125 51.0352C43.125 51.0775 43.1169 51.1377 43.1006 51.2158C43.0908 51.2614 43.0745 51.3281 43.0518 51.416C43.029 51.5007 42.9997 51.5804 42.9639 51.6553C42.9443 51.6911 42.9134 51.7253 42.8711 51.7578C42.806 51.8034 42.7002 51.8636 42.5537 51.9385C42.4105 52.0133 42.2135 52.0785 41.9629 52.1338C41.7122 52.1924 41.3949 52.2217 41.0107 52.2217ZM39.8096 49.0674H41.4014C41.5674 49.0674 41.6504 48.9909 41.6504 48.8379C41.6504 48.6068 41.5771 48.4131 41.4307 48.2568C41.2874 48.0973 41.071 48.0176 40.7812 48.0176C40.4655 48.0176 40.2327 48.1185 40.083 48.3203C39.9365 48.5221 39.8454 48.7712 39.8096 49.0674Z" fill="black"/>
<path d="M35.9518 1.76953H8.0504C6.23843 1.76953 4.76953 3.23843 4.76953 5.0504V8.64343C4.76953 10.4554 6.23843 11.9243 8.0504 11.9243H35.9518C37.7638 11.9243 39.2327 10.4554 39.2327 8.64343V5.0504C39.2327 3.23843 37.7638 1.76953 35.9518 1.76953Z" fill="white"/>
<path d="M35.9523 13.6947H8.05085C5.26633 13.6947 3 11.4284 3 8.64388V5.05397C3 2.26633 5.26633 0 8.05085 0H35.9492C38.7337 0 41 2.26633 41 5.05085V8.64076C41 11.4253 38.7337 13.6916 35.9492 13.6916L35.9523 13.6947ZM8.05085 3.53997C7.21737 3.53997 6.53684 4.21737 6.53684 5.05397V8.64388C6.53684 9.47737 7.21424 10.1548 8.05085 10.1548H35.9492C36.7826 10.1548 37.46 9.47737 37.46 8.64388V5.05397C37.46 4.22049 36.7826 3.53997 35.9492 3.53997H8.05085Z" fill="#836504"/>
<path d="M35.9518 16.457H8.0504C6.23843 16.457 4.76953 17.9259 4.76953 19.7379V23.3309C4.76953 25.1429 6.23843 26.6118 8.0504 26.6118H35.9518C37.7638 26.6118 39.2327 25.1429 39.2327 23.3309V19.7379C39.2327 17.9259 37.7638 16.457 35.9518 16.457Z" fill="white"/>
<path d="M35.9523 28.3811H8.05085C5.26633 28.3811 3 26.1147 3 23.3302V19.7403C3 16.9558 5.26633 14.6895 8.05085 14.6895H35.9492C38.7337 14.6895 41 16.9558 41 19.7403V23.3302C41 26.1147 38.7337 28.3811 35.9492 28.3811H35.9523ZM8.05085 18.2263C7.21737 18.2263 6.53684 18.9037 6.53684 19.7403V23.3302C6.53684 24.1637 7.21424 24.8442 8.05085 24.8442H35.9492C36.7826 24.8442 37.46 24.1668 37.46 23.3302V19.7403C37.46 18.9068 36.7826 18.2263 35.9492 18.2263H8.05085Z" fill="#231815"/>
<path d="M35.9518 31.1445H8.0504C6.23843 31.1445 4.76953 32.6134 4.76953 34.4254V38.0184C4.76953 39.8304 6.23843 41.2993 8.0504 41.2993H35.9518C37.7638 41.2993 39.2327 39.8304 39.2327 38.0184V34.4254C39.2327 32.6134 37.7638 31.1445 35.9518 31.1445Z" fill="white"/>
<path d="M35.9523 43.0686H8.05085C5.26633 43.0686 3 40.8022 3 38.0177V34.4278C3 31.6433 5.26633 29.377 8.05085 29.377H35.9492C38.7337 29.377 41 31.6433 41 34.4278V38.0177C41 40.8022 38.7337 43.0686 35.9492 43.0686H35.9523ZM8.05085 32.9138C7.21737 32.9138 6.53684 33.5912 6.53684 34.4247V38.0146C6.53684 38.8481 7.21424 39.5286 8.05085 39.5286H35.9492C36.7826 39.5286 37.46 38.8512 37.46 38.0146V34.4247C37.46 33.5912 36.7826 32.9138 35.9492 32.9138H8.05085Z" fill="#501B0D"/>
<path d="M32.4361 8.1749H34.462C35.1956 8.1749 35.7887 7.58178 35.7887 6.84819C35.7887 6.1146 35.1956 5.52148 34.462 5.52148H32.4361C31.7025 5.52148 31.1094 6.1146 31.1094 6.84819C31.1094 7.58178 31.7025 8.1749 32.4361 8.1749Z" fill="#231815"/>
<path d="M34.4581 20.2051H32.4322C31.6986 20.2051 31.1055 20.7982 31.1055 21.5318C31.1055 22.2654 31.6986 22.8585 32.4322 22.8585H34.4581C35.1917 22.8585 35.7848 22.2654 35.7848 21.5318C35.7848 20.7982 35.1917 20.2051 34.4581 20.2051Z" fill="#231815"/>
<path d="M34.4581 34.8945H32.4322C31.6986 34.8945 31.1055 35.4876 31.1055 36.2212C31.1055 36.9548 31.6986 37.5479 32.4322 37.5479H34.4581C35.1917 37.5479 35.7848 36.9548 35.7848 36.2212C35.7848 35.4876 35.1917 34.8945 34.4581 34.8945Z" fill="#231815"/>
</svg>
