<svg width="43" height="55" viewBox="0 0 43 55" fill="none" xmlns="http://www.w3.org/2000/svg">
<path d="M10.4395 52.1172C10.026 52.1172 9.68262 52.0798 9.40918 52.0049C9.139 51.93 8.9209 51.8372 8.75488 51.7266C8.59212 51.6126 8.4668 51.5003 8.37891 51.3896C8.34961 51.3473 8.32357 51.3066 8.30078 51.2676C8.27799 51.2285 8.26172 51.1846 8.25195 51.1357C8.23893 51.0706 8.22591 50.986 8.21289 50.8818C8.19987 50.7744 8.19824 50.6507 8.20801 50.5107C8.21126 50.4521 8.22266 50.4115 8.24219 50.3887C8.26497 50.3626 8.30241 50.3431 8.35449 50.3301C8.44889 50.3073 8.57096 50.2878 8.7207 50.2715C8.8737 50.252 8.98275 50.2422 9.04785 50.2422C9.11621 50.2422 9.17155 50.2552 9.21387 50.2812C9.25618 50.3073 9.30664 50.3512 9.36523 50.4131C9.43034 50.4814 9.54264 50.5693 9.70215 50.6768C9.86165 50.7809 10.1074 50.833 10.4395 50.833C10.7585 50.833 10.9993 50.7663 11.1621 50.6328C11.3249 50.4993 11.4062 50.3138 11.4062 50.0762C11.4062 49.9492 11.3672 49.8304 11.2891 49.7197C11.2142 49.6058 11.0758 49.4935 10.874 49.3828C10.6722 49.2689 10.3841 49.1501 10.0098 49.0264C9.39128 48.818 8.94531 48.5592 8.67188 48.25C8.39844 47.9408 8.26172 47.5111 8.26172 46.9609C8.26172 46.5052 8.3724 46.1243 8.59375 45.8184C8.8151 45.5124 9.12109 45.2812 9.51172 45.125C9.90234 44.9688 10.3532 44.8906 10.8643 44.8906C11.2581 44.8906 11.5837 44.9378 11.8408 45.0322C12.1012 45.1234 12.3031 45.2275 12.4463 45.3447C12.5895 45.4587 12.6823 45.5514 12.7246 45.623C12.7507 45.6654 12.7669 45.6979 12.7734 45.7207C12.7832 45.7402 12.7897 45.7679 12.793 45.8037C12.8027 45.9046 12.806 46.0169 12.8027 46.1406C12.7995 46.2643 12.7881 46.4043 12.7686 46.5605C12.7588 46.6126 12.7409 46.6484 12.7148 46.668C12.6921 46.6842 12.6562 46.6924 12.6074 46.6924C12.2917 46.6989 12.0475 46.6826 11.875 46.6436C11.8066 46.6273 11.7611 46.611 11.7383 46.5947C11.7155 46.5785 11.6862 46.5524 11.6504 46.5166C11.5983 46.4548 11.5153 46.3831 11.4014 46.3018C11.2907 46.2171 11.1117 46.1748 10.8643 46.1748C10.5225 46.1748 10.2799 46.2529 10.1367 46.4092C9.99349 46.5622 9.92188 46.7347 9.92188 46.9268C9.92188 47.1546 10.0277 47.3337 10.2393 47.4639C10.4508 47.5908 10.7845 47.7357 11.2402 47.8984C11.6211 48.0319 11.9482 48.1768 12.2217 48.333C12.4951 48.4893 12.7035 48.6895 12.8467 48.9336C12.9932 49.1777 13.0664 49.5 13.0664 49.9004C13.0664 50.3984 12.9508 50.8118 12.7197 51.1406C12.4919 51.4694 12.1794 51.7152 11.7822 51.8779C11.3883 52.0374 10.9408 52.1172 10.4395 52.1172ZM16.5674 52.1221C16.0173 52.1221 15.5387 52.0342 15.1318 51.8584C14.7249 51.6794 14.4092 51.4027 14.1846 51.0283C13.96 50.654 13.8477 50.1706 13.8477 49.5781C13.8477 48.6895 14.0755 48.0173 14.5312 47.5615C14.987 47.1058 15.5924 46.8779 16.3477 46.8779C16.8392 46.8779 17.2542 46.9658 17.5928 47.1416C17.9346 47.3174 18.1934 47.5599 18.3691 47.8691C18.5482 48.1784 18.6377 48.5316 18.6377 48.9287C18.6377 49.3161 18.5384 49.5863 18.3398 49.7393C18.1413 49.8923 17.8516 49.9688 17.4707 49.9688H15.376C15.402 50.304 15.5241 50.5596 15.7422 50.7354C15.9635 50.9111 16.263 50.999 16.6406 50.999C16.9401 50.999 17.1794 50.9551 17.3584 50.8672C17.5407 50.776 17.6676 50.7044 17.7393 50.6523C17.8011 50.6068 17.8711 50.5856 17.9492 50.5889C18.0111 50.5889 18.099 50.6019 18.2129 50.6279C18.3301 50.6507 18.4456 50.6947 18.5596 50.7598C18.641 50.8021 18.6816 50.8607 18.6816 50.9355C18.6816 50.9779 18.6735 51.0381 18.6572 51.1162C18.6475 51.1618 18.6312 51.2285 18.6084 51.3164C18.5856 51.401 18.5563 51.4808 18.5205 51.5557C18.501 51.5915 18.4701 51.6257 18.4277 51.6582C18.3626 51.7038 18.2568 51.764 18.1104 51.8389C17.9671 51.9137 17.7702 51.9788 17.5195 52.0342C17.2689 52.0928 16.9515 52.1221 16.5674 52.1221ZM15.3662 48.9678H16.958C17.124 48.9678 17.207 48.8913 17.207 48.7383C17.207 48.5072 17.1338 48.3135 16.9873 48.1572C16.8441 47.9977 16.6276 47.918 16.3379 47.918C16.0221 47.918 15.7894 48.0189 15.6396 48.2207C15.4932 48.4225 15.402 48.6715 15.3662 48.9678ZM21.6406 52.1221C20.5534 52.1221 20.0098 51.5573 20.0098 50.4277V48.1377H19.458C19.3604 48.1377 19.292 48.1182 19.2529 48.0791C19.2171 48.0368 19.1992 47.9668 19.1992 47.8691V47.2686C19.1992 47.1709 19.2171 47.1025 19.2529 47.0635C19.292 47.0212 19.3604 47 19.458 47H20.0098V46.2139C20.0098 46.1357 20.026 46.0755 20.0586 46.0332C20.1953 45.8542 20.3955 45.6605 20.6592 45.4521C20.7048 45.4196 20.7454 45.4033 20.7812 45.4033C20.8203 45.4033 20.8594 45.4196 20.8984 45.4521C21.0384 45.5596 21.1556 45.6605 21.25 45.7549C21.3477 45.8493 21.4307 45.9421 21.499 46.0332C21.5316 46.0755 21.5479 46.1357 21.5479 46.2139V47H22.4121C22.5098 47 22.5765 47.0212 22.6123 47.0635C22.6514 47.1025 22.6709 47.1709 22.6709 47.2686V47.8691C22.6709 47.9668 22.6514 48.0368 22.6123 48.0791C22.5765 48.1182 22.5098 48.1377 22.4121 48.1377H21.5479V50.1592C21.5479 50.68 21.7367 50.9404 22.1143 50.9404C22.1729 50.9404 22.2266 50.9355 22.2754 50.9258C22.3242 50.9128 22.3665 50.8997 22.4023 50.8867C22.4707 50.8607 22.5179 50.8509 22.5439 50.8574C22.5732 50.8639 22.5993 50.8997 22.6221 50.9648L22.9053 51.7217C22.9346 51.8031 22.915 51.8617 22.8467 51.8975C22.7979 51.9202 22.679 51.9626 22.4902 52.0244C22.3047 52.0895 22.0215 52.1221 21.6406 52.1221ZM25.3711 52.1221C24.2122 52.1221 23.6328 51.4206 23.6328 50.0176L23.6279 47.5371C23.6279 47.459 23.6442 47.3988 23.6768 47.3564C23.8135 47.1774 24.0137 46.9837 24.2773 46.7754C24.3229 46.7428 24.3636 46.7266 24.3994 46.7266C24.4417 46.7266 24.4824 46.7428 24.5215 46.7754C24.6615 46.8828 24.7786 46.9837 24.873 47.0781C24.9707 47.1725 25.0537 47.2653 25.1221 47.3564C25.1546 47.3988 25.1709 47.459 25.1709 47.5371V49.8809C25.1709 50.5872 25.4508 50.9404 26.0107 50.9404C26.2874 50.9404 26.5088 50.8444 26.6748 50.6523C26.8408 50.457 26.9238 50.1934 26.9238 49.8613V47.5371C26.9238 47.459 26.9401 47.3988 26.9727 47.3564C27.1094 47.1774 27.3096 46.9837 27.5732 46.7754C27.6188 46.7428 27.6595 46.7266 27.6953 46.7266C27.7376 46.7266 27.7783 46.7428 27.8174 46.7754C27.9574 46.8828 28.0745 46.9837 28.1689 47.0781C28.2666 47.1725 28.3496 47.2653 28.418 47.3564C28.4505 47.3988 28.4668 47.459 28.4668 47.5371V51.7754C28.4668 51.8372 28.4456 51.891 28.4033 51.9365C28.361 51.9788 28.3073 52 28.2422 52H27.5098C27.4577 52 27.4105 51.9935 27.3682 51.9805C27.3291 51.9642 27.2917 51.9349 27.2559 51.8926L26.9531 51.502H26.9189C26.8669 51.5768 26.7855 51.6631 26.6748 51.7607C26.5674 51.8584 26.4095 51.943 26.2012 52.0146C25.9961 52.0863 25.7194 52.1221 25.3711 52.1221ZM32.9004 46.8779C33.3757 46.8779 33.7663 46.9854 34.0723 47.2002C34.3815 47.4118 34.611 47.7048 34.7607 48.0791C34.9137 48.4502 34.9902 48.8766 34.9902 49.3584C34.9902 49.8792 34.9007 50.348 34.7217 50.7646C34.5459 51.1813 34.2855 51.5117 33.9404 51.7559C33.5954 52 33.1673 52.1221 32.6562 52.1221C32.3926 52.1221 32.1745 52.0911 32.002 52.0293C31.8327 51.9707 31.696 51.9007 31.5918 51.8193C31.4909 51.7347 31.4111 51.6582 31.3525 51.5898H31.333V53.6699C31.333 53.748 31.3167 53.8083 31.2842 53.8506C31.1475 54.0296 30.9473 54.2233 30.6836 54.4316C30.638 54.4642 30.5973 54.4805 30.5615 54.4805C30.5225 54.4805 30.4818 54.4642 30.4395 54.4316C30.2995 54.3242 30.1807 54.2233 30.083 54.1289C29.9886 54.0345 29.9072 53.9417 29.8389 53.8506C29.8063 53.8083 29.79 53.748 29.79 53.6699V47.6494C29.79 47.5713 29.8063 47.5111 29.8389 47.4688C29.9072 47.3776 29.9886 47.2848 30.083 47.1904C30.1807 47.096 30.2995 46.9951 30.4395 46.8877C30.4818 46.8551 30.5257 46.8389 30.5713 46.8389C30.6136 46.8389 30.6576 46.8551 30.7031 46.8877C30.8398 46.9951 30.957 47.0977 31.0547 47.1953C31.1523 47.293 31.2386 47.3939 31.3135 47.498H31.3379C31.3932 47.4297 31.4779 47.3467 31.5918 47.249C31.7057 47.1514 31.8669 47.0651 32.0752 46.9902C32.2868 46.9154 32.5618 46.8779 32.9004 46.8779ZM32.2998 50.877C32.6514 50.877 32.9232 50.7549 33.1152 50.5107C33.3105 50.2633 33.4082 49.9069 33.4082 49.4414C33.4082 48.5625 33.0469 48.123 32.3242 48.123C32.0182 48.123 31.792 48.1865 31.6455 48.3135C31.499 48.4372 31.3949 48.569 31.333 48.709V49.7686C31.333 50.0843 31.4144 50.348 31.5771 50.5596C31.7399 50.7712 31.9808 50.877 32.2998 50.877Z" fill="black"/>
<path d="M42.0578 18.8331L37.541 17.7678C37.127 15.9821 36.4249 14.3075 35.4826 12.7965L37.9226 8.84994C38.221 8.36594 38.1481 7.74269 37.7465 7.34116L35.6587 5.25331C35.2579 4.85253 34.6339 4.77963 34.1507 5.07795L30.2041 7.51803C28.6931 6.57581 27.0194 5.87294 25.2336 5.45898L24.1676 0.942305C24.0373 0.390443 23.5437 0 22.9771 0H20.0237C19.4564 0 18.9636 0.390443 18.8332 0.942221L17.7671 5.45898C15.9814 5.87303 14.3075 6.57514 12.7974 7.51736L8.85002 5.07736C8.36753 4.77972 7.74202 4.8527 7.342 5.25272L5.25347 7.34124C4.85195 7.74269 4.77972 8.36678 5.07812 8.84927L7.51736 12.7965C6.57505 14.3076 5.87294 15.9813 5.45898 17.7671L0.942977 18.8323C0.391115 18.9635 0 19.4572 0 20.0229V22.9763C0 23.5443 0.390443 24.0364 0.942977 24.1668L5.45898 25.2329C5.87303 27.0187 6.57589 28.6925 7.51811 30.2035L5.07812 34.15C4.78047 34.6326 4.8527 35.2587 5.2528 35.6588L7.34133 37.7466C7.74286 38.1488 8.36678 38.2203 8.85011 37.9219L12.7975 35.4826C14.3077 36.4249 15.9815 37.127 17.7672 37.5409L18.8332 42.0577C18.9636 42.6103 19.4564 43 20.0237 43H22.9771C23.5437 43 24.0373 42.6103 24.1676 42.0577L25.2336 37.5409C27.0186 37.1269 28.6931 36.4249 30.2035 35.4826L34.1507 37.9226C34.634 38.221 35.258 38.1481 35.6588 37.7466L37.7474 35.6588C38.1481 35.258 38.221 34.6333 37.9227 34.1507L35.4827 30.2035C36.425 28.6932 37.1271 27.0187 37.5411 25.2336L42.0579 24.1676C42.6112 24.0365 43.0001 23.5437 43.0001 22.9764V20.0236C43 19.4563 42.6103 18.9635 42.0578 18.8331ZM21.5 32.8055C15.2571 32.8055 10.1952 27.7436 10.1952 21.5C10.1952 15.2564 15.2571 10.1944 21.5 10.1944C27.745 10.1944 32.8062 15.2563 32.8062 21.5C32.8062 27.7436 27.745 32.8055 21.5 32.8055Z" fill="#693A3A"/>
</svg>
