<?xml version="1.0" encoding="UTF-8"?>
<svg id="_レイヤー_2" data-name="レイヤー 2" xmlns="http://www.w3.org/2000/svg" viewBox="0 0 158.01 218.88">
  <defs>
    <style>
      .cls-1 {
        fill: #231815;
      }

      .cls-2 {
        fill: #fff;
      }
    </style>
  </defs>
  <g id="_レイヤー_1-2" data-name=" レイヤー 1">
    <g>
      <g>
        <polygon class="cls-2" points="4.75 191.58 4.75 4.75 153.26 4.75 153.26 214.12 27.65 214.12 4.75 191.58"/>
        <path class="cls-1" d="M153.26,218.86H27.65c-1.25,0-2.44-.49-3.33-1.36L1.42,194.97c-.91-.89-1.42-2.11-1.42-3.38V4.75C0,2.13,2.13,0,4.75,0h148.51c2.62,0,4.75,2.13,4.75,4.75v209.37c0,2.62-2.13,4.75-4.75,4.75h0ZM29.59,209.37h118.92V9.49H9.5v180.1l20.1,19.77h0Z"/>
      </g>
      <g>
        <polygon class="cls-2" points="4.75 191.58 27.65 191.58 27.65 214.12 4.75 191.58"/>
        <path class="cls-1" d="M27.65,218.87c-1.22,0-2.42-.47-3.33-1.36L1.42,194.98c-1.37-1.35-1.79-3.4-1.06-5.18s2.47-2.95,4.39-2.95h22.9c2.62,0,4.75,2.13,4.75,4.75v22.53c0,1.91-1.15,3.64-2.91,4.38-.59.25-1.22.37-1.83.37h0ZM16.35,196.33l6.56,6.45v-6.45h-6.56Z"/>
      </g>
      <path class="cls-1" d="M98.17,71.61H27.36c-1.97,0-3.56-1.59-3.56-3.56s1.59-3.56,3.56-3.56h70.81c1.97,0,3.56,1.59,3.56,3.56s-1.59,3.56-3.56,3.56Z"/>
      <path class="cls-1" d="M80.79,36.54H27.36c-1.97,0-3.56-1.59-3.56-3.56s1.59-3.56,3.56-3.56h53.43c1.97,0,3.56,1.59,3.56,3.56s-1.59,3.56-3.56,3.56Z"/>
      <path class="cls-1" d="M98.17,83.33H27.36c-1.97,0-3.56-1.59-3.56-3.56s1.59-3.56,3.56-3.56h70.81c1.97,0,3.56,1.59,3.56,3.56s-1.59,3.56-3.56,3.56Z"/>
      <path class="cls-1" d="M138.28,86.86h-26.05c-1.97,0-3.56-1.59-3.56-3.56v-18.75c0-1.97,1.59-3.56,3.56-3.56h26.05c1.97,0,3.56,1.59,3.56,3.56v18.75c0,1.97-1.59,3.56-3.56,3.56ZM115.79,79.74h18.92v-11.63h-18.92v11.63Z"/>
      <path class="cls-1" d="M98.17,104.42H27.36c-1.97,0-3.56-1.59-3.56-3.56s1.59-3.56,3.56-3.56h70.81c1.97,0,3.56,1.59,3.56,3.56s-1.59,3.56-3.56,3.56Z"/>
      <path class="cls-1" d="M98.17,116.15H27.36c-1.97,0-3.56-1.59-3.56-3.56s1.59-3.56,3.56-3.56h70.81c1.97,0,3.56,1.59,3.56,3.56s-1.59,3.56-3.56,3.56Z"/>
      <path class="cls-1" d="M138.28,119.68h-26.05c-1.97,0-3.56-1.59-3.56-3.56v-18.75c0-1.97,1.59-3.56,3.56-3.56h26.05c1.97,0,3.56,1.59,3.56,3.56v18.75c0,1.97-1.59,3.56-3.56,3.56ZM115.79,112.56h18.92v-11.63h-18.92v11.63Z"/>
      <path class="cls-1" d="M98.17,137.24H27.36c-1.97,0-3.56-1.59-3.56-3.56s1.59-3.56,3.56-3.56h70.81c1.97,0,3.56,1.59,3.56,3.56s-1.59,3.56-3.56,3.56Z"/>
      <path class="cls-1" d="M98.17,148.96H27.36c-1.97,0-3.56-1.59-3.56-3.56s1.59-3.56,3.56-3.56h70.81c1.97,0,3.56,1.59,3.56,3.56s-1.59,3.56-3.56,3.56Z"/>
      <path class="cls-1" d="M138.28,152.5h-26.05c-1.97,0-3.56-1.59-3.56-3.56v-18.75c0-1.97,1.59-3.56,3.56-3.56h26.05c1.97,0,3.56,1.59,3.56,3.56v18.75c0,1.97-1.59,3.56-3.56,3.56ZM115.79,145.38h18.92v-11.63h-18.92v11.63Z"/>
      <path class="cls-1" d="M98.17,170.06H27.36c-1.97,0-3.56-1.59-3.56-3.56s1.59-3.56,3.56-3.56h70.81c1.97,0,3.56,1.59,3.56,3.56s-1.59,3.56-3.56,3.56Z"/>
      <path class="cls-1" d="M98.17,181.78H27.36c-1.97,0-3.56-1.59-3.56-3.56s1.59-3.56,3.56-3.56h70.81c1.97,0,3.56,1.59,3.56,3.56s-1.59,3.56-3.56,3.56Z"/>
      <path class="cls-1" d="M138.28,185.31h-26.05c-1.97,0-3.56-1.59-3.56-3.56v-18.75c0-1.97,1.59-3.56,3.56-3.56h26.05c1.97,0,3.56,1.59,3.56,3.56v18.75c0,1.97-1.59,3.56-3.56,3.56ZM115.79,178.19h18.92v-11.63h-18.92v11.63Z"/>
    </g>
  </g>
</svg>