<?xml version="1.0" encoding="UTF-8"?>
<svg id="_レイヤー_1" data-name="レイヤー 1" xmlns="http://www.w3.org/2000/svg" xmlns:xlink="http://www.w3.org/1999/xlink" viewBox="0 0 340.16 340.16">
  <defs>
    <style>
      .cls-1 {
        fill: #231815;
      }

      .cls-2 {
        fill: #fff;
      }

      .cls-3 {
        fill: #fcdf80;
      }

      .cls-4 {
        fill: #b08600;
      }

      .cls-5 {
        fill: #fabe00;
      }

      .cls-6 {
        fill: #fee;
        filter: url(#drop-shadow-10);
        stroke: #f4c6d9;
        stroke-linecap: round;
        stroke-linejoin: round;
        stroke-width: 6px;
      }
    </style>
    <filter id="drop-shadow-10" x="12.9" y="12.57" width="320.88" height="320.88" filterUnits="userSpaceOnUse">
      <feOffset dx="2.83" dy="2.83"/>
      <feGaussianBlur result="blur" stdDeviation="2.83"/>
      <feFlood flood-color="#000" flood-opacity=".75"/>
      <feComposite in2="blur" operator="in"/>
      <feComposite in="SourceGraphic"/>
    </filter>
  </defs>
  <rect class="cls-6" x="21.71" y="21.24" width="297.64" height="297.64" rx="29.95" ry="29.95"/>
  <g>
    <g>
      <path class="cls-3" d="M228.65,210.24l-44-125.67c3.95,11.27,21.66,5.52,23.84,4.75,2.19-.77,19.62-7.32,15.67-18.59l44,125.67c.37,1.06.55,2.07.58,3.05v56.46h0l-40.09-45.67Z"/>
      <path class="cls-1" d="M268.74,260.66c-1.34,0-2.65-.57-3.58-1.62l-40.09-45.67c-.4-.46-.71-.99-.91-1.57l-43.99-125.64s0-.02,0-.02c-.87-2.48.44-5.19,2.92-6.06,2.48-.87,5.19.44,6.06,2.92l.02.05c.38,1.09,1.44,3.83,7.96,3.66,4.66-.11,9.29-1.69,9.8-1.87.52-.18,5.13-1.84,8.83-4.65,5.28-4.01,4.29-6.82,3.92-7.88-.87-2.48.44-5.19,2.92-6.06,2.48-.87,5.19.44,6.06,2.92l44,125.67c.52,1.49.81,3,.84,4.5,0,.04,0,.08,0,.12v56.46c0,1.98-1.23,3.75-3.08,4.45-.55.21-1.11.31-1.68.31ZM232.83,207.79l31.15,35.48v-43.76c-.02-.49-.12-1-.31-1.54l-39.42-112.59c-.8.79-1.71,1.59-2.75,2.37-4.65,3.53-9.93,5.53-11.44,6.06-1.51.53-6.88,2.26-12.72,2.4-1.3.03-2.51-.02-3.63-.14l39.12,111.72Z"/>
    </g>
    <g>
      <path class="cls-2" d="M89.26,75.84c0,11.95,18.61,12.37,20.93,12.37s20.93-.42,20.93-12.37v52.73c0,11.95-18.61,12.37-20.93,12.37s-20.93-.42-20.93-12.37v-52.73Z"/>
      <path class="cls-1" d="M110.19,145.69c-1.6,0-7.25-.14-12.8-1.93-11.22-3.63-12.89-11.07-12.89-15.19v-52.73c0-2.63,2.13-4.76,4.76-4.76s4.76,2.13,4.76,4.76c0,7.52,16.01,7.61,16.18,7.61s16.18-.09,16.18-7.61c0-2.63,2.13-4.76,4.76-4.76s4.76,2.13,4.76,4.76v52.73c0,4.12-1.67,11.56-12.89,15.19-5.55,1.8-11.2,1.93-12.8,1.93ZM94.02,89.69v38.88c0,7.52,16.01,7.61,16.18,7.61s16.18-.09,16.18-7.61v-38.88c-1.02.48-2.14.93-3.38,1.33-5.55,1.8-11.2,1.93-12.8,1.93s-7.25-.14-12.8-1.93c-1.24-.4-2.36-.85-3.38-1.33Z"/>
    </g>
    <g>
      <path class="cls-5" d="M89.26,128.57c0,11.95,18.61,12.37,20.93,12.37s20.93-.42,20.93-12.37v133.15c0,11.95-18.61,12.37-20.93,12.37s-20.93-.42-20.93-12.37v-133.15Z"/>
      <path class="cls-1" d="M110.19,278.84c-1.6,0-7.25-.14-12.8-1.93-11.22-3.63-12.89-11.07-12.89-15.19v-133.15c0-2.63,2.13-4.76,4.76-4.76s4.76,2.13,4.76,4.76c0,1.12,0,4.1,6.3,6.14,4.43,1.43,9.33,1.47,9.87,1.47s5.45-.04,9.87-1.47c6.3-2.04,6.3-5.02,6.3-6.14,0-2.63,2.13-4.76,4.76-4.76s4.76,2.13,4.76,4.76v133.15c0,4.12-1.67,11.56-12.89,15.19-5.55,1.8-11.2,1.93-12.8,1.93ZM94.02,142.43v119.29c0,1.12,0,4.1,6.3,6.14,4.43,1.43,9.33,1.47,9.87,1.47s5.45-.04,9.87-1.47c6.3-2.04,6.3-5.02,6.3-6.14v-119.29c-1.02.48-2.14.93-3.38,1.33-5.55,1.8-11.2,1.93-12.8,1.93s-7.25-.14-12.8-1.93c-1.24-.4-2.36-.85-3.38-1.33Z"/>
    </g>
    <g>
      <path class="cls-4" d="M89.26,150.45c0,11.95,18.61,12.37,20.93,12.37s20.93-.42,20.93-12.37v62.09c0,11.95-18.61,12.37-20.93,12.37s-20.93-.42-20.93-12.37v-62.09Z"/>
      <path class="cls-1" d="M110.19,228.48c-11.3,0-24.5-4.17-24.5-15.93v-62.09c0-1.97,1.6-3.57,3.57-3.57s3.57,1.6,3.57,3.57c0,1.23,0,4.96,7.13,7.27,4.6,1.49,9.68,1.53,10.24,1.53s5.64-.04,10.24-1.53c7.13-2.3,7.13-6.04,7.13-7.27,0-1.97,1.6-3.57,3.57-3.57s3.57,1.6,3.57,3.57v62.09c0,11.76-13.2,15.93-24.5,15.93ZM92.83,162.33v50.21c0,1.23,0,4.96,7.13,7.27,4.6,1.49,9.68,1.53,10.24,1.53s5.64-.04,10.24-1.53c7.13-2.3,7.13-6.04,7.13-7.27v-50.21c-4.81,2.87-11.36,4.05-17.37,4.05s-12.55-1.18-17.37-4.05Z"/>
    </g>
    <g>
      <path class="cls-2" d="M131.13,57.7c0,13.04,23.55,13.5,26.48,13.5s26.48-.46,26.48-13.5v57.56c0,13.04-23.55,13.5-26.48,13.5s-26.48-.46-26.48-13.5v-57.56Z"/>
      <path class="cls-1" d="M157.61,133.51c-1.39,0-8.68-.1-15.62-2.03-5.83-1.63-15.62-5.9-15.62-16.22v-57.56c0-2.63,2.13-4.76,4.76-4.76s4.76,2.13,4.76,4.76c0,7.14,16.09,8.74,21.73,8.74s21.73-1.61,21.73-8.74c0-2.63,2.13-4.76,4.76-4.76s4.76,2.13,4.76,4.76v57.56c0,10.32-9.79,14.59-15.62,16.22-6.94,1.94-14.23,2.03-15.62,2.03ZM135.88,71.56v43.69c0,7.14,16.09,8.74,21.73,8.74s21.73-1.61,21.73-8.74v-43.69c-2.14,1.1-4.31,1.85-6.11,2.35-6.94,1.94-14.23,2.03-15.62,2.03s-8.68-.1-15.62-2.03c-1.8-.5-3.96-1.25-6.11-2.35Z"/>
    </g>
    <g>
      <path class="cls-5" d="M131.13,115.26c0,13.04,23.55,13.5,26.48,13.5s26.48-.46,26.48-13.5v145.33c0,13.04-23.55,13.5-26.48,13.5s-26.48-.46-26.48-13.5V115.26Z"/>
      <path class="cls-1" d="M157.61,278.84c-1.39,0-8.68-.1-15.62-2.03-13.59-3.79-15.62-11.79-15.62-16.22V115.26c0-2.63,2.13-4.76,4.76-4.76s4.76,2.13,4.76,4.76c0,3.08,2.91,5.45,8.66,7.06,5.87,1.64,12.34,1.69,13.06,1.69s7.19-.05,13.06-1.69c5.75-1.6,8.66-3.98,8.66-7.06,0-2.63,2.13-4.76,4.76-4.76s4.76,2.13,4.76,4.76v145.33c0,4.43-2.03,12.43-15.62,16.22-6.94,1.94-14.23,2.03-15.62,2.03ZM135.88,129.15v131.44c0,3.08,2.91,5.45,8.66,7.06,5.87,1.64,12.34,1.69,13.06,1.69s7.19-.05,13.06-1.69c5.75-1.6,8.66-3.98,8.66-7.06v-131.44c-1.72.88-3.74,1.67-6.11,2.33-6.94,1.94-14.23,2.03-15.62,2.03s-8.68-.1-15.62-2.03c-2.37-.66-4.39-1.45-6.11-2.33Z"/>
    </g>
    <g>
      <path class="cls-4" d="M184.65,140c3.95,11.27,21.66,5.52,23.84,4.75,2.19-.77,19.62-7.32,15.67-18.59l44,125.67c3.95,11.27-13.48,17.82-15.67,18.59-2.19.77-19.9,6.52-23.84-4.75l-44-125.67Z"/>
      <path class="cls-1" d="M240.61,277.32c-11.21,0-15.11-6.28-16.44-10.09l-43.99-125.64s0-.02,0-.02c-.87-2.48.44-5.19,2.92-6.06,2.48-.87,5.19.44,6.06,2.92l.02.05c.38,1.09,1.42,3.84,7.96,3.66,4.65-.11,9.29-1.69,9.8-1.87.51-.18,5.13-1.84,8.83-4.65,5.2-3.95,4.32-6.74,3.94-7.83l-.02-.05h0c-.87-2.48.44-5.19,2.92-6.06,2.48-.87,5.19.44,6.06,2.92h0s0,.01,0,.02l43.99,125.64c1.36,3.88,2.24,11.47-7.15,18.59-4.64,3.53-9.93,5.53-11.44,6.06-1.51.53-6.89,2.26-12.72,2.4-.25,0-.5,0-.74,0ZM193.72,151.5l39.42,112.59c.37,1.06,1.36,3.9,7.98,3.71,4.65-.11,9.29-1.69,9.81-1.87.51-.18,5.13-1.84,8.83-4.65,5.28-4.01,4.29-6.82,3.92-7.88l-39.42-112.59c-.8.79-1.71,1.59-2.75,2.37-4.64,3.53-9.93,5.53-11.44,6.06-1.51.53-6.89,2.26-12.72,2.4-1.3.03-2.51-.02-3.63-.14Z"/>
    </g>
    <g>
      <path class="cls-2" d="M224.17,70.73c3.95,11.27-13.48,17.82-15.67,18.59-2.19.77-19.9,6.52-23.84-4.75v55.43c3.95,11.27,21.66,5.52,23.84,4.75,2.19-.77,19.62-7.32,15.67-18.59v-55.43Z"/>
      <path class="cls-1" d="M196.61,151.65c-11.21,0-15.11-6.28-16.44-10.09-.18-.5-.27-1.04-.27-1.57v-55.43c0-2.32,1.67-4.3,3.96-4.69,2.29-.39,4.52.93,5.29,3.12.37,1.06,1.36,3.88,7.98,3.71,4.66-.11,9.29-1.69,9.8-1.87.52-.18,5.13-1.84,8.83-4.65,1.98-1.5,3.07-2.83,3.65-3.97v-5.48c0-2.32,1.67-4.3,3.96-4.69,2.29-.39,4.52.93,5.29,3.12.73,2.08,1.32,5.22.27,8.79v47.48c1.17,4.07,1.34,11.11-7.41,17.75-4.64,3.53-9.93,5.53-11.44,6.06-1.51.53-6.89,2.26-12.72,2.4-.25,0-.5,0-.74,0ZM189.41,139.05c3.14,6.16,17.37,1.26,17.52,1.21.15-.05,15.24-5.43,12.75-12.53-.18-.5-.27-1.04-.27-1.57v-36.93c-4.04,2.62-8.06,4.13-9.34,4.58-1.51.53-6.88,2.26-12.72,2.4-3.18.07-5.79-.34-7.94-1.06v43.89Z"/>
    </g>
    <g>
      <path class="cls-2" d="M131.13,181.76c0,13.04,23.55,13.5,26.48,13.5s26.48-.46,26.48-13.5v-38.88c0,13.04-23.55,13.5-26.48,13.5s-26.48-.46-26.48-13.5v38.88Z"/>
      <path class="cls-1" d="M157.61,198.82c-1.36,0-8.51-.1-15.3-1.99-12.19-3.4-14.75-10.08-14.75-15.08v-38.88c0-1.97,1.6-3.57,3.57-3.57s3.57,1.6,3.57,3.57c0,9.82,22.69,9.93,22.92,9.93s22.92-.11,22.92-9.93c0-1.97,1.6-3.57,3.57-3.57s3.57,1.6,3.57,3.57v38.88c0,5-2.56,11.67-14.75,15.08-6.79,1.89-13.94,1.99-15.3,1.99ZM134.7,154.77v26.99c0,9.82,22.69,9.93,22.92,9.93s22.92-.11,22.92-9.93v-26.99c-1.98,1.22-4.48,2.31-7.62,3.19-6.79,1.9-13.94,1.99-15.3,1.99s-8.51-.1-15.3-1.99c-3.14-.88-5.63-1.97-7.62-3.19Z"/>
    </g>
    <g>
      <path class="cls-3" d="M184.65,140c3.95,11.27,21.66,5.52,23.84,4.75,2.19-.77,19.62-7.32,15.67-18.59l44,125.67c3.95,11.27-13.48,17.82-15.67,18.59-2.19.77-19.9,6.52-23.84-4.75l-44-125.67Z"/>
      <path class="cls-1" d="M240.61,277.32c-11.21,0-15.11-6.28-16.44-10.09l-43.99-125.64s0-.02,0-.02c-.87-2.48.44-5.19,2.92-6.06,2.48-.87,5.19.44,6.06,2.92l.02.05c.38,1.09,1.42,3.84,7.96,3.66,4.65-.11,9.29-1.69,9.8-1.87.51-.18,5.13-1.84,8.83-4.65,5.2-3.95,4.32-6.74,3.94-7.83l-.02-.05h0c-.87-2.48.44-5.19,2.92-6.06,2.48-.87,5.19.44,6.06,2.92h0s0,.01,0,.02l43.99,125.64c1.36,3.88,2.24,11.47-7.15,18.59-4.64,3.53-9.93,5.53-11.44,6.06-1.51.53-6.89,2.26-12.72,2.4-.25,0-.5,0-.74,0ZM193.72,151.5l39.42,112.59c.37,1.06,1.36,3.9,7.98,3.71,4.65-.11,9.29-1.69,9.81-1.87.51-.18,5.13-1.84,8.83-4.65,5.28-4.01,4.29-6.82,3.92-7.88l-39.42-112.59c-.8.79-1.71,1.59-2.75,2.37-4.64,3.53-9.93,5.53-11.44,6.06-1.51.53-6.89,2.26-12.72,2.4-1.3.03-2.51-.02-3.63-.14Z"/>
    </g>
    <g>
      <path class="cls-5" d="M212.78,156.82c-1.07.38-5.88,1.95-10.96,2.13l22.76,65.16,4.56,13.04c5.08-.18,9.89-1.75,10.96-2.13.66-.23,2.72-.99,5.15-2.25l-27.32-78.2c-2.43,1.26-4.49,2.02-5.15,2.25Z"/>
      <path class="cls-5" d="M229.14,240.71c-1.51,0-2.86-.95-3.37-2.39l-4.56-13.04-22.76-65.16c-.37-1.07-.22-2.25.42-3.19.64-.94,1.69-1.51,2.82-1.55,4.74-.17,9.38-1.74,9.9-1.93h0c.37-.13,2.34-.84,4.69-2.05.92-.47,2-.53,2.96-.15.96.38,1.71,1.16,2.05,2.14l27.32,78.19c.59,1.68-.15,3.53-1.73,4.35-2.71,1.4-4.98,2.23-5.61,2.45-1,.35-6.31,2.12-12.01,2.32-.04,0-.08,0-.13,0ZM206.67,162.02l24.93,71.34c3.74-.48,6.9-1.56,7.32-1.71.21-.07.91-.32,1.9-.74l-24.97-71.45c-.92.38-1.59.62-1.9.73,0,0,0,0,0,0-.72.25-3.62,1.22-7.28,1.83ZM212.78,156.82h0,0Z"/>
    </g>
    <g>
      <path class="cls-1" d="M99.92,89.79s1.19,29.73,1.19,29.73c.19,3.01,4.57,3.01,4.76,0l1.19-29.73c.02-4.91-7.16-4.9-7.13,0Z"/>
      <path class="cls-1" d="M114.69,84.35c-1.97.1-3.49,1.78-3.38,3.75,0,0,1.19,23.24,1.19,23.24.22,2.98,4.54,2.98,4.76,0l1.19-23.24c.12-2.1-1.65-3.87-3.75-3.75Z"/>
    </g>
    <g>
      <path class="cls-1" d="M211.63,87.03c-1.97.1-3.49,1.78-3.38,3.75,0,0,1.19,23.24,1.19,23.24.22,2.98,4.54,2.98,4.76,0l1.19-23.24c.12-2.1-1.65-3.87-3.75-3.75Z"/>
      <path class="cls-1" d="M196.07,92.16l1.19,30.76c.05,1.23,1.04,2.24,2.29,2.29,1.31.05,2.42-.97,2.47-2.29,0,0,.31-8,.61-15.84.29-7.53.58-14.92.58-14.92.01-4.9-7.15-4.89-7.13,0Z"/>
    </g>
    <g>
      <path class="cls-1" d="M163.19,72.36s1.19,29.73,1.19,29.73c.19,3.01,4.57,3.01,4.76,0l1.19-29.73c.02-4.91-7.16-4.9-7.13,0Z"/>
      <path class="cls-1" d="M151.24,72.36s1.19,36.61,1.19,36.61c.17,3.04,4.59,3.03,4.76,0l1.19-36.61c-.02-4.88-7.12-4.86-7.13,0Z"/>
    </g>
  </g>
</svg>