<?xml version="1.0" encoding="UTF-8"?>
<svg id="_レイヤー_1" data-name="レイヤー 1" xmlns="http://www.w3.org/2000/svg" xmlns:xlink="http://www.w3.org/1999/xlink" viewBox="0 0 340.16 340.16">
  <defs>
    <style>
      .cls-1 {
        fill: #fcdf80;
      }

      .cls-2 {
        fill: #fabe00;
      }

      .cls-3 {
        fill: #fee;
        filter: url(#drop-shadow-13);
        stroke: #f4c6d9;
        stroke-linecap: round;
        stroke-linejoin: round;
        stroke-width: 6px;
      }
    </style>
    <filter id="drop-shadow-13" x="9.37" y="12.57" width="320.88" height="320.88" filterUnits="userSpaceOnUse">
      <feOffset dx="2.83" dy="2.83"/>
      <feGaussianBlur result="blur" stdDeviation="2.83"/>
      <feFlood flood-color="#000" flood-opacity=".75"/>
      <feComposite in2="blur" operator="in"/>
      <feComposite in="SourceGraphic"/>
    </filter>
  </defs>
  <rect class="cls-3" x="18.18" y="21.24" width="297.64" height="297.64" rx="29.95" ry="29.95"/>
  <g>
    <g>
      <path class="cls-2" d="M170.08,253.13h0c-6.13,0-11.14-5.01-11.14-11.14V70.28c0-6.13,5.01-11.14,11.14-11.14h0c6.13,0,11.14,5.01,11.14,11.14v171.7c0,6.13-5.01,11.14-11.14,11.14Z"/>
      <path d="M170.08,258.35c-9.02,0-16.36-7.34-16.36-16.36V70.28c0-9.02,7.34-16.36,16.36-16.36s16.36,7.34,16.36,16.36v171.7c0,9.02-7.34,16.36-16.36,16.36ZM170.08,64.36c-3.27,0-5.92,2.66-5.92,5.92v171.7c0,3.27,2.66,5.92,5.92,5.92s5.92-2.66,5.92-5.92V70.28c0-3.27-2.66-5.92-5.92-5.92Z"/>
    </g>
    <g>
      <rect class="cls-2" x="162.55" y="5.83" width="15.06" height="204.23" rx="7.53" ry="7.53" transform="translate(278.03 -62.13) rotate(90)"/>
      <path d="M264.67,120.69H75.49c-7.03,0-12.75-5.72-12.75-12.75s5.72-12.75,12.75-12.75h189.18c7.03,0,12.75,5.72,12.75,12.75s-5.72,12.75-12.75,12.75ZM75.49,105.64c-1.25,0-2.31,1.06-2.31,2.31s1.06,2.31,2.31,2.31h189.18c1.25,0,2.31-1.06,2.31-2.31s-1.06-2.31-2.31-2.31H75.49Z"/>
    </g>
    <g>
      <circle class="cls-1" cx="170.08" cy="106.95" r="19.06"/>
      <path d="M170.08,131.22c-13.39,0-24.28-10.89-24.28-24.27s10.89-24.28,24.28-24.28,24.28,10.89,24.28,24.28-10.89,24.27-24.28,24.27ZM170.08,93.11c-7.63,0-13.84,6.21-13.84,13.84s6.21,13.84,13.84,13.84,13.84-6.21,13.84-13.84-6.21-13.84-13.84-13.84Z"/>
    </g>
    <g>
      <g>
        <path class="cls-1" d="M44.35,192.07c3.9,19.88,21.41,34.88,42.43,34.88s38.53-15,42.43-34.88H44.35Z"/>
        <path d="M86.78,232.16c-23.11,0-43.11-16.44-47.55-39.09-.3-1.53.1-3.12,1.09-4.32.99-1.2,2.47-1.9,4.03-1.9h84.86c1.56,0,3.04.7,4.03,1.9.99,1.2,1.39,2.79,1.09,4.32-4.44,22.65-24.44,39.09-47.55,39.09ZM51.26,197.28c5.53,14.48,19.59,24.44,35.52,24.44s29.99-9.96,35.52-24.44H51.26Z"/>
      </g>
      <path d="M129.21,197.29c-1.83,0-3.61-.97-4.57-2.68l-37.87-68.12-37.87,68.12c-1.4,2.52-4.58,3.43-7.1,2.03-2.52-1.4-3.43-4.58-2.03-7.1l42.43-76.32c.92-1.66,2.67-2.68,4.56-2.68s3.64,1.03,4.56,2.68l42.43,76.32c1.4,2.52.49,5.7-2.03,7.1-.8.45-1.67.66-2.53.66Z"/>
      <path d="M86.78,118.63c-2.88,0-5.22-2.34-5.22-5.22v-12.79c0-2.88,2.34-5.22,5.22-5.22s5.22,2.34,5.22,5.22v12.79c0,2.88-2.34,5.22-5.22,5.22Z"/>
      <g>
        <path class="cls-1" d="M210.95,192.07c3.9,19.88,21.41,34.88,42.43,34.88s38.53-15,42.43-34.88h-84.86Z"/>
        <path d="M253.38,232.16c-23.11,0-43.11-16.44-47.55-39.09-.3-1.53.1-3.12,1.09-4.32.99-1.2,2.47-1.9,4.03-1.9h84.86c1.56,0,3.04.7,4.03,1.9.99,1.2,1.39,2.79,1.09,4.32-4.44,22.65-24.44,39.09-47.55,39.09ZM217.85,197.28c5.53,14.48,19.59,24.44,35.52,24.44s29.99-9.96,35.52-24.44h-71.05Z"/>
      </g>
      <path d="M210.94,197.29c-.86,0-1.73-.21-2.53-.66-2.52-1.4-3.43-4.58-2.03-7.1l42.43-76.32c.92-1.66,2.67-2.68,4.56-2.68s3.64,1.03,4.56,2.68l42.43,76.32c1.4,2.52.49,5.7-2.03,7.1-2.52,1.4-5.7.49-7.1-2.03l-37.87-68.12-37.87,68.12c-.95,1.72-2.73,2.68-4.57,2.68Z"/>
      <path d="M253.38,118.63c-2.88,0-5.22-2.34-5.22-5.22v-12.79c0-2.88,2.34-5.22,5.22-5.22s5.22,2.34,5.22,5.22v12.79c0,2.88-2.34,5.22-5.22,5.22Z"/>
    </g>
    <g>
      <g>
        <path class="cls-2" d="M210.84,253.07h-6.55c0-.18.03-.35.03-.53v-4.62c0-5.42-4.43-9.85-9.85-9.85h-48.78c-5.42,0-9.85,4.43-9.85,9.85v4.62c0,.18.02.36.03.53h-6.55c-6.3,0-11.45,5.15-11.45,11.45h0c0,6.3,5.15,11.45,11.45,11.45h81.53c6.3,0,11.45-5.15,11.45-11.45h0c0-6.3-5.15-11.45-11.45-11.45Z"/>
        <path d="M210.84,281.2h-81.53c-9.19,0-16.67-7.48-16.67-16.67s7.48-16.67,16.67-16.67h1.31c.04-8.28,6.78-15,15.07-15h48.78c8.29,0,15.03,6.72,15.07,15h1.31c9.19,0,16.67,7.48,16.67,16.67s-7.48,16.67-16.67,16.67ZM129.31,258.29c-3.44,0-6.24,2.8-6.24,6.24s2.8,6.24,6.24,6.24h81.53c3.44,0,6.24-2.8,6.24-6.24s-2.8-6.24-6.24-6.24h-6.55c-1.43,0-2.8-.59-3.78-1.62-.99-1.04-1.5-2.43-1.43-3.86l.02-.27v-4.62c0-2.56-2.08-4.64-4.63-4.64h-48.78c-2.56,0-4.64,2.08-4.64,4.64l.02,4.86c.08,1.43-.43,2.83-1.42,3.88-.99,1.04-2.36,1.63-3.79,1.63h-6.55Z"/>
      </g>
      <path d="M176.85,249.21h-41.67c-2.51,0-4.54,2.03-4.54,4.54s2.03,4.54,4.54,4.54h41.67c2.51,0,4.54-2.03,4.54-4.54s-2.03-4.54-4.54-4.54Z"/>
    </g>
  </g>
</svg>