<?xml version="1.0" encoding="UTF-8"?>
<svg id="_レイヤー_1" data-name="レイヤー 1" xmlns="http://www.w3.org/2000/svg" xmlns:xlink="http://www.w3.org/1999/xlink" viewBox="0 0 340.16 340.16">
  <defs>
    <style>
      .cls-1 {
        fill: #231815;
      }

      .cls-2 {
        fill: #fff;
      }

      .cls-3 {
        fill: #717071;
      }

      .cls-4 {
        fill: #fabe00;
      }

      .cls-5 {
        fill: #fee;
        filter: url(#drop-shadow-15);
        stroke: #f4c6d9;
        stroke-linecap: round;
        stroke-linejoin: round;
        stroke-width: 6px;
      }
    </style>
    <filter id="drop-shadow-15" x="12.45" y="12.57" width="320.88" height="320.88" filterUnits="userSpaceOnUse">
      <feOffset dx="2.83" dy="2.83"/>
      <feGaussianBlur result="blur" stdDeviation="2.83"/>
      <feFlood flood-color="#000" flood-opacity=".75"/>
      <feComposite in2="blur" operator="in"/>
      <feComposite in="SourceGraphic"/>
    </filter>
  </defs>
  <rect class="cls-5" x="21.26" y="21.24" width="297.64" height="297.64" rx="29.95" ry="29.95"/>
  <g>
    <g>
      <path class="cls-2" d="M112.86,217.12l41.63,29.25c9.97,6.5,17.89,6.5,25.81,1.42l63.99-45.1-29.05-50.38h-34.54l-67.85,64.8Z"/>
      <path class="cls-1" d="M168.95,256.45c-5.47,0-11.12-1.97-17.17-5.91-.05-.03-.1-.06-.14-.1l-41.63-29.25c-1.22-.86-1.99-2.21-2.1-3.69-.11-1.48.45-2.94,1.52-3.97l67.85-64.8c.92-.88,2.15-1.38,3.43-1.38h34.54c1.78,0,3.42.95,4.31,2.49l29.05,50.38c1.28,2.23.66,5.06-1.44,6.55l-63.99,45.1c-.06.04-.12.08-.18.12-4.64,2.98-9.28,4.47-14.04,4.47ZM157.28,242.26c7.88,5.12,13.77,5.54,20.26,1.41l60.19-42.42-25.35-43.96h-29.67l-62.03,59.25,36.61,25.72Z"/>
    </g>
    <g>
      <g>
        <polygon class="cls-2" points="210.5 145.01 246.62 210.84 277.3 194.61 242.19 128.52 210.5 145.01"/>
        <path class="cls-1" d="M246.63,215.81c-1.76,0-3.46-.93-4.36-2.58l-36.13-65.83c-.64-1.17-.79-2.55-.4-3.83.39-1.28,1.28-2.35,2.46-2.97l31.69-16.48c2.42-1.26,5.4-.33,6.68,2.08l35.11,66.09c.62,1.17.75,2.53.36,3.79-.39,1.26-1.26,2.32-2.43,2.93l-30.68,16.23c-.74.39-1.54.58-2.32.58ZM217.3,147.07l31.33,57.09,21.95-11.61-30.46-57.34-22.81,11.86Z"/>
      </g>
      <g>
        <polygon class="cls-2" points="210.5 145.01 246.62 210.84 277.3 194.61 242.19 128.52 210.5 145.01"/>
        <path class="cls-1" d="M246.63,215.81c-1.76,0-3.46-.93-4.36-2.58l-36.13-65.83c-.64-1.17-.79-2.55-.4-3.83.39-1.28,1.28-2.35,2.46-2.97l31.69-16.48c2.42-1.26,5.4-.33,6.68,2.08l35.11,66.09c.62,1.17.75,2.53.36,3.79-.39,1.26-1.26,2.32-2.43,2.93l-30.68,16.23c-.74.39-1.54.58-2.32.58ZM217.3,147.07l31.33,57.09,21.95-11.61-30.46-57.34-22.81,11.86Z"/>
      </g>
      <g>
        <polygon class="cls-4" points="224.31 134.12 263.95 206.36 297.62 188.55 259.09 116.04 224.31 134.12"/>
        <path class="cls-1" d="M263.95,211.33c-1.76,0-3.46-.93-4.36-2.58l-39.64-72.24c-.64-1.17-.79-2.56-.4-3.83.39-1.28,1.28-2.35,2.46-2.97l34.78-18.08c2.42-1.26,5.4-.33,6.68,2.08l38.53,72.52c.62,1.17.75,2.53.36,3.79-.39,1.26-1.26,2.32-2.43,2.93l-33.67,17.81c-.74.39-1.54.58-2.32.58ZM231.11,136.18l34.84,63.49,24.94-13.19-33.88-63.77-25.9,13.47Z"/>
      </g>
      <path class="cls-3" d="M159.77,178.7l2.2,1.14c.14.07,14.47,7.53,27.67,14.89,5.33,2.96,9.33.66,11.13-2.23.88-1.4,1.82-4.15-.2-5.56l-34.88-25.54-10.13-6.58h-28.65l-28.65,49.19,13.02,9.14,48.48-34.47Z"/>
    </g>
    <path class="cls-1" d="M141.54,130.31c-1.89,0-3.7-1.08-4.53-2.92l-7.95-17.5c-1.14-2.5-.03-5.45,2.47-6.58,2.5-1.14,5.44-.03,6.58,2.47l7.95,17.5c1.14,2.5.03,5.45-2.47,6.58-.67.3-1.37.45-2.05.45Z"/>
    <path class="cls-1" d="M191.59,130.31c-.69,0-1.39-.14-2.05-.45-2.5-1.14-3.61-4.08-2.47-6.58l7.95-17.5c1.14-2.5,4.08-3.6,6.58-2.47,2.5,1.14,3.61,4.08,2.47,6.58l-7.95,17.5c-.83,1.83-2.64,2.92-4.53,2.92Z"/>
    <path class="cls-1" d="M166.79,126.45c-2.74,0-4.97-2.23-4.97-4.97v-20.92c0-2.74,2.23-4.97,4.97-4.97s4.97,2.23,4.97,4.97v20.92c0,2.74-2.23,4.97-4.97,4.97Z"/>
    <g>
      <path class="cls-2" d="M124.27,150.22l34.09-.42,45.88,34.51c10.94,8.42-1.68,21.89-12.63,16.84l-30.73-16.84-48.03,32.81-19.73-13.87,31.15-53.03Z"/>
      <path class="cls-1" d="M112.86,222.09c-1,0-2-.3-2.86-.9l-19.73-13.86c-2.12-1.49-2.74-4.35-1.43-6.58l31.15-53.03c.88-1.5,2.48-2.43,4.22-2.45l34.09-.42c1.09-.01,2.17.34,3.05,1l45.88,34.51c6.41,4.93,8.01,12.24,4.12,18.67-3.89,6.43-13.11,10.67-21.82,6.65-.1-.05-.21-.1-.31-.15l-28.05-15.37-45.51,31.09c-.85.58-1.82.87-2.8.87ZM99.73,201.82l13.17,9.25,45.19-30.86c1.55-1.06,3.55-1.15,5.19-.25l30.56,16.74c3.57,1.56,7.44-.24,9.01-2.83,1.21-2,.68-3.84-1.63-5.61l-44.48-33.46-29.59.37-27.41,46.66Z"/>
    </g>
    <path class="cls-1" d="M132.5,234.07c-1.59,0-3.15-.76-4.11-2.17-1.55-2.27-.97-5.36,1.3-6.91l26.29-17.95c2.26-1.55,5.36-.97,6.91,1.3,1.55,2.27.97,5.36-1.3,6.91l-26.29,17.95c-.86.59-1.83.87-2.8.87Z"/>
    <path class="cls-1" d="M150.46,245.76c-1.59,0-3.15-.76-4.11-2.17-1.55-2.27-.97-5.36,1.3-6.91l26.29-17.95c2.27-1.55,5.36-.97,6.91,1.3,1.55,2.27.97,5.36-1.3,6.91l-26.29,17.95c-.86.59-1.83.87-2.8.87Z"/>
    <g>
      <polygon class="cls-2" points="128.37 145.01 92.25 210.84 61.57 194.61 96.68 128.52 128.37 145.01"/>
      <path class="cls-1" d="M92.24,215.81c-.78,0-1.58-.19-2.32-.58l-30.68-16.23c-1.17-.62-2.04-1.67-2.43-2.93-.39-1.26-.26-2.62.36-3.79l35.11-66.09c1.28-2.41,4.26-3.34,6.68-2.08l31.69,16.48c1.19.62,2.07,1.69,2.46,2.97.39,1.28.24,2.66-.4,3.83l-36.13,65.83c-.9,1.65-2.6,2.58-4.36,2.58ZM68.29,192.55l21.95,11.61,31.33-57.09-22.81-11.86-30.46,57.34Z"/>
    </g>
    <g>
      <polygon class="cls-4" points="114.56 134.12 74.92 206.36 41.25 188.55 79.78 116.04 114.56 134.12"/>
      <path class="cls-1" d="M74.91,211.33c-.78,0-1.58-.19-2.32-.58l-33.67-17.81c-1.17-.62-2.04-1.67-2.43-2.93-.39-1.26-.26-2.62.36-3.79l38.53-72.52c1.28-2.41,4.26-3.34,6.68-2.08l34.78,18.08c1.19.62,2.07,1.69,2.46,2.97.39,1.28.24,2.66-.4,3.83l-39.64,72.24c-.9,1.65-2.6,2.58-4.36,2.58ZM47.98,186.49l24.94,13.19,34.84-63.49-25.9-13.47-33.88,63.77Z"/>
    </g>
  </g>
</svg>