<?xml version="1.0" encoding="UTF-8"?>
<svg id="_レイヤー_1" data-name="レイヤー 1" xmlns="http://www.w3.org/2000/svg" xmlns:xlink="http://www.w3.org/1999/xlink" viewBox="0 0 340.16 340.16">
  <defs>
    <style>
      .cls-1 {
        fill: #fdecb2;
      }

      .cls-2 {
        fill: #231815;
      }

      .cls-3 {
        fill: #fff;
      }

      .cls-4 {
        fill: #fcdf80;
      }

      .cls-5 {
        fill: #fabe00;
      }

      .cls-6 {
        fill: #fee;
        filter: url(#drop-shadow-1);
        stroke: #f4c6d9;
        stroke-linecap: round;
        stroke-linejoin: round;
        stroke-width: 6px;
      }
    </style>
    <filter id="drop-shadow-1" x="12.4" y="12.21" width="320.88" height="320.88" filterUnits="userSpaceOnUse">
      <feOffset dx="2.83" dy="2.83"/>
      <feGaussianBlur result="blur" stdDeviation="2.83"/>
      <feFlood flood-color="#000" flood-opacity=".75"/>
      <feComposite in2="blur" operator="in"/>
      <feComposite in="SourceGraphic"/>
    </filter>
  </defs>
  <rect class="cls-6" x="21.26" y="21.03" width="297.64" height="297.64" rx="29.95" ry="29.95"/>
  <g>
    <g>
      <path class="cls-5" d="M290.39,129.68c-15.76-41.31-69.21-44.08-84.54-5.32-4.81,12.17-14.48,16.61-22.61,11.61-12.71-7.82-8.39-32.98-15.09-47.79-7.73-36.33-67.73-37.73-95.9-6.25-49.53,55.37-47.96,192.21,95.57,192.21,113.59,0,146.12-82.71,122.57-144.45ZM246.39,163.96c-10.33,0-18.7-8.43-18.7-18.82s8.37-18.82,18.7-18.82,18.7,8.43,18.7,18.82-8.37,18.82-18.7,18.82Z"/>
      <path d="M167.82,279.39c-31.07,0-57.46-6.28-78.43-18.67-18.82-11.11-32.84-26.78-41.69-46.56-19.16-42.84-10.29-101.21,20.62-135.77,17.38-19.43,48.26-28.67,73.41-21.98,16.66,4.43,28.09,15.39,31.44,30.09,2.77,6.41,3.74,14.05,4.68,21.45,1.31,10.32,2.55,20.07,8.14,23.51,2.08,1.28,4.21,1.57,6.34.86,3.43-1.14,6.57-4.76,8.61-9.92,7.52-19,24.51-30.77,44.39-30.77.1,0,.21,0,.31,0,21.84.13,41.33,14.33,49.66,36.15h0c13.08,34.29,9.09,71.89-10.66,100.57-10.82,15.7-25.77,28.07-44.44,36.75-20.38,9.47-44.73,14.28-72.39,14.28ZM124.53,64.82c-16.5,0-35.51,6.26-48.35,20.61-13.09,14.64-22.41,35.09-26.22,57.59-3.99,23.57-1.38,47.31,7.36,66.85,7.93,17.75,20.53,31.8,37.43,41.79,19.33,11.41,43.91,17.2,73.07,17.2,62.93,0,93.55-25.27,108.15-46.47,17.79-25.83,21.34-59.79,9.5-90.84h0c-6.77-17.74-22.42-29.27-39.88-29.37-.08,0-.17,0-.25,0-15.69,0-28.61,9-34.59,24.11-3.24,8.19-8.59,13.88-15.08,16.04-5.07,1.69-10.46,1.02-15.18-1.88-9.89-6.09-11.51-18.83-13.07-31.16-.87-6.83-1.76-13.88-4.06-18.95-.16-.35-.27-.71-.35-1.08-3.2-15.02-16.39-20.64-23.97-22.66-4.41-1.17-9.33-1.79-14.5-1.79ZM246.39,169.23c-13.22,0-23.97-10.81-23.97-24.09s10.75-24.09,23.97-24.09,23.97,10.81,23.97,24.09-10.75,24.09-23.97,24.09ZM246.39,131.59c-7.41,0-13.43,6.08-13.43,13.55s6.03,13.55,13.43,13.55,13.43-6.08,13.43-13.55-6.02-13.55-13.43-13.55Z"/>
    </g>
    <g>
      <circle class="cls-3" cx="82.91" cy="147.81" r="17.92" transform="translate(-80.09 194.22) rotate(-76.6)"/>
      <path class="cls-2" d="M82.91,171c-12.78,0-23.19-10.4-23.19-23.19s10.4-23.19,23.19-23.19,23.19,10.4,23.19,23.19-10.4,23.19-23.19,23.19ZM82.91,135.16c-6.98,0-12.65,5.68-12.65,12.65s5.68,12.65,12.65,12.65,12.65-5.67,12.65-12.65-5.68-12.65-12.65-12.65Z"/>
    </g>
    <g>
      <circle class="cls-5" cx="93.4" cy="201.29" r="17.92" transform="translate(-123.88 246.36) rotate(-76.83)"/>
      <path class="cls-2" d="M93.4,224.48c-12.78,0-23.19-10.4-23.19-23.19s10.4-23.19,23.19-23.19,23.19,10.4,23.19,23.19-10.4,23.19-23.19,23.19ZM93.4,188.64c-6.98,0-12.65,5.68-12.65,12.65s5.67,12.65,12.65,12.65,12.65-5.68,12.65-12.65-5.68-12.65-12.65-12.65Z"/>
    </g>
    <g>
      <circle class="cls-1" cx="137.97" cy="233.1" r="17.92" transform="translate(-124.42 165.83) rotate(-45)"/>
      <path class="cls-2" d="M137.97,256.29c-12.78,0-23.19-10.4-23.19-23.19s10.4-23.18,23.19-23.18,23.19,10.4,23.19,23.18-10.4,23.19-23.19,23.19ZM137.97,220.45c-6.98,0-12.65,5.68-12.65,12.65s5.67,12.65,12.65,12.65,12.65-5.68,12.65-12.65-5.68-12.65-12.65-12.65Z"/>
    </g>
    <g>
      <circle class="cls-4" cx="193.09" cy="235.43" r="17.92" transform="translate(-80.14 369.8) rotate(-76.83)"/>
      <path class="cls-2" d="M193.09,258.62c-12.78,0-23.19-10.4-23.19-23.19s10.4-23.19,23.19-23.19,23.19,10.4,23.19,23.19-10.4,23.19-23.19,23.19ZM193.09,222.78c-6.98,0-12.65,5.68-12.65,12.65s5.68,12.65,12.65,12.65,12.65-5.68,12.65-12.65-5.67-12.65-12.65-12.65Z"/>
    </g>
    <g>
      <path class="cls-3" d="M127.91,111.81c-5.88-.6-9.5,4.88-8.47,8.8,1.37,5.22,8.42,28.31,17.12,37.07,6.97,7.02,15.13,10.93,24.64,11.9l10.57-9.89c.89-24.26-37.98-47.28-43.86-47.88Z"/>
      <path class="cls-2" d="M163.05,175.06l-2.39-.24c-10.72-1.1-20.08-5.61-27.84-13.43-10.91-10.99-18.4-39.16-18.48-39.45-.95-3.62.11-7.79,2.76-10.89,2.82-3.3,6.96-4.93,11.34-4.49h0c8.09.83,49.59,25.7,48.58,53.31l-.08,2.17-13.9,13.02ZM127.03,117.03c-.74,0-1.37.27-1.86.8-.57.62-.67,1.29-.64,1.45,2.19,8.34,8.93,27.81,15.76,34.69,5.51,5.55,11.78,8.85,19.12,10.06l7.04-6.59c-1.53-19.57-34.11-39.26-39.17-40.4-.08,0-.17,0-.25,0ZM127.37,117.04s0,0,0,0c0,0,0,0,0,0Z"/>
    </g>
    <g>
      <g>
        <path class="cls-3" d="M163.81,162.71c-9.19,8.38.65,21.46,19.01,41.7,7.64-9.63,17.98-16.63,21.05-18.6-18.63-20.36-30.82-31.53-40.07-23.1Z"/>
        <path class="cls-2" d="M183.1,212.54l-4.17-4.6c-15.39-16.97-32.84-36.2-18.66-49.13h0c14.2-12.94,31.89,6.38,47.5,23.43l4.22,4.61-5.27,3.38c-2.83,1.82-12.62,8.44-19.77,17.44l-3.86,4.86ZM167.36,166.6h0c-1.27,1.15-3.39,3.09.28,10.05,2.81,5.34,8.06,11.85,15.12,19.8,4.57-4.84,9.44-8.8,13.13-11.52-7.33-7.84-13.39-13.74-18.46-17.06-6.67-4.37-8.8-2.43-10.08-1.27Z"/>
      </g>
      <g>
        <path class="cls-4" d="M211.61,194.32c-2.69-2.99-5.26-5.83-7.72-8.52-3.07,1.97-13.41,8.97-21.05,18.6,2.54,2.8,5.23,5.73,8.07,8.8,26.3,28.55,83.79,88.49,92.45,80.6,8.66-7.9-45.73-70.66-71.74-99.48Z"/>
        <path class="cls-2" d="M281.44,299.84c-6.66,0-18.04-7.02-41.3-28.83-20.04-18.79-41.88-42.05-53.11-54.24-2.84-3.09-5.55-6.03-8.09-8.83l-3-3.31,2.78-3.5c8.16-10.28,19.16-17.72,22.34-19.76l3.73-2.39,2.99,3.27c2.47,2.7,5.05,5.55,7.75,8.54h0c11.11,12.31,32.26,36.19,49.12,57.88,26.26,33.78,27.99,43.8,22.26,49.02-1.46,1.33-3.18,2.15-5.46,2.15ZM189.85,204.29c1.59,1.73,3.23,3.51,4.91,5.34,10.18,11.05,30.08,32.28,48.99,50.31,20.33,19.39,30.06,25.95,34.4,28.17-1.81-4.53-7.45-14.82-24.88-36.85-16.21-20.49-35.52-42.26-45.58-53.42-1.58-1.76-3.13-3.46-4.63-5.12-3.53,2.54-8.62,6.57-13.21,11.56Z"/>
      </g>
    </g>
  </g>
</svg>