<?xml version="1.0" encoding="UTF-8"?>
<svg id="_レイヤー_1" data-name="レイヤー 1" xmlns="http://www.w3.org/2000/svg" xmlns:xlink="http://www.w3.org/1999/xlink" viewBox="0 0 340.16 340.16">
  <defs>
    <style>
      .cls-1 {
        fill: #4c4948;
      }

      .cls-2 {
        fill: #231815;
      }

      .cls-3 {
        fill: #fff;
      }

      .cls-4 {
        fill: #fabe00;
      }

      .cls-5 {
        fill: #fee;
        filter: url(#drop-shadow-11);
        stroke: #f4c6d9;
        stroke-linecap: round;
        stroke-linejoin: round;
        stroke-width: 6px;
      }
    </style>
    <filter id="drop-shadow-11" x="10.72" y="12.57" width="320.88" height="320.88" filterUnits="userSpaceOnUse">
      <feOffset dx="2.83" dy="2.83"/>
      <feGaussianBlur result="blur" stdDeviation="2.83"/>
      <feFlood flood-color="#000" flood-opacity=".75"/>
      <feComposite in2="blur" operator="in"/>
      <feComposite in="SourceGraphic"/>
    </filter>
  </defs>
  <rect class="cls-5" x="19.54" y="21.24" width="297.64" height="297.64" rx="29.95" ry="29.95"/>
  <g>
    <path class="cls-2" d="M63.64,154.22c-5.28,0-10.62-1.65-14.87-4.89-8.16-6.22-10.69-16.75-6.95-28.9,4.28-13.9,16.01-25.66,32.44-33.09,22.04-12.76,55.27-22.68,81.91-24.35,19.4-1.21,44.4-.69,53.33,8.68,2.59,2.72,3.75,6.04,3.35,9.6-.4,3.57-2.13,6.58-5,8.69-5.51,4.05-15.14,4.76-28.64,2.13-14.06-2.74-62.27-7.12-87.54-.72-4.62,1.17-8.96,2.66-12.97,4.43-.58.34-1.15.68-1.71,1.02-.57.35-1.19.56-1.82.65-12.34,6.26-21.01,15.32-24.23,25.77-2.53,8.22-1.25,14.79,3.62,18.5,4.55,3.47,11.71,3.9,16.3.98,2.22-1.41,5.17-.76,6.59,1.46,1.41,2.22.76,5.17-1.46,6.59-3.63,2.31-7.96,3.44-12.34,3.44ZM127.28,78.59c22.22,0,44.76,2.38,53.76,4.14,10.17,1.98,18.08,1.82,21.16-.45.73-.54,1.07-1.13,1.17-2.05.07-.62-.04-1.19-.78-1.97-3.74-3.92-17.74-7.49-45.83-5.74-10.83.68-23.04,2.88-35.07,6.12,1.85-.04,3.71-.05,5.58-.05Z"/>
    <g>
      <rect class="cls-3" x="99.24" y="110.87" width="24.86" height="15.18"/>
      <path class="cls-2" d="M124.1,130.83h-24.86c-2.63,0-4.77-2.14-4.77-4.77v-15.18c0-2.63,2.14-4.77,4.77-4.77h24.86c2.63,0,4.77,2.14,4.77,4.77v15.18c0,2.63-2.14,4.77-4.77,4.77ZM104.01,121.29h15.32v-5.64h-15.32v5.64Z"/>
    </g>
    <g>
      <rect class="cls-4" x="70.51" y="125.46" width="212.16" height="121.04" rx="18.7" ry="18.7"/>
      <path class="cls-2" d="M263.98,251.27H89.21c-12.94,0-23.47-10.53-23.47-23.47v-83.64c0-12.94,10.53-23.47,23.47-23.47h174.77c12.94,0,23.47,10.53,23.47,23.47v83.64c0,12.94-10.53,23.47-23.47,23.47ZM89.21,130.23c-7.68,0-13.93,6.25-13.93,13.93v83.64c0,7.68,6.25,13.93,13.93,13.93h174.77c7.68,0,13.93-6.25,13.93-13.93v-83.64c0-7.68-6.25-13.93-13.93-13.93H89.21Z"/>
    </g>
    <g>
      <rect class="cls-3" x="92.32" y="136.34" width="33.17" height="15.64"/>
      <path class="cls-2" d="M125.5,155.56h-33.17c-1.98,0-3.58-1.6-3.58-3.58v-15.64c0-1.98,1.6-3.58,3.58-3.58h33.17c1.98,0,3.58,1.6,3.58,3.58v15.64c0,1.98-1.6,3.58-3.58,3.58ZM95.9,148.4h26.02v-8.48h-26.02v8.48Z"/>
    </g>
    <g>
      <path class="cls-2" d="M162.35,160.4h-76.8c-1.98,0-3.58,1.6-3.58,3.58s1.6,3.58,3.58,3.58h76.8c1.98,0,3.58-1.6,3.58-3.58s-1.6-3.58-3.58-3.58Z"/>
      <path class="cls-2" d="M266.93,160.4h-25.28c-1.98,0-3.58,1.6-3.58,3.58s1.6,3.58,3.58,3.58h25.28c1.98,0,3.58-1.6,3.58-3.58s-1.6-3.58-3.58-3.58Z"/>
    </g>
    <g>
      <circle class="cls-3" cx="201.97" cy="185.16" r="46.73" transform="translate(-13.15 354.86) rotate(-80.78)"/>
      <path class="cls-2" d="M201.97,236.66c-28.4,0-51.5-23.1-51.5-51.5s23.1-51.5,51.5-51.5,51.5,23.1,51.5,51.5-23.1,51.5-51.5,51.5ZM201.97,143.2c-23.14,0-41.96,18.82-41.96,41.96s18.82,41.96,41.96,41.96,41.96-18.82,41.96-41.96-18.82-41.96-41.96-41.96Z"/>
    </g>
    <g>
      <circle class="cls-1" cx="201.97" cy="185.16" r="28.55"/>
      <path class="cls-2" d="M201.97,218.48c-18.37,0-33.32-14.95-33.32-33.32s14.95-33.32,33.32-33.32,33.32,14.95,33.32,33.32-14.95,33.32-33.32,33.32ZM201.97,161.38c-13.11,0-23.78,10.67-23.78,23.78s10.67,23.78,23.78,23.78,23.78-10.67,23.78-23.78-10.67-23.78-23.78-23.78Z"/>
    </g>
    <path class="cls-3" d="M195.31,168.31c-4.52,0-8.19,3.68-8.19,8.19s3.68,8.19,8.19,8.19,8.19-3.68,8.19-8.19-3.68-8.19-8.19-8.19Z"/>
  </g>
</svg>