<?xml version="1.0" encoding="UTF-8"?>
<svg id="_レイヤー_1" data-name="レイヤー 1" xmlns="http://www.w3.org/2000/svg" xmlns:xlink="http://www.w3.org/1999/xlink" viewBox="0 0 340.16 340.16">
  <defs>
    <style>
      .cls-1 {
        fill: #231815;
      }

      .cls-2 {
        fill: #fff;
      }

      .cls-3 {
        fill: #fabe00;
      }

      .cls-4 {
        fill: #fee;
        filter: url(#drop-shadow-2);
        stroke: #f4c6d9;
        stroke-linecap: round;
        stroke-linejoin: round;
        stroke-width: 6px;
      }
    </style>
    <filter id="drop-shadow-2" x="11.11" y="12.57" width="320.88" height="320.88" filterUnits="userSpaceOnUse">
      <feOffset dx="2.83" dy="2.83"/>
      <feGaussianBlur result="blur" stdDeviation="2.83"/>
      <feFlood flood-color="#000" flood-opacity=".75"/>
      <feComposite in2="blur" operator="in"/>
      <feComposite in="SourceGraphic"/>
    </filter>
  </defs>
  <rect class="cls-4" x="19.93" y="21.24" width="297.64" height="297.64" rx="29.95" ry="29.95"/>
  <g>
    <g>
      <g>
        <rect class="cls-3" x="120.08" y="256.2" width="97.01" height="27.89"/>
        <path class="cls-1" d="M217.09,289.76h-97.01c-3.13,0-5.67-2.54-5.67-5.67v-27.89c0-3.13,2.54-5.67,5.67-5.67h97.01c3.13,0,5.67,2.54,5.67,5.67v27.89c0,3.13-2.54,5.67-5.67,5.67ZM125.75,278.42h85.68v-16.55h-85.68v16.55Z"/>
      </g>
      <g>
        <rect class="cls-3" x="149.93" y="126.17" width="37.32" height="137.61"/>
        <path class="cls-1" d="M187.25,269.45h-37.32c-3.13,0-5.67-2.54-5.67-5.67V126.17c0-3.13,2.54-5.67,5.67-5.67h37.32c3.13,0,5.67,2.54,5.67,5.67v137.61c0,3.13-2.54,5.67-5.67,5.67ZM155.6,258.11h25.98v-126.27h-25.98v126.27Z"/>
      </g>
      <g>
        <rect class="cls-3" x="36.23" y="62.78" width="264.71" height="168.68"/>
        <path class="cls-1" d="M300.94,237.13H36.23c-3.13,0-5.67-2.54-5.67-5.67V62.78c0-3.13,2.54-5.67,5.67-5.67h264.71c3.13,0,5.67,2.54,5.67,5.67v168.68c0,3.13-2.54,5.67-5.67,5.67ZM41.9,225.79h253.37V68.45H41.9v157.34Z"/>
      </g>
      <g>
        <rect class="cls-2" x="53.55" y="82.55" width="230.07" height="129.16"/>
        <path class="cls-1" d="M283.62,217.37H53.55c-3.13,0-5.67-2.54-5.67-5.67V82.55c0-3.13,2.54-5.67,5.67-5.67h230.07c3.13,0,5.67,2.54,5.67,5.67v129.16c0,3.13-2.54,5.67-5.67,5.67ZM59.22,206.03h218.73v-117.82H59.22v117.82Z"/>
      </g>
    </g>
    <g>
      <path class="cls-1" d="M131.2,179.72c-1.31,0-2.63-.45-3.71-1.38l-30.6-26.47c-1.24-1.08-1.96-2.64-1.96-4.29s.71-3.21,1.96-4.29l30.6-26.47c2.37-2.05,5.95-1.79,8,.58,2.05,2.37,1.79,5.95-.58,8l-25.64,22.19,25.64,22.19c2.37,2.05,2.63,5.63.58,8-1.12,1.3-2.7,1.96-4.29,1.96Z"/>
      <path class="cls-1" d="M203.76,179.72c-1.59,0-3.17-.66-4.29-1.96-2.05-2.37-1.79-5.95.58-8l25.64-22.19-25.64-22.19c-2.37-2.05-2.63-5.63-.58-8,2.05-2.37,5.63-2.63,8-.58l30.6,26.47c1.24,1.08,1.96,2.64,1.96,4.29s-.71,3.21-1.96,4.29l-30.6,26.47c-1.07.93-2.39,1.38-3.71,1.38Z"/>
      <path class="cls-1" d="M153.01,188.19c-.72,0-1.46-.14-2.17-.43-2.89-1.2-4.27-4.51-3.07-7.41l28.79-69.57c1.2-2.89,4.52-4.27,7.41-3.07,2.89,1.2,4.27,4.51,3.07,7.41l-28.79,69.57c-.9,2.18-3.02,3.5-5.24,3.5Z"/>
    </g>
    <g>
      <path class="cls-2" d="M295.56,295.63h0c-7.77,6.68-18.43,6.36-23.37-.29l-16.49-22.2c-3.66-4.93-2.83-14.68,3.33-19.98h0c6.16-5.3,15.93-4.66,20.25-.3l19.49,19.63c5.84,5.88,4.56,16.47-3.21,23.15Z"/>
      <path class="cls-1" d="M301.86,269.41l-19.49-19.62c-6.88-6.93-19.5-5.68-26.19.07-6.69,5.75-9.81,18.04-3.99,25.88l16.49,22.2c2.84,3.82,7.16,6.23,12.18,6.79.75.08,1.5.12,2.25.12,5.38,0,10.84-2.09,15.28-5.91,5.07-4.36,8.11-10.36,8.35-16.47.2-5.04-1.54-9.68-4.89-13.05ZM298.04,282.12c-.15,3.7-2.09,7.43-5.32,10.21-3.24,2.78-7.21,4.14-10.89,3.74-1.83-.2-4.38-.94-6.14-3.32l-16.49-22.2c-2.15-2.89-1.97-10.08,2.68-14.08,2.26-1.94,5.11-2.73,7.73-2.73,2.77,0,5.29.88,6.59,2.19l19.49,19.63c2.09,2.1,2.44,4.73,2.37,6.57Z"/>
      <path class="cls-1" d="M262.46,282.56c-.92,0-1.83-.39-2.48-1.14-1.18-1.37-1.02-3.43.35-4.61l21.9-18.84c1.37-1.18,3.43-1.02,4.61.35,1.18,1.37,1.02,3.43-.35,4.61l-21.9,18.84c-.62.53-1.38.79-2.13.79Z"/>
      <path class="cls-1" d="M271.54,270.97c-.92,0-1.83-.39-2.48-1.14l-9.16-10.65c-1.18-1.37-1.02-3.43.35-4.61,1.37-1.18,3.43-1.02,4.61.35l9.16,10.65c1.18,1.37,1.02,3.43-.35,4.61-.62.53-1.38.79-2.13.79Z"/>
    </g>
  </g>
</svg>