<?xml version="1.0" encoding="UTF-8"?>
<svg id="_レイヤー_1" data-name="レイヤー 1" xmlns="http://www.w3.org/2000/svg" xmlns:xlink="http://www.w3.org/1999/xlink" viewBox="0 0 340.16 340.16">
  <defs>
    <style>
      .cls-1 {
        fill: #231815;
      }

      .cls-2 {
        fill: #fff;
      }

      .cls-3 {
        fill: #fabe00;
      }

      .cls-4 {
        fill: #fee;
        filter: url(#drop-shadow-5);
        stroke: #f4c6d9;
        stroke-linecap: round;
        stroke-linejoin: round;
        stroke-width: 6px;
      }

      .cls-5 {
        fill: #fde599;
      }
    </style>
    <filter id="drop-shadow-5" x="9.88" y="12.57" width="320.88" height="320.88" filterUnits="userSpaceOnUse">
      <feOffset dx="2.83" dy="2.83"/>
      <feGaussianBlur result="blur" stdDeviation="2.83"/>
      <feFlood flood-color="#000" flood-opacity=".75"/>
      <feComposite in2="blur" operator="in"/>
      <feComposite in="SourceGraphic"/>
    </filter>
  </defs>
  <rect class="cls-4" x="18.69" y="21.24" width="297.64" height="297.64" rx="29.95" ry="29.95"/>
  <g>
    <g>
      <rect class="cls-2" x="152.95" y="228.08" width="29.81" height="46.73"/>
      <path class="cls-1" d="M182.77,279.96h-29.81c-2.84,0-5.14-2.3-5.14-5.14v-46.73c0-2.84,2.3-5.14,5.14-5.14h29.81c2.84,0,5.14,2.3,5.14,5.14v46.73c0,2.84-2.3,5.14-5.14,5.14ZM158.09,269.68h19.54v-36.46h-19.54v36.46Z"/>
    </g>
    <g>
      <rect class="cls-2" x="112.02" y="271.87" width="111.68" height="15.28" rx="1.95" ry="1.95"/>
      <path class="cls-1" d="M221.75,292.29h-107.78c-3.91,0-7.09-3.18-7.09-7.09v-11.38c0-3.91,3.18-7.09,7.09-7.09h107.78c3.91,0,7.09,3.18,7.09,7.09v11.38c0,3.91-3.18,7.09-7.09,7.09ZM117.16,282.01h101.4v-5h-101.4v5Z"/>
    </g>
    <g>
      <rect class="cls-2" x="36.39" y="72.72" width="262.94" height="169.87" rx="9.07" ry="9.07"/>
      <path class="cls-1" d="M290.27,247.72H45.45c-7.83,0-14.2-6.37-14.2-14.2V81.78c0-7.83,6.37-14.2,14.2-14.2h244.81c7.83,0,14.2,6.37,14.2,14.2v151.74c0,7.83-6.37,14.2-14.2,14.2ZM45.45,77.86c-2.16,0-3.93,1.76-3.93,3.93v151.74c0,2.16,1.76,3.93,3.93,3.93h244.81c2.16,0,3.93-1.76,3.93-3.93V81.78c0-2.16-1.76-3.93-3.93-3.93H45.45Z"/>
    </g>
    <g>
      <g>
        <g>
          <rect class="cls-3" x="51.51" y="157.65" width="116.35" height="72.92"/>
          <path class="cls-1" d="M167.86,234.43H51.51c-2.13,0-3.85-1.73-3.85-3.85v-72.92c0-2.13,1.73-3.85,3.85-3.85h116.35c2.13,0,3.85,1.73,3.85,3.85v72.92c0,2.13-1.73,3.85-3.85,3.85ZM55.36,226.72h108.64v-65.21H55.36v65.21Z"/>
        </g>
        <g>
          <rect class="cls-5" x="51.51" y="84.73" width="116.35" height="72.92"/>
          <path class="cls-1" d="M167.86,161.51H51.51c-2.13,0-3.85-1.73-3.85-3.85v-72.92c0-2.13,1.73-3.85,3.85-3.85h116.35c2.13,0,3.85,1.73,3.85,3.85v72.92c0,2.13-1.73,3.85-3.85,3.85ZM55.36,153.8h108.64v-65.21H55.36v65.21Z"/>
        </g>
      </g>
      <g>
        <g>
          <rect class="cls-3" x="167.86" y="84.73" width="116.35" height="72.92"/>
          <path class="cls-1" d="M284.21,161.51h-116.35c-2.13,0-3.85-1.73-3.85-3.85v-72.92c0-2.13,1.73-3.85,3.85-3.85h116.35c2.13,0,3.85,1.73,3.85,3.85v72.92c0,2.13-1.73,3.85-3.85,3.85ZM171.71,153.8h108.64v-65.21h-108.64v65.21Z"/>
        </g>
        <g>
          <rect class="cls-5" x="167.86" y="157.65" width="116.35" height="72.92"/>
          <path class="cls-1" d="M284.21,234.43h-116.35c-2.13,0-3.85-1.73-3.85-3.85v-72.92c0-2.13,1.73-3.85,3.85-3.85h116.35c2.13,0,3.85,1.73,3.85,3.85v72.92c0,2.13-1.73,3.85-3.85,3.85ZM171.71,226.72h108.64v-65.21h-108.64v65.21Z"/>
        </g>
      </g>
    </g>
    <g>
      <g>
        <path class="cls-2" d="M110.02,96.67c8.49,0,15.93,6.04,15.93,17.54s-8.75,16.39-8.75,21.83c0,6.74,14.05,7.78,17.13,13.38,1.52,2.76,1.24,8.22,1.24,8.22h-51.09s-.28-5.46,1.24-8.22c3.08-5.61,17.13-6.65,17.13-13.38,0-5.44-8.75-10.33-8.75-21.83s7.43-17.54,15.93-17.54Z"/>
        <path class="cls-1" d="M135.57,161.51h-51.09c-2.05,0-3.74-1.61-3.85-3.66-.06-1.09-.24-6.73,1.71-10.27,1.98-3.6,6.12-5.48,10.13-7.29,2.44-1.11,6.52-2.96,6.52-4.23,0-1.02-1.27-2.88-2.5-4.68-2.64-3.86-6.25-9.14-6.25-17.15,0-14.7,10.25-21.4,19.78-21.4s19.78,6.7,19.78,21.4c0,8.01-3.61,13.29-6.25,17.15-1.23,1.8-2.5,3.66-2.5,4.68,0,1.28,4.08,3.13,6.52,4.23,4.01,1.82,8.15,3.69,10.13,7.29,1.95,3.54,1.77,9.18,1.71,10.27-.1,2.05-1.8,3.66-3.85,3.66ZM88.48,153.8h43.1c-.13-1.04-.33-1.98-.62-2.51-.74-1.35-3.96-2.81-6.55-3.98-4.92-2.23-11.05-5.01-11.05-11.26,0-3.41,1.87-6.14,3.85-9.03,2.41-3.53,4.9-7.17,4.9-12.8,0-10.1-6.5-13.69-12.07-13.69s-12.07,3.58-12.07,13.69c0,5.63,2.49,9.27,4.9,12.8,1.98,2.89,3.85,5.63,3.85,9.03,0,6.25-6.13,9.02-11.05,11.26-2.59,1.17-5.81,2.63-6.55,3.98-.29.53-.49,1.47-.62,2.51Z"/>
      </g>
      <g>
        <path class="cls-2" d="M225.69,96.67c8.49,0,15.93,6.04,15.93,17.54s-8.75,16.39-8.75,21.83c0,6.74,14.05,7.78,17.13,13.38,1.52,2.76,1.24,8.22,1.24,8.22h-51.09s-.28-5.46,1.24-8.22c3.08-5.61,17.13-6.65,17.13-13.38,0-5.44-8.75-10.33-8.75-21.83s7.43-17.54,15.93-17.54Z"/>
        <path class="cls-1" d="M251.24,161.51h-51.09c-2.05,0-3.74-1.61-3.85-3.66-.06-1.09-.24-6.73,1.71-10.27,1.98-3.6,6.12-5.48,10.13-7.29,2.44-1.11,6.52-2.96,6.52-4.23,0-1.02-1.27-2.88-2.5-4.68-2.64-3.86-6.25-9.14-6.25-17.15,0-14.7,10.25-21.4,19.78-21.4s19.78,6.7,19.78,21.4c0,8.01-3.61,13.29-6.25,17.15-1.23,1.8-2.5,3.66-2.5,4.68,0,1.28,4.08,3.13,6.52,4.23,4.01,1.82,8.15,3.69,10.13,7.3,1.95,3.54,1.77,9.18,1.71,10.27-.1,2.05-1.8,3.66-3.85,3.66ZM204.14,153.8h43.1c-.13-1.04-.33-1.98-.62-2.51-.74-1.35-3.96-2.81-6.55-3.99-4.92-2.23-11.05-5.01-11.05-11.26,0-3.41,1.87-6.14,3.85-9.03,2.41-3.53,4.9-7.17,4.9-12.8,0-10.1-6.5-13.69-12.07-13.69s-12.07,3.58-12.07,13.69c0,5.63,2.49,9.27,4.9,12.8,1.98,2.89,3.85,5.63,3.85,9.03,0,6.25-6.13,9.02-11.05,11.26-2.59,1.17-5.81,2.63-6.55,3.98-.29.53-.49,1.47-.62,2.51Z"/>
      </g>
      <g>
        <path class="cls-2" d="M110.02,169.59c8.49,0,15.93,6.04,15.93,17.54s-8.75,16.39-8.75,21.83c0,6.74,14.05,7.78,17.13,13.38,1.52,2.76,1.24,8.22,1.24,8.22h-51.09s-.28-5.46,1.24-8.22c3.08-5.61,17.13-6.65,17.13-13.38,0-5.44-8.75-10.33-8.75-21.83s7.43-17.54,15.93-17.54Z"/>
        <path class="cls-1" d="M135.57,234.43h-51.09c-2.05,0-3.74-1.61-3.85-3.66-.06-1.09-.24-6.73,1.71-10.27,1.98-3.6,6.12-5.48,10.13-7.29,2.44-1.11,6.52-2.96,6.52-4.23,0-1.02-1.27-2.88-2.5-4.68-2.64-3.86-6.25-9.14-6.25-17.15,0-14.7,10.25-21.4,19.78-21.4s19.78,6.7,19.78,21.4c0,8.01-3.61,13.29-6.25,17.15-1.23,1.8-2.5,3.66-2.5,4.68,0,1.28,4.08,3.13,6.52,4.23,4.01,1.82,8.15,3.69,10.13,7.29,1.95,3.54,1.77,9.18,1.71,10.27-.1,2.05-1.8,3.66-3.85,3.66ZM88.48,226.72h43.1c-.13-1.04-.33-1.98-.62-2.51-.74-1.35-3.96-2.81-6.55-3.98-4.92-2.23-11.05-5.01-11.05-11.26,0-3.41,1.87-6.14,3.85-9.03,2.41-3.53,4.9-7.17,4.9-12.8,0-10.1-6.5-13.69-12.07-13.69s-12.07,3.58-12.07,13.69c0,5.63,2.49,9.27,4.9,12.8,1.98,2.89,3.85,5.63,3.85,9.03,0,6.25-6.13,9.02-11.05,11.26-2.59,1.17-5.81,2.63-6.55,3.98-.29.53-.49,1.47-.62,2.51Z"/>
      </g>
      <g>
        <path class="cls-2" d="M225.69,169.59c8.49,0,15.93,6.04,15.93,17.54s-8.75,16.39-8.75,21.83c0,6.74,14.05,7.78,17.13,13.38,1.52,2.76,1.24,8.22,1.24,8.22h-51.09s-.28-5.46,1.24-8.22c3.08-5.61,17.13-6.65,17.13-13.38,0-5.44-8.75-10.33-8.75-21.83s7.43-17.54,15.93-17.54Z"/>
        <path class="cls-1" d="M251.24,234.43h-51.09c-2.05,0-3.74-1.61-3.85-3.66-.06-1.09-.24-6.73,1.71-10.27,1.98-3.6,6.12-5.48,10.13-7.29,2.44-1.11,6.52-2.96,6.52-4.23,0-1.02-1.27-2.88-2.5-4.68-2.64-3.86-6.25-9.14-6.25-17.15,0-14.7,10.25-21.4,19.78-21.4s19.78,6.7,19.78,21.4c0,8.01-3.61,13.29-6.25,17.15-1.23,1.8-2.5,3.66-2.5,4.68,0,1.28,4.08,3.13,6.52,4.23,4.01,1.82,8.15,3.69,10.13,7.3,1.95,3.54,1.77,9.18,1.71,10.27-.1,2.05-1.8,3.66-3.85,3.66ZM204.14,226.72h43.1c-.13-1.04-.33-1.98-.62-2.51-.74-1.35-3.96-2.81-6.55-3.99-4.92-2.23-11.05-5.01-11.05-11.26,0-3.41,1.87-6.14,3.85-9.03,2.41-3.53,4.9-7.17,4.9-12.8,0-10.1-6.5-13.69-12.07-13.69s-12.07,3.58-12.07,13.69c0,5.63,2.49,9.27,4.9,12.8,1.98,2.89,3.85,5.63,3.85,9.03,0,6.25-6.13,9.02-11.05,11.26-2.59,1.17-5.81,2.63-6.55,3.98-.29.53-.49,1.47-.62,2.51Z"/>
      </g>
    </g>
  </g>
</svg>