<?xml version="1.0" encoding="UTF-8"?>
<svg id="_レイヤー_1" data-name="レイヤー 1" xmlns="http://www.w3.org/2000/svg" xmlns:xlink="http://www.w3.org/1999/xlink" viewBox="0 0 340.16 340.16">
  <defs>
    <style>
      .cls-1 {
        fill: #dbdcdc;
      }

      .cls-2 {
        fill: #231815;
      }

      .cls-3 {
        fill: #7d7d7d;
      }

      .cls-4 {
        fill: #fff;
      }

      .cls-5 {
        fill: #fabe00;
      }

      .cls-6 {
        fill: #fee;
        filter: url(#drop-shadow-4);
        stroke: #f4c6d9;
        stroke-linecap: round;
        stroke-linejoin: round;
        stroke-width: 6px;
      }

      .cls-7 {
        fill: #fde599;
      }
    </style>
    <filter id="drop-shadow-4" x="10.16" y="12.57" width="320.88" height="320.88" filterUnits="userSpaceOnUse">
      <feOffset dx="2.83" dy="2.83"/>
      <feGaussianBlur result="blur" stdDeviation="2.83"/>
      <feFlood flood-color="#000" flood-opacity=".75"/>
      <feComposite in2="blur" operator="in"/>
      <feComposite in="SourceGraphic"/>
    </filter>
  </defs>
  <rect class="cls-6" x="18.98" y="21.24" width="297.64" height="297.64" rx="29.95" ry="29.95"/>
  <g>
    <g>
      <path class="cls-5" d="M197.06,60.7s-3.62,3.96-5.61,7.52l22.08,25.6,15.22-1.94v-21.46l-31.68-9.72Z"/>
      <path class="cls-2" d="M213.52,97.97c-2.06,0-3.85-1.53-4.11-3.63-.29-2.27,1.32-4.35,3.59-4.64l11.59-1.48v-14.73l-26.15-8.02c-1.08,1.33-2.45,3.13-3.38,4.78-1.12,2-3.65,2.71-5.65,1.59-2-1.12-2.71-3.65-1.59-5.65,2.2-3.93,6.01-8.11,6.17-8.29,1.08-1.19,2.75-1.64,4.28-1.17l31.68,9.72c1.74.53,2.93,2.15,2.93,3.97v21.46c0,2.09-1.55,3.85-3.63,4.12l-15.22,1.94c-.18.02-.36.03-.53.03Z"/>
    </g>
    <g>
      <g>
        <path class="cls-4" d="M142.99,115.53c-4.19-19.99-22.22-33.17-40.48-29.74l-29.38,6.84-12.33,8.42s1.76,56.09,3.33,66.07c1.57,9.98,5.48,15.27,12.72,17.23,0,0,21.73,2.94,26.23,3.13,4.5.2,9.59,1.17,19.57-1.17l21.15-6.76v-53.34c.2-3.48-.06-7.06-.81-10.67Z"/>
        <path class="cls-2" d="M110.48,191.99c-2.03,0-3.77-.12-5.37-.24-.77-.06-1.5-.11-2.22-.14-4.64-.2-25.71-3.04-26.6-3.17-.18-.02-.35-.06-.53-.11-8.91-2.41-13.92-8.95-15.74-20.59-1.59-10.12-3.3-64.28-3.38-66.58-.04-1.42.64-2.76,1.81-3.56l12.33-8.42c.42-.29.9-.5,1.4-.61l29.38-6.84c.06-.01.12-.03.18-.04,9.98-1.87,20.19.55,28.74,6.82,8.45,6.2,14.34,15.49,16.57,26.15h0c.81,3.85,1.11,7.76.9,11.63v53.22c0,1.81-1.17,3.4-2.89,3.95l-21.15,6.76c-.1.03-.21.06-.31.09-5.58,1.31-9.74,1.66-13.12,1.66ZM77.68,180.25c6.2.84,22.09,2.91,25.57,3.06.79.03,1.6.09,2.45.15,3.86.27,8.24.59,15.84-1.18l18.11-5.79v-50.3c0-.08,0-.16,0-.24.18-3.18-.06-6.4-.73-9.58-3.68-17.58-19.62-29.47-35.57-26.53l-28.53,6.64-9.81,6.69c.35,10.58,1.87,54.79,3.21,63.28,1.59,10.11,5.46,12.66,9.46,13.79Z"/>
      </g>
      <g>
        <path class="cls-5" d="M217.58,81.85c-5.68-9-20.55-17.81-40.13-13.51l-74.95,17.44c18.26-3.42,36.3,9.75,40.48,29.74.75,3.61,1.01,7.19.81,10.67v45.99l73.78-23.58v-66.75Z"/>
        <path class="cls-2" d="M143.8,176.33c-.87,0-1.73-.27-2.45-.8-1.07-.78-1.7-2.03-1.7-3.35v-45.99c0-.08,0-.16,0-.24.18-3.18-.06-6.4-.73-9.58-3.69-17.61-19.68-29.5-35.65-26.51-2.22.42-4.36-1.02-4.83-3.23-.46-2.21.92-4.39,3.12-4.9l74.95-17.44c21.08-4.64,37.87,4.7,44.58,15.33.42.66.64,1.43.64,2.21v66.75c0,1.81-1.17,3.4-2.89,3.95l-73.78,23.58c-.41.13-.84.2-1.26.2ZM147.95,126.31v40.19l65.48-20.93v-62.45c-5.61-7.84-18.63-14.33-35.08-10.71l-53.79,12.52c2.04,1.01,4.03,2.21,5.93,3.61,8.45,6.2,14.34,15.49,16.57,26.15.81,3.85,1.11,7.76.9,11.63Z"/>
      </g>
    </g>
    <g>
      <ellipse class="cls-1" cx="79.73" cy="129.09" rx="28.3" ry="30.98" transform="translate(-24.76 19.08) rotate(-11.82)"/>
      <path class="cls-2" d="M80.76,164.11c-15.28,0-29.29-11.65-32.79-28.37-1.91-9.12-.45-18.39,4.12-26.1,4.63-7.84,11.9-13.14,20.45-14.93,8.55-1.79,17.33.15,24.72,5.47,7.27,5.24,12.33,13.14,14.24,22.26,1.91,9.12.45,18.39-4.12,26.1-4.63,7.84-11.9,13.14-20.45,14.93-2.07.43-4.13.64-6.17.64ZM78.75,102.36c-1.51,0-3.01.16-4.51.47-6.24,1.31-11.57,5.22-15.01,11.03-3.5,5.93-4.62,13.09-3.14,20.17,3.03,14.48,16.1,24.04,29.14,21.31,6.24-1.31,11.57-5.22,15.01-11.03,3.5-5.93,4.62-13.09,3.14-20.17-1.48-7.08-5.38-13.2-10.97-17.22-4.16-3-8.89-4.55-13.66-4.55Z"/>
    </g>
    <g>
      <path class="cls-4" d="M123.62,120.53c4.46,21.3-7.7,41.87-27.16,45.94-3.46.72-9.39,2.99-12.76,2.64-15.59-1.65-26.88-17.19-30.55-34.7-3.57-17.03,10.7-41.02,10.7-41.02,0,0,12.56-3.23,16.46-4.04,19.46-4.07,38.85,9.89,43.31,31.19Z"/>
      <path class="cls-2" d="M84.44,173.29c-.4,0-.8-.02-1.18-.06-18.53-1.96-30.52-20.48-34.18-37.98-3.85-18.41,10.58-42.96,11.2-43.99.56-.94,1.47-1.63,2.54-1.9.52-.13,12.7-3.26,16.64-4.09,21.67-4.54,43.3,10.9,48.22,34.4h0c4.92,23.5-8.7,46.32-30.37,50.85-.92.19-2.15.54-3.46.92-3.07.87-6.49,1.85-9.41,1.85ZM66.6,96.97c-2.86,5.26-12.11,23.6-9.39,36.59,3.05,14.55,12.55,29.91,26.92,31.42,1.54.15,5.09-.85,7.44-1.52,1.45-.41,2.82-.8,4.03-1.06,17.19-3.6,27.93-22,23.95-41.03h0c-3.98-19.02-21.21-31.58-38.39-27.97-2.91.61-11,2.66-14.56,3.56Z"/>
    </g>
    <g>
      <ellipse class="cls-4" cx="74.92" cy="131.09" rx="36" ry="39.4" transform="translate(-25.27 18.13) rotate(-11.82)"/>
      <path class="cls-2" d="M76.14,174.52c-8.02,0-15.93-2.59-22.85-7.57-9.02-6.5-15.3-16.31-17.67-27.63-2.37-11.32-.56-22.82,5.1-32.39,5.73-9.69,14.71-16.25,25.27-18.46,10.57-2.21,21.42.19,30.56,6.77,9.02,6.5,15.3,16.31,17.67,27.63,2.37,11.32.56,22.82-5.1,32.39-5.73,9.69-14.71,16.25-25.27,18.46-2.56.54-5.14.8-7.7.8ZM73.67,95.97c-1.99,0-3.99.2-5.97.62-8.26,1.73-15.3,6.9-19.83,14.56-4.6,7.78-6.06,17.18-4.12,26.46,1.94,9.28,7.05,17.31,14.39,22.59,7.22,5.2,15.75,7.11,24,5.38,8.26-1.73,15.3-6.9,19.83-14.56,4.6-7.78,6.06-17.18,4.12-26.46h0c-1.94-9.28-7.05-17.31-14.39-22.59-5.49-3.95-11.73-6-18.03-6Z"/>
    </g>
    <g>
      <ellipse class="cls-3" cx="74.71" cy="131.09" rx="24.05" ry="26.32" transform="translate(-25.28 18.09) rotate(-11.83)"/>
      <path class="cls-2" d="M75.53,160.44c-5.43,0-10.78-1.75-15.46-5.12-6.1-4.39-10.33-11.02-11.94-18.66-1.6-7.64-.38-15.41,3.45-21.88,3.88-6.56,9.95-10.99,17.11-12.49,7.15-1.5,14.5.13,20.68,4.58,6.1,4.39,10.33,11.02,11.94,18.66h0c1.6,7.64.38,15.41-3.45,21.88-3.88,6.56-9.95,10.99-17.11,12.49-1.73.36-3.48.54-5.22.54ZM73.88,107.97c-1.31,0-2.62.14-3.92.41-5.42,1.13-10.04,4.53-13.02,9.57-3.03,5.13-3.99,11.32-2.71,17.44,1.28,6.12,4.65,11.4,9.48,14.88,4.75,3.42,10.34,4.67,15.76,3.54,5.42-1.13,10.05-4.53,13.02-9.57,3.03-5.13,3.99-11.32,2.71-17.44h0c-1.28-6.12-4.65-11.4-9.48-14.88-3.61-2.6-7.71-3.95-11.85-3.95Z"/>
    </g>
    <g>
      <path class="cls-2" d="M78.62,150.07c2.22-.46,4.24-1.36,6.01-2.6.17-.12-.17-.51-.17-.51l-23.51-5.05s-.47.32-.3.56c4.12,5.85,11.04,9.05,17.97,7.6Z"/>
      <path class="cls-2" d="M75.33,152.49c-6.28,0-12.43-3.23-16.37-8.82-.35-.5-.49-1.11-.38-1.72.17-.92.84-1.49,1.22-1.75.47-.32,1.04-.43,1.6-.31l23.51,5.05c.44.1.84.33,1.14.68.38.44.81,1.16.7,2.04-.08.61-.41,1.17-.92,1.52-2.06,1.43-4.34,2.42-6.78,2.93h0c-1.23.26-2.48.38-3.72.38ZM66.07,145.13c3.53,2.67,7.92,3.79,12.13,2.91h0c.23-.05.45-.1.68-.16l-12.8-2.75Z"/>
    </g>
    <g>
      <path class="cls-4" d="M143.59,102.6h106.29c13.11,0,12.92,77.33,2.15,77.33l-108.44-.41c-4.11,0-3.72-7.05-3.72-16.83v-53.24c0-5.48,2.74-6.85,3.72-6.85Z"/>
      <path class="cls-2" d="M252.03,184.09l-108.46-.41c-1.87,0-3.55-.68-4.84-1.98-3.07-3.08-3.05-8.48-3.02-16.67,0-.76,0-1.54,0-2.34v-53.24c0-3.33.8-6.04,2.38-8.05,1.45-1.85,3.51-2.96,5.49-2.96h106.29c8.16,0,10.78,12.25,11.64,16.27,1.65,7.7,2.56,17.97,2.56,28.93,0,9.84-.74,19.03-2.09,25.88-1.23,6.25-3.6,14.55-9.96,14.55ZM144.51,175.38l106.82.4c3.09-3.9,5.93-26.99,3.62-49.23-1.47-14.17-4.22-18.99-5.29-19.8h-105.15c-.19.37-.47,1.17-.47,2.7v53.24c0,.81,0,1.6,0,2.37-.01,3.61-.03,8.4.49,10.32ZM143.59,175.38h0,0ZM249.88,106.75h0,0Z"/>
    </g>
    <g>
      <path class="cls-4" d="M134.79,121.39l10.77.2c4.31,14.68.98,36.21-.59,40.13h-10.37l.2-40.32Z"/>
      <path class="cls-2" d="M144.97,164.83h-10.37c-.83,0-1.62-.33-2.21-.92-.58-.59-.91-1.38-.91-2.21l.2-40.32c0-.83.34-1.63.94-2.21.6-.58,1.41-.93,2.23-.89l10.77.2c1.36.02,2.55.93,2.93,2.24,4.49,15.31,1.25,37.32-.68,42.16-.47,1.18-1.62,1.96-2.89,1.96ZM137.72,158.6h4.91c1.36-5.93,3.33-21.74.51-33.94l-5.25-.1-.17,34.04Z"/>
    </g>
    <path class="cls-2" d="M116.77,180.23c-.56,0-1.14-.15-1.65-.48-1.46-.91-1.9-2.83-.99-4.29,1.1-1.75,1.73-3.89,1.73-5.86v-18.72c0-1.72,1.39-3.11,3.11-3.11s3.11,1.39,3.11,3.11v18.72c0,3.16-.95,6.41-2.68,9.17-.59.94-1.61,1.46-2.64,1.46Z"/>
    <g>
      <path class="cls-4" d="M166.44,71.37c5.37.36,15.92,2.33,18.25,4.11l7.33-1.7v-9.57s-9.84-2.95-18.69-3.13l-7.15,1.88.27,8.41Z"/>
      <path class="cls-2" d="M184.69,79.64c-.89,0-1.76-.29-2.49-.83-1.64-1.01-10.32-2.91-16.03-3.3-2.13-.14-3.81-1.88-3.87-4.01l-.27-8.41c-.06-1.94,1.22-3.66,3.1-4.15l7.15-1.88c.37-.1.76-.14,1.14-.14,9.31.19,19.38,3.18,19.8,3.31,1.76.53,2.96,2.14,2.96,3.98v9.57c0,1.93-1.33,3.61-3.21,4.04l-7.33,1.7c-.31.07-.62.11-.94.11ZM182.22,78.82h0,0ZM170.48,67.64c4.41.59,10.98,1.76,14.79,3.45l2.6-.6v-3.08c-3.3-.81-8.87-1.98-14.06-2.16l-3.38.89.05,1.5Z"/>
    </g>
    <g>
      <path class="cls-2" d="M70.68,112.11c-2.93.61-5.52,1.99-7.64,3.9-.14.13.23.53.23.53l26.18,5.62s.58-.18.49-.35c-3.85-7.16-11.54-11.31-19.26-9.7Z"/>
      <path class="cls-2" d="M89.45,124.23c-.15,0-.29-.02-.44-.05l-26.18-5.62c-.42-.09-.8-.31-1.09-.62-.39-.42-.85-1.11-.81-1.96.03-.59.28-1.13.72-1.52,2.45-2.2,5.42-3.72,8.6-4.38h0c8.46-1.77,17.11,2.55,21.51,10.75.29.55.33,1.26.09,1.84-.29.7-.89,1.19-1.8,1.47-.2.06-.41.09-.61.09ZM67.64,115.35l17.96,3.86c-3.77-4.18-9.19-6.17-14.49-5.06h0c-1.22.25-2.38.66-3.47,1.21ZM64.43,117.55s0,0,0,0c0,0,0,0,0,0Z"/>
    </g>
    <circle class="cls-4" cx="66.35" cy="123" r="6.25" transform="translate(-72.65 137.53) rotate(-67.62)"/>
  </g>
  <g>
    <g>
      <path class="cls-4" d="M246.11,150.56c12.7,0,23.82,9.03,23.82,26.23s-13.08,24.51-13.08,32.65c0,10.07,15.8,11.63,20.4,20.02,2.27,4.13,1.85,37.14,1.85,37.14h-65.98s-.42-33,1.85-37.14c4.6-8.38,20.4-9.94,20.4-20.02,0-8.13-13.08-15.44-13.08-32.65s11.12-26.23,23.82-26.23Z"/>
      <path class="cls-2" d="M279.1,270.38h-65.98c-2.07,0-3.75-1.66-3.78-3.73-.16-12.7-.07-34.65,2.32-39.01,2.48-4.52,7.23-7.27,11.41-9.69,5.28-3.06,8.52-5.11,8.52-8.5,0-2.14-1.89-4.91-4.09-8.12-3.8-5.55-9-13.16-9-24.52,0-9.1,2.85-16.79,8.24-22.23,4.97-5.02,11.85-7.79,19.36-7.79s14.38,2.76,19.36,7.79c5.39,5.44,8.24,13.13,8.24,22.23,0,11.36-5.2,18.97-9,24.52-2.19,3.21-4.09,5.98-4.09,8.12,0,3.39,3.24,5.44,8.52,8.5,4.18,2.42,8.93,5.17,11.41,9.69,2.39,4.36,2.48,26.31,2.32,39.01-.03,2.07-1.71,3.73-3.78,3.73ZM216.87,262.82h58.49c.07-13.9-.43-28.97-1.45-31.6-1.49-2.65-5.07-4.72-8.54-6.73-5.48-3.17-12.29-7.12-12.29-15.04,0-4.48,2.62-8.32,5.4-12.39,3.6-5.27,7.68-11.23,7.68-20.26,0-16.57-10.8-22.46-20.04-22.46s-20.04,5.88-20.04,22.46c0,9.03,4.08,14.99,7.68,20.26,2.78,4.07,5.4,7.91,5.4,12.39,0,7.92-6.82,11.87-12.29,15.04-3.46,2.01-7.05,4.08-8.54,6.73-1.03,2.63-1.52,17.71-1.45,31.61ZM273.94,231.28h0,0Z"/>
    </g>
    <g>
      <rect class="cls-5" x="135.19" y="266.6" width="161.36" height="14.47"/>
      <path class="cls-2" d="M296.54,284.84h-161.36c-2.09,0-3.78-1.69-3.78-3.78v-14.47c0-2.09,1.69-3.78,3.78-3.78h161.36c2.09,0,3.78,1.69,3.78,3.78v14.47c0,2.09-1.69,3.78-3.78,3.78ZM138.96,277.29h153.8v-6.91h-153.8v6.91Z"/>
    </g>
    <g>
      <polygon class="cls-7" points="208.9 251.99 192.92 200.36 133.94 200.36 136.76 209.47 136.76 209.47 154.28 266.06 213.26 266.06 238.56 266.06 238.56 251.99 208.9 251.99"/>
      <path class="cls-2" d="M238.56,269.84h-84.28c-1.66,0-3.12-1.08-3.61-2.66l-20.33-65.7c-.35-1.15-.14-2.39.57-3.36.71-.97,1.84-1.54,3.04-1.54h58.98c1.66,0,3.12,1.08,3.61,2.66l15.16,48.97h26.87c2.09,0,3.78,1.69,3.78,3.78v14.07c0,2.09-1.69,3.78-3.78,3.78ZM157.06,262.28h77.72v-6.51h-25.88c-1.66,0-3.12-1.08-3.61-2.66l-15.16-48.97h-51.07l18,58.14Z"/>
    </g>
  </g>
</svg>