<?xml version="1.0" encoding="UTF-8"?>
<svg id="_レイヤー_1" data-name="レイヤー 1" xmlns="http://www.w3.org/2000/svg" xmlns:xlink="http://www.w3.org/1999/xlink" viewBox="0 0 340.16 340.16">
  <defs>
    <style>
      .cls-1 {
        fill: #231815;
      }

      .cls-2 {
        fill: #fff;
      }

      .cls-3 {
        fill: #fabe00;
      }

      .cls-4 {
        fill: #fee;
        filter: url(#drop-shadow-14);
        stroke: #f4c6d9;
        stroke-linecap: round;
        stroke-linejoin: round;
        stroke-width: 6px;
      }
    </style>
    <filter id="drop-shadow-14" x="12.45" y="12.57" width="320.88" height="320.88" filterUnits="userSpaceOnUse">
      <feOffset dx="2.83" dy="2.83"/>
      <feGaussianBlur result="blur" stdDeviation="2.83"/>
      <feFlood flood-color="#000" flood-opacity=".75"/>
      <feComposite in2="blur" operator="in"/>
      <feComposite in="SourceGraphic"/>
    </filter>
  </defs>
  <rect class="cls-4" x="21.26" y="21.24" width="297.64" height="297.64" rx="29.95" ry="29.95"/>
  <g>
    <g>
      <path class="cls-2" d="M164.96,50.31c11.99,0,22.49,8.53,22.49,24.77s-12.35,23.15-12.35,30.82c0,9.51,14.92,10.98,19.26,18.9,2.14,3.9,1.75,21.45,1.75,21.45h-62.3s-.39-17.55,1.75-21.45c4.35-7.92,19.26-9.39,19.26-18.9,0-7.68-12.35-14.58-12.35-30.82s10.5-24.77,22.49-24.77Z"/>
      <path class="cls-1" d="M196.11,151.37h-62.3c-2.78,0-5.05-2.22-5.12-5-.16-7.07-.06-19.58,2.38-24.03,2.55-4.65,7.23-7.36,11.36-9.75,4.53-2.62,7.27-4.38,7.27-6.69,0-1.55-1.74-4.1-3.59-6.79-3.7-5.41-8.76-12.82-8.76-24.03,0-20.53,14.31-29.89,27.61-29.89s27.61,9.35,27.61,29.89c0,11.21-5.07,18.62-8.77,24.03-1.84,2.7-3.59,5.25-3.59,6.79,0,2.31,2.75,4.07,7.27,6.69,4.13,2.39,8.8,5.1,11.36,9.75,2.44,4.44,2.54,16.96,2.38,24.03-.06,2.78-2.33,5-5.12,5ZM138.9,141.14h52.12c-.07-6.54-.54-12.48-1.18-13.95-1.14-2.07-4.36-3.94-7.48-5.74-5.52-3.19-12.38-7.17-12.38-15.54,0-4.71,2.61-8.53,5.37-12.57,3.43-5.02,6.98-10.21,6.98-18.25,0-9.07-4.55-19.65-17.37-19.65-8.01,0-17.37,5.15-17.37,19.65,0,8.04,3.55,13.23,6.98,18.25,2.76,4.04,5.37,7.86,5.37,12.57,0,8.37-6.86,12.35-12.38,15.54-3.11,1.8-6.33,3.67-7.51,5.82-.61,1.4-1.08,7.33-1.15,13.87Z"/>
    </g>
    <g>
      <polygon class="cls-3" points="257.83 219.36 72.09 219.36 108.02 146.25 221.9 146.25 257.83 219.36"/>
      <path class="cls-1" d="M257.83,224.48H72.09c-1.77,0-3.41-.91-4.34-2.41-.93-1.5-1.03-3.38-.25-4.96l35.93-73.1c.86-1.75,2.64-2.86,4.59-2.86h113.88c1.95,0,3.73,1.11,4.59,2.86l35.93,73.1c.78,1.59.69,3.46-.25,4.96-.93,1.5-2.58,2.41-4.34,2.41ZM80.31,214.24h169.31l-30.9-62.87h-107.5l-30.9,62.87Z"/>
    </g>
    <g>
      <path class="cls-2" d="M164.96,158.81c14.5,0,27.19,10.31,27.19,29.95s-14.93,27.98-14.93,37.26c0,11.5,18.03,13.28,23.29,22.85,2.59,4.72,2.11,25.93,2.11,25.93h-75.31s-.48-21.21,2.11-25.93c5.26-9.57,23.29-11.35,23.29-22.85,0-9.28-14.93-17.63-14.93-37.26s12.69-29.95,27.19-29.95Z"/>
      <path class="cls-1" d="M202.62,279.92h-75.31c-2.78,0-5.05-2.22-5.12-5-.15-6.79-.19-23.16,2.75-28.51,2.94-5.36,8.46-8.56,13.33-11.37,6.34-3.67,9.33-5.76,9.33-9.01,0-2.2-2.1-5.27-4.52-8.82-4.39-6.43-10.41-15.23-10.41-28.45,0-20.64,13.28-35.06,32.31-35.06s32.31,14.42,32.31,35.06c0,13.22-6.02,22.02-10.41,28.45-2.43,3.55-4.52,6.62-4.52,8.82,0,3.25,2.99,5.34,9.33,9.01,4.87,2.82,10.38,6.01,13.33,11.37,2.94,5.35,2.9,21.72,2.75,28.51-.06,2.78-2.33,5-5.12,5ZM132.38,269.68h65.17c-.04-8.11-.58-16.41-1.54-18.38-1.56-2.84-5.58-5.17-9.47-7.42-6.43-3.72-14.43-8.36-14.43-17.87,0-5.36,3.06-9.85,6.31-14.59,4.04-5.91,8.62-12.62,8.62-22.67,0-18.33-11.89-24.83-22.07-24.83s-22.07,6.5-22.07,24.83c0,10.05,4.58,16.76,8.62,22.67,3.24,4.75,6.31,9.23,6.31,14.59,0,9.51-8,14.14-14.43,17.87-3.89,2.25-7.91,4.58-9.49,7.44-.95,1.95-1.49,10.24-1.53,18.35Z"/>
    </g>
  </g>
</svg>