<!--?xml version="1.0" encoding="utf-8"?-->
<!-- Generator: Adobe Illustrator 18.1.1, SVG Export Plug-In . SVG Version: 6.00 Build 0)  -->

<svg version="1.1" id="_x32_" xmlns="http://www.w3.org/2000/svg" xmlns:xlink="http://www.w3.org/1999/xlink" x="0px" y="0px" viewBox="0 0 512 512" style="width: 256px; height: 256px; opacity: 1;" xml:space="preserve">
<style type="text/css">
	.st0{fill:#4B4B4B;}
</style>
<g>
	<path class="st0" d="M36.572,219.429C16.375,219.429,0,235.803,0,256c0,20.196,16.375,36.571,36.572,36.571h212.16
		c-4.098-11.447-6.446-23.715-6.446-36.571c0-12.858,2.348-25.126,6.446-36.572H36.572z" style="fill: rgb(75, 75, 75);"></path>
	<path class="st0" d="M475.429,219.429h-22.456c4.107,11.446,6.456,23.714,6.456,36.572c0,12.856-2.349,25.124-6.447,36.571h22.447
		C495.624,292.571,512,276.196,512,256C512,235.803,495.624,219.429,475.429,219.429z" style="fill: rgb(75, 75, 75);"></path>
	<path class="st0" d="M350.857,177.143C307.303,177.143,272,212.455,272,256c0,43.544,35.304,78.857,78.858,78.857
		c43.553,0,78.857-35.313,78.857-78.857C429.714,212.455,394.41,177.143,350.857,177.143z M350.857,280.839
		c-13.724,0-24.848-11.124-24.848-24.838c0-13.733,11.125-24.84,24.848-24.84c13.722,0,24.848,11.107,24.848,24.84
		C375.705,269.714,364.58,280.839,350.857,280.839z" style="fill: rgb(75, 75, 75);"></path>
</g>
</svg>
